%TF.GenerationSoftware,KiCad,Pcbnew,7.0.10*%
%TF.CreationDate,2024-03-12T01:25:21-07:00*%
%TF.ProjectId,keyboard,6b657962-6f61-4726-942e-6b696361645f,rev?*%
%TF.SameCoordinates,Original*%
%TF.FileFunction,Legend,Bot*%
%TF.FilePolarity,Positive*%
%FSLAX46Y46*%
G04 Gerber Fmt 4.6, Leading zero omitted, Abs format (unit mm)*
G04 Created by KiCad (PCBNEW 7.0.10) date 2024-03-12 01:25:21*
%MOMM*%
%LPD*%
G01*
G04 APERTURE LIST*
%ADD10C,0.150000*%
%ADD11C,0.120000*%
G04 APERTURE END LIST*
D10*
X107436749Y-118876745D02*
X107484087Y-119589460D01*
X107484087Y-119589460D02*
X107541069Y-119728847D01*
X107541069Y-119728847D02*
X107642410Y-119817564D01*
X107642410Y-119817564D02*
X107788109Y-119855611D01*
X107788109Y-119855611D02*
X107883138Y-119849299D01*
X106505221Y-119940820D02*
X107075393Y-119902949D01*
X106790307Y-119921885D02*
X106724033Y-118924083D01*
X106724033Y-118924083D02*
X106828530Y-119060315D01*
X106828530Y-119060315D02*
X106929870Y-119149032D01*
X106929870Y-119149032D02*
X107028055Y-119190234D01*
X258932579Y-112545180D02*
X258785250Y-112576321D01*
X258785250Y-112576321D02*
X258548685Y-112549367D01*
X258548685Y-112549367D02*
X258459450Y-112491273D01*
X258459450Y-112491273D02*
X258417527Y-112438570D01*
X258417527Y-112438570D02*
X258380996Y-112338553D01*
X258380996Y-112338553D02*
X258391777Y-112243927D01*
X258391777Y-112243927D02*
X258449871Y-112154692D01*
X258449871Y-112154692D02*
X258502575Y-112112770D01*
X258502575Y-112112770D02*
X258602591Y-112076238D01*
X258602591Y-112076238D02*
X258797234Y-112050488D01*
X258797234Y-112050488D02*
X258897250Y-112013956D01*
X258897250Y-112013956D02*
X258949954Y-111972034D01*
X258949954Y-111972034D02*
X259008048Y-111882798D01*
X259008048Y-111882798D02*
X259018829Y-111788172D01*
X259018829Y-111788172D02*
X258982297Y-111688156D01*
X258982297Y-111688156D02*
X258940375Y-111635452D01*
X258940375Y-111635452D02*
X258851140Y-111577358D01*
X258851140Y-111577358D02*
X258614575Y-111550405D01*
X258614575Y-111550405D02*
X258467246Y-111581546D01*
X258141446Y-111496499D02*
X257791678Y-112463117D01*
X257791678Y-112463117D02*
X257683285Y-111731861D01*
X257683285Y-111731861D02*
X257413174Y-112419992D01*
X257413174Y-112419992D02*
X257289813Y-111399467D01*
X256277664Y-112290617D02*
X256845419Y-112355305D01*
X256561541Y-112322961D02*
X256674745Y-111329389D01*
X256674745Y-111329389D02*
X256753199Y-111482109D01*
X256753199Y-111482109D02*
X256837043Y-111587516D01*
X256837043Y-111587516D02*
X256926278Y-111645611D01*
D11*
%TO.C,J1*%
X102194465Y-115897804D02*
X102076497Y-114121717D01*
X104283807Y-118685464D02*
X103485566Y-118738483D01*
X111573798Y-115274829D02*
X111455831Y-113498743D01*
%TO.C,SW1*%
X254580417Y-108489229D02*
X254669847Y-107704307D01*
X255380326Y-106768722D02*
X261043685Y-107413980D01*
X256299661Y-109741905D02*
X257988734Y-109934351D01*
X256967037Y-105651158D02*
X257189524Y-105465149D01*
X256821005Y-106932866D02*
X256967037Y-105651158D01*
X257189524Y-105465149D02*
X258083739Y-105567032D01*
X258258681Y-105798323D02*
X258083739Y-105567032D01*
X258258681Y-105798323D02*
X258112648Y-107080030D01*
X259280377Y-110081515D02*
X259479091Y-110104156D01*
X261525493Y-108485409D02*
X261436063Y-109270331D01*
%TD*%
M02*
