%TF.GenerationSoftware,KiCad,Pcbnew,7.0.10*%
%TF.CreationDate,2024-03-12T01:25:21-07:00*%
%TF.ProjectId,keyboard,6b657962-6f61-4726-942e-6b696361645f,rev?*%
%TF.SameCoordinates,Original*%
%TF.FileFunction,Profile,NP*%
%FSLAX46Y46*%
G04 Gerber Fmt 4.6, Leading zero omitted, Abs format (unit mm)*
G04 Created by KiCad (PCBNEW 7.0.10) date 2024-03-12 01:25:21*
%MOMM*%
%LPD*%
G01*
G04 APERTURE LIST*
%TA.AperFunction,Profile*%
%ADD10C,0.150000*%
%TD*%
%TA.AperFunction,Profile*%
%ADD11C,0.100000*%
%TD*%
G04 APERTURE END LIST*
D10*
X316285839Y-108886717D02*
G75*
G03*
X314864131Y-108893746I-661539J-9978083D01*
G01*
X148999319Y-110531698D02*
G75*
G03*
X149759453Y-110560632I760181J9971598D01*
G01*
X64941626Y-167751696D02*
X78040516Y-118865974D01*
X364337018Y-118865974D02*
X377435908Y-167751696D01*
X253312560Y-247463753D02*
G75*
G03*
X262009263Y-242400105I40J9999953D01*
G01*
X87038200Y-111476074D02*
G75*
G03*
X78040517Y-118865974I661570J-9978086D01*
G01*
X371272322Y-179708999D02*
X306727677Y-203791000D01*
X292618081Y-110560629D02*
G75*
G03*
X293378215Y-110531700I19J10000529D01*
G01*
X127513403Y-108893745D02*
X148999319Y-110531700D01*
X170259376Y-225989798D02*
X155719939Y-214215994D01*
X293378215Y-110531700D02*
X314864131Y-108893745D01*
X127513403Y-108893741D02*
G75*
G03*
X126091695Y-108886721I-760103J-9971059D01*
G01*
X64941652Y-167751703D02*
G75*
G03*
X71105212Y-179708999I9659248J-2588197D01*
G01*
X136704949Y-204255583D02*
G75*
G03*
X135649857Y-203791000I-4550749J-8904617D01*
G01*
X234766164Y-104000000D02*
X292618081Y-110560632D01*
X172662867Y-228824934D02*
G75*
G03*
X170259376Y-225989799I-8696667J-4936266D01*
G01*
X155719942Y-214215990D02*
G75*
G03*
X153977497Y-213082929I-6293142J-7771410D01*
G01*
X316285839Y-108886721D02*
X355339334Y-111476072D01*
X180368302Y-242400088D02*
G75*
G03*
X189064974Y-247463775I8696698J4936288D01*
G01*
D11*
X234766164Y-104000000D02*
X207750000Y-104000000D01*
D10*
X269714658Y-228824929D02*
X262009263Y-242400105D01*
X253312560Y-247463776D02*
X189064974Y-247463776D01*
X305672588Y-204255588D02*
X288400036Y-213082929D01*
X306727677Y-203790999D02*
G75*
G03*
X305672588Y-204255588I3495723J-9369201D01*
G01*
X364337079Y-118865958D02*
G75*
G03*
X355339334Y-111476072I-9659279J-2588242D01*
G01*
X87038200Y-111476072D02*
X126091695Y-108886721D01*
X272118160Y-225989800D02*
G75*
G03*
X269714658Y-228824929I6293240J-7771500D01*
G01*
X371272338Y-179709043D02*
G75*
G03*
X377435907Y-167751696I-3495738J9369143D01*
G01*
X286657595Y-214215994D02*
X272118158Y-225989798D01*
X180368271Y-242400105D02*
X172662876Y-228824929D01*
X135649857Y-203791000D02*
X71105212Y-179708999D01*
X288400033Y-213082924D02*
G75*
G03*
X286657594Y-214215995I4550767J-8904476D01*
G01*
X149759453Y-110560632D02*
X207750000Y-104000000D01*
X153977498Y-213082929D02*
X136704946Y-204255588D01*
M02*
