%TF.GenerationSoftware,KiCad,Pcbnew,7.0.10*%
%TF.CreationDate,2024-03-12T01:25:21-07:00*%
%TF.ProjectId,keyboard,6b657962-6f61-4726-942e-6b696361645f,rev?*%
%TF.SameCoordinates,Original*%
%TF.FileFunction,Soldermask,Top*%
%TF.FilePolarity,Negative*%
%FSLAX46Y46*%
G04 Gerber Fmt 4.6, Leading zero omitted, Abs format (unit mm)*
G04 Created by KiCad (PCBNEW 7.0.10) date 2024-03-12 01:25:21*
%MOMM*%
%LPD*%
G01*
G04 APERTURE LIST*
G04 Aperture macros list*
%AMRoundRect*
0 Rectangle with rounded corners*
0 $1 Rounding radius*
0 $2 $3 $4 $5 $6 $7 $8 $9 X,Y pos of 4 corners*
0 Add a 4 corners polygon primitive as box body*
4,1,4,$2,$3,$4,$5,$6,$7,$8,$9,$2,$3,0*
0 Add four circle primitives for the rounded corners*
1,1,$1+$1,$2,$3*
1,1,$1+$1,$4,$5*
1,1,$1+$1,$6,$7*
1,1,$1+$1,$8,$9*
0 Add four rect primitives between the rounded corners*
20,1,$1+$1,$2,$3,$4,$5,0*
20,1,$1+$1,$4,$5,$6,$7,0*
20,1,$1+$1,$6,$7,$8,$9,0*
20,1,$1+$1,$8,$9,$2,$3,0*%
%AMHorizOval*
0 Thick line with rounded ends*
0 $1 width*
0 $2 $3 position (X,Y) of the first rounded end (center of the circle)*
0 $4 $5 position (X,Y) of the second rounded end (center of the circle)*
0 Add line between two ends*
20,1,$1,$2,$3,$4,$5,0*
0 Add two circle primitives to create the rounded ends*
1,1,$1,$2,$3*
1,1,$1,$4,$5*%
%AMRotRect*
0 Rectangle, with rotation*
0 The origin of the aperture is its center*
0 $1 length*
0 $2 width*
0 $3 Rotation angle, in degrees counterclockwise*
0 Add horizontal line*
21,1,$1,$2,0,0,$3*%
G04 Aperture macros list end*
%ADD10R,1.700000X1.700000*%
%ADD11O,1.700000X1.700000*%
%ADD12RoundRect,0.225000X-0.314390X-0.303988X0.120276X-0.420456X0.314390X0.303988X-0.120276X0.420456X0*%
%ADD13RoundRect,0.225000X-0.410853X-0.149833X-0.061137X-0.433027X0.410853X0.149833X0.061137X0.433027X0*%
%ADD14RoundRect,0.225000X-0.120276X-0.420456X0.314390X-0.303988X0.120276X0.420456X-0.314390X0.303988X0*%
%ADD15RoundRect,0.225000X-0.349094X-0.263407X0.068139X-0.431980X0.349094X0.263407X-0.068139X0.431980X0*%
%ADD16RoundRect,0.225000X-0.083173X-0.429339X0.339688X-0.275430X0.083173X0.429339X-0.339688X0.275430X0*%
%ADD17C,1.900000*%
%ADD18C,1.500000*%
%ADD19C,5.000000*%
%ADD20C,3.000000*%
%ADD21RotRect,2.300000X2.600000X335.000000*%
%ADD22RoundRect,0.225000X-0.225000X-0.250000X0.225000X-0.250000X0.225000X0.250000X-0.225000X0.250000X0*%
%ADD23RoundRect,0.225000X-0.068139X-0.431980X0.349094X-0.263407X0.068139X0.431980X-0.349094X0.263407X0*%
%ADD24RoundRect,0.225000X-0.358074X-0.251064X0.053021X-0.434095X0.358074X0.251064X-0.053021X0.434095X0*%
%ADD25RoundRect,0.225000X0.250000X-0.225000X0.250000X0.225000X-0.250000X0.225000X-0.250000X-0.225000X0*%
%ADD26RoundRect,0.225000X-0.362401X-0.244776X0.045437X-0.434955X0.362401X0.244776X-0.045437X0.434955X0*%
%ADD27RotRect,2.300000X2.600000X345.000000*%
%ADD28RotRect,2.300000X2.600000X15.000000*%
%ADD29RoundRect,0.200000X0.200000X0.275000X-0.200000X0.275000X-0.200000X-0.275000X0.200000X-0.275000X0*%
%ADD30RotRect,2.300000X2.600000X22.000000*%
%ADD31RoundRect,0.218750X-0.256250X0.218750X-0.256250X-0.218750X0.256250X-0.218750X0.256250X0.218750X0*%
%ADD32RoundRect,0.225000X-0.045437X-0.434955X0.362401X-0.244776X0.045437X0.434955X-0.362401X0.244776X0*%
%ADD33RoundRect,0.225000X-0.339688X-0.275430X0.083173X-0.429339X0.339688X0.275430X-0.083173X0.429339X0*%
%ADD34RotRect,2.300000X2.600000X20.000000*%
%ADD35RoundRect,0.225000X0.225000X0.250000X-0.225000X0.250000X-0.225000X-0.250000X0.225000X-0.250000X0*%
%ADD36RotRect,2.300000X2.600000X340.000000*%
%ADD37RoundRect,0.200000X0.275000X-0.200000X0.275000X0.200000X-0.275000X0.200000X-0.275000X-0.200000X0*%
%ADD38RoundRect,0.218750X0.256250X-0.218750X0.256250X0.218750X-0.256250X0.218750X-0.256250X-0.218750X0*%
%ADD39RoundRect,0.150000X-0.150000X0.587500X-0.150000X-0.587500X0.150000X-0.587500X0.150000X0.587500X0*%
%ADD40RotRect,2.300000X2.600000X25.000000*%
%ADD41RotRect,2.300000X2.600000X59.000000*%
%ADD42RotRect,2.300000X2.600000X321.000000*%
%ADD43RotRect,2.300000X2.600000X24.000000*%
%ADD44RoundRect,0.218750X0.218750X0.256250X-0.218750X0.256250X-0.218750X-0.256250X0.218750X-0.256250X0*%
%ADD45RotRect,2.300000X2.600000X336.000000*%
%ADD46RoundRect,0.062500X-0.062500X0.375000X-0.062500X-0.375000X0.062500X-0.375000X0.062500X0.375000X0*%
%ADD47RoundRect,0.062500X-0.375000X0.062500X-0.375000X-0.062500X0.375000X-0.062500X0.375000X0.062500X0*%
%ADD48R,1.600000X1.600000*%
%ADD49RotRect,2.300000X2.600000X331.000000*%
%ADD50RotRect,2.300000X2.600000X301.000000*%
%ADD51RoundRect,0.225000X-0.014986X-0.437065X0.378593X-0.218900X0.014986X0.437065X-0.378593X0.218900X0*%
%ADD52RoundRect,0.225000X-0.053021X-0.434095X0.358074X-0.251064X0.053021X0.434095X-0.358074X0.251064X0*%
%ADD53RotRect,2.300000X2.600000X39.000000*%
%ADD54RoundRect,0.200000X-0.275000X0.200000X-0.275000X-0.200000X0.275000X-0.200000X0.275000X0.200000X0*%
%ADD55RoundRect,0.225000X-0.378593X-0.218900X0.014986X-0.437065X0.378593X0.218900X-0.014986X0.437065X0*%
%ADD56RoundRect,0.200000X-0.200000X-0.275000X0.200000X-0.275000X0.200000X0.275000X-0.200000X0.275000X0*%
%ADD57RotRect,2.300000X2.600000X338.000000*%
%ADD58C,0.250000*%
%ADD59R,4.850000X4.850000*%
%ADD60RoundRect,0.225000X0.061137X-0.433027X0.410853X-0.149833X-0.061137X0.433027X-0.410853X0.149833X0*%
%ADD61RoundRect,0.225000X-0.250000X0.225000X-0.250000X-0.225000X0.250000X-0.225000X0.250000X0.225000X0*%
%ADD62RoundRect,0.200000X-0.287650X0.181335X-0.261141X-0.217786X0.287650X-0.181335X0.261141X0.217786X0*%
%ADD63RoundRect,0.225000X0.205554X-0.386002X0.437321X-0.000277X-0.205554X0.386002X-0.437321X0.000277X0*%
%ADD64RotRect,2.300000X2.600000X29.000000*%
%ADD65R,0.800000X0.900000*%
%ADD66R,1.000000X1.800000*%
%ADD67RoundRect,0.225000X-0.437321X-0.000277X-0.205554X-0.386002X0.437321X0.000277X0.205554X0.386002X0*%
%ADD68C,0.650000*%
%ADD69HorizOval,1.000000X-0.019882X0.299340X0.019882X-0.299340X0*%
%ADD70HorizOval,1.000000X-0.036451X0.548791X0.036451X-0.548791X0*%
%ADD71C,0.900000*%
G04 APERTURE END LIST*
D10*
%TO.C,J2*%
X236800000Y-120000000D03*
D11*
X234260000Y-120000000D03*
X231720000Y-120000000D03*
X229180000Y-120000000D03*
%TD*%
D12*
%TO.C,D1*%
X76739481Y-171145136D03*
X79927037Y-171999238D03*
%TD*%
D13*
%TO.C,D20*%
X166968528Y-218162889D03*
X169533110Y-220239647D03*
%TD*%
D14*
%TO.C,D24*%
X356161824Y-133601584D03*
X359349380Y-132747482D03*
%TD*%
D15*
%TO.C,D10*%
X139026607Y-168940864D03*
X142086313Y-170177066D03*
%TD*%
D16*
%TO.C,D30*%
X311330040Y-131270243D03*
X314431026Y-130141577D03*
%TD*%
D17*
%TO.C,S17*%
X189479131Y-167461621D03*
D18*
X186849493Y-171917797D03*
D19*
X184494438Y-165137221D03*
D20*
X186987886Y-159790005D03*
X181526587Y-159670791D03*
D17*
X179509745Y-162812821D03*
D21*
X178717032Y-158360674D03*
X189797440Y-161100122D03*
%TD*%
D22*
%TO.C,C1*%
X208991164Y-122060230D03*
X210541164Y-122060230D03*
%TD*%
D10*
%TO.C,J6*%
X230500000Y-132775000D03*
D11*
X230500000Y-130235000D03*
%TD*%
D23*
%TO.C,D31*%
X303837672Y-168484594D03*
X306897378Y-167248392D03*
%TD*%
D24*
%TO.C,D13*%
X155213952Y-181652721D03*
X158228652Y-182994951D03*
%TD*%
D25*
%TO.C,C9*%
X210000000Y-130775000D03*
X210000000Y-129225000D03*
%TD*%
D26*
%TO.C,D18*%
X189460447Y-155315751D03*
X192451263Y-156710391D03*
%TD*%
D17*
%TO.C,S4*%
X103151365Y-169939969D03*
D18*
X101335484Y-174785077D03*
D19*
X97838773Y-168516464D03*
D20*
X99365805Y-162817502D03*
X93966774Y-163648443D03*
D17*
X92526181Y-167092959D03*
D27*
X90972404Y-162846104D03*
X102360175Y-163619841D03*
%TD*%
D25*
%TO.C,C11*%
X201750000Y-130775000D03*
X201750000Y-129225000D03*
%TD*%
D17*
%TO.C,S25*%
X349672189Y-167092959D03*
D18*
X350522144Y-172196887D03*
D19*
X344359597Y-168516464D03*
D20*
X342832565Y-162817502D03*
X338572337Y-166236634D03*
D17*
X339047005Y-169939969D03*
D28*
X335577967Y-167038973D03*
X345826935Y-162015163D03*
%TD*%
D29*
%TO.C,R7*%
X225400000Y-151750000D03*
X223750000Y-151750000D03*
%TD*%
D14*
%TO.C,D26*%
X341712573Y-157143497D03*
X344900129Y-156289395D03*
%TD*%
D17*
%TO.C,S31*%
X305598936Y-159331945D03*
D18*
X307064568Y-164294245D03*
D19*
X300499425Y-161392281D03*
D20*
X298289246Y-155921896D03*
X294477461Y-159834734D03*
D17*
X295399914Y-163452617D03*
D30*
X291603191Y-160996014D03*
X301163516Y-154760616D03*
%TD*%
D22*
%TO.C,C13*%
X224475000Y-138000000D03*
X226025000Y-138000000D03*
%TD*%
D31*
%TO.C,L3*%
X220000000Y-109858500D03*
X220000000Y-111433500D03*
%TD*%
D25*
%TO.C,C10*%
X212750000Y-130775000D03*
X212750000Y-129225000D03*
%TD*%
D31*
%TO.C,L2*%
X220000000Y-113414500D03*
X220000000Y-114989500D03*
%TD*%
D25*
%TO.C,C7*%
X204500000Y-130775000D03*
X204500000Y-129225000D03*
%TD*%
D22*
%TO.C,C20*%
X225475000Y-149250000D03*
X227025000Y-149250000D03*
%TD*%
D32*
%TO.C,D38*%
X261502470Y-172237768D03*
X264493286Y-170843128D03*
%TD*%
D23*
%TO.C,D33*%
X289602622Y-133251607D03*
X292662328Y-132015405D03*
%TD*%
D10*
%TO.C,J4*%
X215275000Y-143000000D03*
D11*
X212735000Y-143000000D03*
%TD*%
D25*
%TO.C,C14*%
X221500000Y-121275000D03*
X221500000Y-119725000D03*
%TD*%
D33*
%TO.C,D8*%
X124994577Y-149688209D03*
X128095563Y-150816875D03*
%TD*%
D24*
%TO.C,D14*%
X162941949Y-164295357D03*
X165956649Y-165637587D03*
%TD*%
D17*
%TO.C,S30*%
X313466451Y-122315690D03*
D18*
X314758009Y-127326117D03*
D19*
X308298142Y-124196801D03*
D20*
X306280223Y-118652615D03*
X302334204Y-122430039D03*
D17*
X303129833Y-126077912D03*
D34*
X299421157Y-123490301D03*
X309193270Y-117592352D03*
%TD*%
D17*
%TO.C,S32*%
X298481411Y-141715452D03*
D18*
X299947043Y-146677752D03*
D19*
X293381900Y-143775788D03*
D20*
X291171721Y-138305403D03*
X287359936Y-142218241D03*
D17*
X288282389Y-145836124D03*
D30*
X284485666Y-143379521D03*
X294045991Y-137144123D03*
%TD*%
D15*
%TO.C,D11*%
X146144132Y-151324371D03*
X149203838Y-152560573D03*
%TD*%
D35*
%TO.C,C15*%
X217968000Y-115000000D03*
X216418000Y-115000000D03*
%TD*%
D32*
%TO.C,D37*%
X269532217Y-189457615D03*
X272523033Y-188062975D03*
%TD*%
D17*
%TO.C,S7*%
X126071772Y-161786231D03*
D18*
X123840522Y-166454638D03*
D19*
X120903463Y-159905120D03*
D20*
X122921382Y-154360934D03*
X117470474Y-154718157D03*
D17*
X115735154Y-158024009D03*
D36*
X114557427Y-153657894D03*
X125834429Y-155421196D03*
%TD*%
D25*
%TO.C,C8*%
X207250000Y-130775000D03*
X207250000Y-129225000D03*
%TD*%
D37*
%TO.C,R3*%
X223250000Y-142575000D03*
X223250000Y-140925000D03*
%TD*%
D38*
%TO.C,D43*%
X224000000Y-157037500D03*
X224000000Y-155462500D03*
%TD*%
D39*
%TO.C,Q1*%
X247750000Y-123250000D03*
X245850000Y-123250000D03*
X246800000Y-125125000D03*
%TD*%
D17*
%TO.C,S22*%
X369039002Y-161903637D03*
D18*
X369888957Y-167007565D03*
D19*
X363726410Y-163327142D03*
D20*
X362199378Y-157628180D03*
X357939150Y-161047312D03*
D17*
X358413818Y-164750647D03*
D28*
X354944780Y-161849651D03*
X365193748Y-156825841D03*
%TD*%
D17*
%TO.C,S39*%
X254658878Y-145592973D03*
D18*
X256382208Y-150471767D03*
D19*
X249674185Y-147917373D03*
D20*
X247180737Y-142570157D03*
X243578958Y-146677125D03*
D17*
X244689492Y-150241773D03*
D40*
X240769404Y-147987242D03*
X249990291Y-141260040D03*
%TD*%
D17*
%TO.C,S8*%
X132570155Y-143932072D03*
D18*
X130338905Y-148600479D03*
D19*
X127401846Y-142050961D03*
D20*
X129419765Y-136506775D03*
X123968857Y-136863998D03*
D17*
X122233537Y-140169850D03*
D36*
X121055810Y-135803735D03*
X132332812Y-137567037D03*
%TD*%
D17*
%TO.C,S37*%
X270718372Y-180032669D03*
D18*
X272441702Y-184911463D03*
D19*
X265733679Y-182357069D03*
D20*
X263240231Y-177009853D03*
X259638452Y-181116821D03*
D17*
X260748986Y-184681469D03*
D40*
X256828898Y-182426938D03*
X266049785Y-175699736D03*
%TD*%
D17*
%TO.C,S18*%
X197508878Y-150241773D03*
D18*
X194879240Y-154697949D03*
D19*
X192524185Y-147917373D03*
D20*
X195017633Y-142570157D03*
X189556334Y-142450943D03*
D17*
X187539492Y-145592973D03*
D21*
X186746779Y-141140826D03*
X197827187Y-143880274D03*
%TD*%
D17*
%TO.C,S42*%
X257764100Y-226193218D03*
D18*
X261920993Y-229274248D03*
D19*
X254931391Y-230907638D03*
D20*
X249874104Y-227868913D03*
X249184682Y-233287834D03*
D17*
X252098682Y-235622058D03*
D41*
X247588064Y-235945052D03*
X251470722Y-225211695D03*
%TD*%
D17*
%TO.C,S3*%
X93619676Y-128045466D03*
D18*
X91803795Y-132890574D03*
D19*
X88307084Y-126621961D03*
D20*
X89834116Y-120922999D03*
X84435085Y-121753940D03*
D17*
X82994492Y-125198456D03*
D27*
X81440715Y-120951601D03*
X92828486Y-121725338D03*
%TD*%
D17*
%TO.C,S20*%
X176005394Y-215186721D03*
D18*
X172375821Y-218874363D03*
D19*
X171731091Y-211725459D03*
D20*
X175444081Y-207140298D03*
X170173847Y-205703417D03*
D17*
X167456788Y-208264197D03*
D42*
X167764694Y-203752524D03*
X177853234Y-209091191D03*
%TD*%
D17*
%TO.C,S35*%
X281346769Y-154607583D03*
D18*
X282984690Y-159515711D03*
D19*
X276322269Y-156844635D03*
D20*
X273922523Y-151454717D03*
X270249616Y-155498200D03*
D17*
X271297769Y-159081687D03*
D43*
X267417625Y-156759084D03*
X276754514Y-150193833D03*
%TD*%
D44*
%TO.C,L1*%
X226037500Y-135250000D03*
X224462500Y-135250000D03*
%TD*%
D17*
%TO.C,S15*%
X178628597Y-141724323D03*
D18*
X176077131Y-146225713D03*
D19*
X173604097Y-139487271D03*
D20*
X176003843Y-134097353D03*
X170541295Y-134073470D03*
D17*
X168579597Y-137250219D03*
D45*
X167709304Y-132812586D03*
X178835834Y-135358236D03*
%TD*%
D46*
%TO.C,U2*%
X221849185Y-147062500D03*
X221349185Y-147062500D03*
X220849185Y-147062500D03*
X220349185Y-147062500D03*
D47*
X219661685Y-147750000D03*
X219661685Y-148250000D03*
X219661685Y-148750000D03*
X219661685Y-149250000D03*
D46*
X220349185Y-149937500D03*
X220849185Y-149937500D03*
X221349185Y-149937500D03*
X221849185Y-149937500D03*
D47*
X222536685Y-149250000D03*
X222536685Y-148750000D03*
X222536685Y-148250000D03*
X222536685Y-147750000D03*
D48*
X221099185Y-148500000D03*
%TD*%
D33*
%TO.C,D7*%
X118496194Y-167542369D03*
X121597180Y-168671035D03*
%TD*%
D14*
%TO.C,D22*%
X365996948Y-170306766D03*
X369184504Y-169452664D03*
%TD*%
D17*
%TO.C,S19*%
X157258778Y-201916453D03*
D18*
X154324699Y-206178340D03*
D19*
X152448370Y-199250000D03*
D20*
X155308747Y-194089744D03*
X149869067Y-193589859D03*
D17*
X147637962Y-196583547D03*
D49*
X147157746Y-192086949D03*
X158020068Y-195592654D03*
%TD*%
D17*
%TO.C,S21*%
X190099688Y-235622058D03*
D18*
X185427758Y-237845921D03*
D19*
X187266979Y-230907638D03*
D20*
X192324266Y-227868913D03*
X187863308Y-224716161D03*
D17*
X184434270Y-226193218D03*
D50*
X186266690Y-222058942D03*
X193920884Y-230526132D03*
%TD*%
D12*
%TO.C,D4*%
X96106294Y-176334458D03*
X99293850Y-177188560D03*
%TD*%
D17*
%TO.C,S23*%
X364121440Y-143551046D03*
D18*
X364971395Y-148654974D03*
D19*
X358808848Y-144974551D03*
D20*
X357281816Y-139275589D03*
X353021588Y-142694721D03*
D17*
X353496256Y-146398056D03*
D28*
X350027218Y-143497060D03*
X360276186Y-138473250D03*
%TD*%
D51*
%TO.C,D40*%
X294161729Y-206324041D03*
X297047975Y-204724169D03*
%TD*%
D52*
%TO.C,D35*%
X279967337Y-163945115D03*
X282982037Y-162602885D03*
%TD*%
D16*
%TO.C,D28*%
X324326805Y-166978563D03*
X327427791Y-165849897D03*
%TD*%
D38*
%TO.C,D44*%
X221000000Y-157037500D03*
X221000000Y-155462500D03*
%TD*%
D12*
%TO.C,D2*%
X81657043Y-152792545D03*
X84844599Y-153646647D03*
%TD*%
D17*
%TO.C,S41*%
X274741582Y-208264197D03*
D18*
X277594009Y-212581159D03*
D19*
X270467279Y-211725459D03*
D20*
X266754289Y-207140298D03*
X264253064Y-211996621D03*
D17*
X266192976Y-215186721D03*
D53*
X261843911Y-213947514D03*
X269163441Y-205189405D03*
%TD*%
D23*
%TO.C,D32*%
X296720147Y-150868101D03*
X299779853Y-149631899D03*
%TD*%
D54*
%TO.C,R11*%
X250750000Y-127675000D03*
X250750000Y-129325000D03*
%TD*%
D35*
%TO.C,C17*%
X210541164Y-120560230D03*
X208991164Y-120560230D03*
%TD*%
D17*
%TO.C,S16*%
X181449384Y-184681469D03*
D18*
X178819746Y-189137645D03*
D19*
X176464691Y-182357069D03*
D20*
X178958139Y-177009853D03*
X173496840Y-176890639D03*
D17*
X171479998Y-180032669D03*
D21*
X170687285Y-175580522D03*
X181767693Y-178319970D03*
%TD*%
D17*
%TO.C,S14*%
X170900601Y-159081687D03*
D18*
X168349135Y-163583077D03*
D19*
X165876101Y-156844635D03*
D20*
X168275847Y-151454717D03*
X162813299Y-151430834D03*
D17*
X160851601Y-154607583D03*
D45*
X159981308Y-150169950D03*
X171107838Y-152715600D03*
%TD*%
D33*
%TO.C,D9*%
X131492959Y-131834049D03*
X134593945Y-132962715D03*
%TD*%
D55*
%TO.C,D19*%
X148876010Y-206416641D03*
X151762256Y-208016513D03*
%TD*%
D56*
%TO.C,R10*%
X244425000Y-127750000D03*
X246075000Y-127750000D03*
%TD*%
D17*
%TO.C,S33*%
X291363886Y-124098958D03*
D18*
X292829518Y-129061258D03*
D19*
X286264375Y-126159294D03*
D20*
X284054196Y-120688909D03*
X280242411Y-124601747D03*
D17*
X281164864Y-128219630D03*
D30*
X277368141Y-125763027D03*
X286928466Y-119527629D03*
%TD*%
D29*
%TO.C,R6*%
X227075000Y-143750000D03*
X225425000Y-143750000D03*
%TD*%
D17*
%TO.C,S11*%
X153915981Y-145836124D03*
D18*
X151523165Y-150423818D03*
D19*
X148816470Y-143775788D03*
D20*
X151026649Y-138305403D03*
X145566595Y-138472175D03*
D17*
X143716959Y-141715452D03*
D57*
X142692325Y-137310894D03*
X153900919Y-139466684D03*
%TD*%
D17*
%TO.C,S5*%
X108068927Y-151587378D03*
D18*
X106253046Y-156432486D03*
D19*
X102756335Y-150163873D03*
D20*
X104283367Y-144464911D03*
X98884336Y-145295852D03*
D17*
X97443743Y-148740368D03*
D27*
X95889966Y-144493513D03*
X107277737Y-145267250D03*
%TD*%
D58*
%TO.C,U1*%
X217849185Y-128658408D03*
X217849185Y-128158408D03*
X217849185Y-127658408D03*
X217849185Y-127158408D03*
X217849185Y-126658408D03*
X217849185Y-126158408D03*
X217849185Y-125658408D03*
X217849185Y-125158408D03*
X217849185Y-124658408D03*
X223349185Y-124158408D03*
X223599185Y-130158408D03*
X223849185Y-129408408D03*
X223849185Y-128408408D03*
X223849185Y-127908408D03*
X223849185Y-127408408D03*
X223849185Y-126908408D03*
X223849185Y-126408408D03*
X223849185Y-125908408D03*
X223849185Y-125408408D03*
X223849185Y-124158408D03*
X224349185Y-130158408D03*
X224349185Y-129658408D03*
X224349185Y-129158408D03*
X224349185Y-128658408D03*
X224349185Y-128158408D03*
X224349185Y-127658408D03*
X224349185Y-127158408D03*
X224349185Y-126658408D03*
X224349185Y-126158408D03*
X224349185Y-125658408D03*
X224349185Y-125158408D03*
X224349185Y-124658408D03*
X218349185Y-130658408D03*
X218349185Y-129908408D03*
X218349185Y-129408408D03*
X218349185Y-128908408D03*
X218349185Y-128408408D03*
X218349185Y-127908408D03*
X218349185Y-127408408D03*
X218349185Y-126908408D03*
X218349185Y-126408408D03*
X218349185Y-125908408D03*
X218349185Y-124158408D03*
X218849185Y-130658408D03*
X219099185Y-130158408D03*
X219099185Y-124658408D03*
X219349185Y-124158408D03*
D59*
X221099185Y-127408408D03*
D58*
X219599185Y-130158408D03*
X219599185Y-124658408D03*
X219849185Y-130658408D03*
X220099185Y-130158408D03*
X220099185Y-124658408D03*
X220349185Y-130658408D03*
X220349185Y-124158408D03*
X220599185Y-130158408D03*
X220849185Y-130658408D03*
X220849185Y-124158408D03*
X221099185Y-130158408D03*
X221349185Y-130658408D03*
X221349185Y-124158408D03*
X221599185Y-130158408D03*
X221599185Y-124658408D03*
X221849185Y-130658408D03*
X221849185Y-124158408D03*
X222099185Y-130158408D03*
X222099185Y-124658408D03*
X222349185Y-130658408D03*
X222349185Y-124158408D03*
X222599185Y-124658408D03*
X222849185Y-130658408D03*
X222849185Y-124158408D03*
X223099185Y-130158408D03*
X223099185Y-124658408D03*
%TD*%
D17*
%TO.C,S28*%
X326463216Y-158024009D03*
D18*
X327754774Y-163034436D03*
D19*
X321294907Y-159905120D03*
D20*
X319276988Y-154360934D03*
X315330969Y-158138358D03*
D17*
X316126598Y-161786231D03*
D34*
X312417922Y-159198620D03*
X322190035Y-153300671D03*
%TD*%
D10*
%TO.C,J3*%
X236750000Y-115500000D03*
D11*
X234210000Y-115500000D03*
X231670000Y-115500000D03*
X229130000Y-115500000D03*
%TD*%
D26*
%TO.C,D17*%
X181430700Y-172535600D03*
X184421516Y-173930240D03*
%TD*%
D24*
%TO.C,D15*%
X170669945Y-146937993D03*
X173684645Y-148280223D03*
%TD*%
D32*
%TO.C,D39*%
X253472723Y-155017919D03*
X256463539Y-153623279D03*
%TD*%
D22*
%TO.C,C2*%
X208991164Y-123560230D03*
X210541164Y-123560230D03*
%TD*%
D29*
%TO.C,R8*%
X227075000Y-146500000D03*
X225425000Y-146500000D03*
%TD*%
D17*
%TO.C,S2*%
X88702114Y-146398056D03*
D18*
X86886233Y-151243164D03*
D19*
X83389522Y-144974551D03*
D20*
X84916554Y-139275589D03*
X79517523Y-140106530D03*
D17*
X78076930Y-143551046D03*
D27*
X76523153Y-139304191D03*
X87910924Y-140077928D03*
%TD*%
D17*
%TO.C,S26*%
X344754627Y-148740368D03*
D18*
X345604582Y-153844296D03*
D19*
X339442035Y-150163873D03*
D20*
X337915003Y-144464911D03*
X333654775Y-147884043D03*
D17*
X334129443Y-151587378D03*
D28*
X330660405Y-148686382D03*
X340909373Y-143662572D03*
%TD*%
D14*
%TO.C,D25*%
X346630135Y-175496088D03*
X349817691Y-174641986D03*
%TD*%
D17*
%TO.C,S10*%
X146798456Y-163452617D03*
D18*
X144405640Y-168040311D03*
D19*
X141698945Y-161392281D03*
D20*
X143909124Y-155921896D03*
X138449070Y-156088668D03*
D17*
X136599434Y-159331945D03*
D57*
X135574800Y-154927387D03*
X146783394Y-157083177D03*
%TD*%
D17*
%TO.C,S29*%
X319964834Y-140169850D03*
D18*
X321256392Y-145180277D03*
D19*
X314796525Y-142050961D03*
D20*
X312778606Y-136506775D03*
X308832587Y-140284199D03*
D17*
X309628216Y-143932072D03*
D34*
X305919540Y-141344461D03*
X315691653Y-135446512D03*
%TD*%
D60*
%TO.C,D41*%
X275717709Y-217788379D03*
X278282291Y-215711621D03*
%TD*%
D17*
%TO.C,S6*%
X112986489Y-133234787D03*
D18*
X111170608Y-138079895D03*
D19*
X107673897Y-131811282D03*
D20*
X109200929Y-126112320D03*
X103801898Y-126943261D03*
D17*
X102361305Y-130387777D03*
D27*
X100807528Y-126140922D03*
X112195299Y-126914659D03*
%TD*%
D17*
%TO.C,S34*%
X289074766Y-171964947D03*
D18*
X290712687Y-176873075D03*
D19*
X284050266Y-174201999D03*
D20*
X281650520Y-168812081D03*
X277977613Y-172855564D03*
D17*
X279025766Y-176439051D03*
D43*
X275145622Y-174116448D03*
X284482511Y-167551197D03*
%TD*%
D17*
%TO.C,S27*%
X339837066Y-130387777D03*
D18*
X340687021Y-135491705D03*
D19*
X334524474Y-131811282D03*
D20*
X332997442Y-126112320D03*
X328737214Y-129531452D03*
D17*
X329211882Y-133234787D03*
D28*
X325742844Y-130333791D03*
X335991812Y-125309981D03*
%TD*%
D61*
%TO.C,C3*%
X214516164Y-138225000D03*
X214516164Y-139775000D03*
%TD*%
D22*
%TO.C,C6*%
X222475000Y-164250000D03*
X224025000Y-164250000D03*
%TD*%
D17*
%TO.C,S24*%
X359203878Y-125198456D03*
D18*
X360053833Y-130302384D03*
D19*
X353891286Y-126621961D03*
D20*
X352364254Y-120922999D03*
X348104026Y-124342131D03*
D17*
X348578694Y-128045466D03*
D28*
X345109656Y-125144470D03*
X355358624Y-120120660D03*
%TD*%
D62*
%TO.C,R1*%
X108971264Y-120604027D03*
X109080616Y-122250399D03*
%TD*%
D14*
%TO.C,D27*%
X336795011Y-138790906D03*
X339982567Y-137936804D03*
%TD*%
D26*
%TO.C,D16*%
X173400953Y-189755447D03*
X176391769Y-191150087D03*
%TD*%
D15*
%TO.C,D12*%
X153261658Y-133707877D03*
X156321364Y-134944079D03*
%TD*%
D16*
%TO.C,D29*%
X317828422Y-149124403D03*
X320929408Y-147995737D03*
%TD*%
D17*
%TO.C,S9*%
X139068537Y-126077912D03*
D18*
X136837287Y-130746319D03*
D19*
X133900228Y-124196801D03*
D20*
X135918147Y-118652615D03*
X130467239Y-119009838D03*
D17*
X128731919Y-122315690D03*
D36*
X127554192Y-117949575D03*
X138831194Y-119712877D03*
%TD*%
D17*
%TO.C,S36*%
X273618773Y-137250219D03*
D18*
X275256694Y-142158347D03*
D19*
X268594273Y-139487271D03*
D20*
X266194527Y-134097353D03*
X262521620Y-138140836D03*
D17*
X263569773Y-141724323D03*
D43*
X259689629Y-139401720D03*
X269026518Y-132836469D03*
%TD*%
D22*
%TO.C,C12*%
X226075000Y-132740000D03*
X227625000Y-132740000D03*
%TD*%
D63*
%TO.C,D42*%
X261900187Y-234664326D03*
X263599813Y-231835674D03*
%TD*%
D35*
%TO.C,C16*%
X218025000Y-111500000D03*
X216475000Y-111500000D03*
%TD*%
D62*
%TO.C,R2*%
X105977860Y-120802847D03*
X106087212Y-122449219D03*
%TD*%
D37*
%TO.C,R5*%
X221000000Y-161650000D03*
X221000000Y-160000000D03*
%TD*%
D25*
%TO.C,C18*%
X220500000Y-142525000D03*
X220500000Y-140975000D03*
%TD*%
D17*
%TO.C,S40*%
X294560408Y-196583547D03*
D18*
X296619868Y-201330243D03*
D19*
X289750000Y-199250000D03*
D20*
X286889623Y-194089744D03*
X283583106Y-198437955D03*
D17*
X284939592Y-201916453D03*
D64*
X280871785Y-199940865D03*
X289600944Y-192586834D03*
%TD*%
D52*
%TO.C,D36*%
X272239340Y-146587751D03*
X275254040Y-145245521D03*
%TD*%
D12*
%TO.C,D6*%
X105941418Y-139629276D03*
X109128974Y-140483378D03*
%TD*%
D52*
%TO.C,D34*%
X287695333Y-181302479D03*
X290710033Y-179960249D03*
%TD*%
D65*
%TO.C,Y1*%
X213766164Y-123460230D03*
X213766164Y-122060230D03*
X212666164Y-122060230D03*
X212666164Y-123460230D03*
%TD*%
D37*
%TO.C,R4*%
X224000000Y-161575000D03*
X224000000Y-159925000D03*
%TD*%
D17*
%TO.C,S1*%
X83784552Y-164750647D03*
D18*
X81968671Y-169595755D03*
D19*
X78471960Y-163327142D03*
D20*
X79998992Y-157628180D03*
X74599961Y-158459121D03*
D17*
X73159368Y-161903637D03*
D27*
X71605591Y-157656782D03*
X82993362Y-158430519D03*
%TD*%
D54*
%TO.C,R9*%
X247750000Y-127675000D03*
X247750000Y-129325000D03*
%TD*%
D12*
%TO.C,D5*%
X101023856Y-157981867D03*
X104211412Y-158835969D03*
%TD*%
D17*
%TO.C,S38*%
X262688625Y-162812821D03*
D18*
X264411955Y-167691615D03*
D19*
X257703932Y-165137221D03*
D20*
X255210484Y-159790005D03*
X251608705Y-163896973D03*
D17*
X252719239Y-167461621D03*
D40*
X248799151Y-165207090D03*
X258020038Y-158479888D03*
%TD*%
D17*
%TO.C,S13*%
X163172605Y-176439051D03*
D18*
X160621139Y-180940441D03*
D19*
X158148105Y-174201999D03*
D20*
X160547851Y-168812081D03*
X155085303Y-168788198D03*
D17*
X153123605Y-171964947D03*
D45*
X152253312Y-167527314D03*
X163379842Y-170072964D03*
%TD*%
D17*
%TO.C,S12*%
X161033507Y-128219630D03*
D18*
X158640691Y-132807324D03*
D19*
X155933996Y-126159294D03*
D20*
X158144175Y-120688909D03*
X152684121Y-120855681D03*
D17*
X150834485Y-124098958D03*
D57*
X149809851Y-119694400D03*
X161018445Y-121850190D03*
%TD*%
D66*
%TO.C,X2*%
X217050000Y-134250000D03*
X214550000Y-134250000D03*
%TD*%
D14*
%TO.C,D23*%
X361079386Y-151954175D03*
X364266942Y-151100073D03*
%TD*%
D25*
%TO.C,C5*%
X215490000Y-130777500D03*
X215490000Y-129227500D03*
%TD*%
D12*
%TO.C,D3*%
X86574605Y-134439954D03*
X89762161Y-135294056D03*
%TD*%
D61*
%TO.C,C19*%
X225750000Y-155475000D03*
X225750000Y-157025000D03*
%TD*%
%TO.C,C4*%
X217016164Y-138225000D03*
X217016164Y-139775000D03*
%TD*%
D67*
%TO.C,D21*%
X180589903Y-235327952D03*
X182289529Y-238156604D03*
%TD*%
D68*
%TO.C,J1*%
X104055161Y-116601034D03*
X109822454Y-116217971D03*
D69*
X102384417Y-113023897D03*
D70*
X102661442Y-117194707D03*
D69*
X111005422Y-112451290D03*
D70*
X111282447Y-116622100D03*
%TD*%
D71*
%TO.C,SW1*%
X256563163Y-108312546D03*
X259543879Y-108652156D03*
%TD*%
M02*
