%TF.GenerationSoftware,KiCad,Pcbnew,7.0.10*%
%TF.CreationDate,2024-03-12T01:25:26-07:00*%
%TF.ProjectId,keyboard,6b657962-6f61-4726-942e-6b696361645f,rev?*%
%TF.SameCoordinates,Original*%
%TF.FileFunction,Drillmap*%
%TF.FilePolarity,Positive*%
%FSLAX45Y45*%
G04 Gerber Fmt 4.5, Leading zero omitted, Abs format (unit mm)*
G04 Created by KiCad (PCBNEW 7.0.10) date 2024-03-12 01:25:26*
%MOMM*%
%LPD*%
G01*
G04 APERTURE LIST*
%ADD10C,0.150000*%
%ADD11C,0.100000*%
%ADD12C,0.200000*%
G04 APERTURE END LIST*
D10*
X31628584Y-10888672D02*
G75*
G03*
X31486413Y-10889375I-66154J-997808D01*
G01*
X14899932Y-11053170D02*
G75*
G03*
X14975945Y-11056063I76018J997160D01*
G01*
X6494163Y-16775170D02*
X7804052Y-11886597D01*
X36433702Y-11886597D02*
X37743591Y-16775170D01*
X25331256Y-24746375D02*
G75*
G03*
X26200926Y-24240010I4J999995D01*
G01*
X8703820Y-11147607D02*
G75*
G03*
X7804052Y-11886597I66157J-997809D01*
G01*
X37127232Y-17970900D02*
X30672768Y-20379100D01*
X29261808Y-11056063D02*
G75*
G03*
X29337821Y-11053170I2J1000053D01*
G01*
X12751340Y-10889375D02*
X14899932Y-11053170D01*
X17025938Y-22598980D02*
X15571994Y-21421599D01*
X29337821Y-11053170D02*
X31486413Y-10889375D01*
X12751340Y-10889374D02*
G75*
G03*
X12609169Y-10888672I-76010J-997106D01*
G01*
X6494165Y-16775170D02*
G75*
G03*
X7110521Y-17970900I965925J-258820D01*
G01*
X13670495Y-20425558D02*
G75*
G03*
X13564986Y-20379100I-455075J-890462D01*
G01*
X23476616Y-10400000D02*
X29261808Y-11056063D01*
X17266287Y-22882493D02*
G75*
G03*
X17025938Y-22598980I-869667J-493627D01*
G01*
X15571994Y-21421599D02*
G75*
G03*
X15397750Y-21308293I-629314J-777141D01*
G01*
X31628584Y-10888672D02*
X35533933Y-11147607D01*
X18036830Y-24240009D02*
G75*
G03*
X18906497Y-24746377I869670J493629D01*
G01*
D11*
X23476616Y-10400000D02*
X20775000Y-10400000D01*
D10*
X26971466Y-22882493D02*
X26200926Y-24240010D01*
X25331256Y-24746378D02*
X18906497Y-24746378D01*
X30567259Y-20425559D02*
X28840004Y-21308293D01*
X30672768Y-20379100D02*
G75*
G03*
X30567259Y-20425559I349572J-936920D01*
G01*
X36433708Y-11886596D02*
G75*
G03*
X35533933Y-11147607I-965928J-258824D01*
G01*
X8703820Y-11147607D02*
X12609169Y-10888672D01*
X27211816Y-22598980D02*
G75*
G03*
X26971466Y-22882493I629324J-777150D01*
G01*
X37127234Y-17970904D02*
G75*
G03*
X37743591Y-16775170I-349574J936914D01*
G01*
X28665759Y-21421599D02*
X27211816Y-22598980D01*
X18036827Y-24240010D02*
X17266288Y-22882493D01*
X13564986Y-20379100D02*
X7110521Y-17970900D01*
X28840003Y-21308292D02*
G75*
G03*
X28665759Y-21421600I455077J-890448D01*
G01*
X14975945Y-11056063D02*
X20775000Y-10400000D01*
X15397750Y-21308293D02*
X13670495Y-20425559D01*
D12*
D11*
X7660000Y-17110000D02*
X7690000Y-17140000D01*
X7690000Y-17110000D02*
X7660000Y-17140000D01*
X8135000Y-15260000D02*
X8165000Y-15290000D01*
X8165000Y-15260000D02*
X8135000Y-15290000D01*
X8635000Y-13435000D02*
X8665000Y-13465000D01*
X8665000Y-13435000D02*
X8635000Y-13465000D01*
X9585000Y-17610000D02*
X9615000Y-17640000D01*
X9615000Y-17610000D02*
X9585000Y-17640000D01*
X10085000Y-15785000D02*
X10115000Y-15815000D01*
X10115000Y-15785000D02*
X10085000Y-15815000D01*
X10583283Y-12072768D02*
X10613283Y-12102768D01*
X10613283Y-12072768D02*
X10583283Y-12102768D01*
X10585000Y-13935000D02*
X10615000Y-13965000D01*
X10615000Y-13935000D02*
X10585000Y-13965000D01*
X10809832Y-11862291D02*
X10839832Y-11892291D01*
X10839832Y-11862291D02*
X10809832Y-11892291D01*
X10815134Y-11942115D02*
X10845134Y-11972115D01*
X10845134Y-11942115D02*
X10815134Y-11972115D01*
X10882623Y-12052886D02*
X10912623Y-12082886D01*
X10912623Y-12052886D02*
X10882623Y-12082886D01*
X11336616Y-11591023D02*
X11366616Y-11621023D01*
X11366616Y-11591023D02*
X11336616Y-11621023D01*
X11385000Y-16985000D02*
X11415000Y-17015000D01*
X11415000Y-16985000D02*
X11385000Y-17015000D01*
X11461616Y-11591023D02*
X11491616Y-11621023D01*
X11491616Y-11591023D02*
X11461616Y-11621023D01*
X11835000Y-16735000D02*
X11865000Y-16765000D01*
X11865000Y-16735000D02*
X11835000Y-16765000D01*
X12485000Y-14960000D02*
X12515000Y-14990000D01*
X12515000Y-14960000D02*
X12485000Y-14990000D01*
X13135000Y-13160000D02*
X13165000Y-13190000D01*
X13165000Y-13160000D02*
X13135000Y-13190000D01*
X13885000Y-16860000D02*
X13915000Y-16890000D01*
X13915000Y-16860000D02*
X13885000Y-16890000D01*
X14585000Y-15110000D02*
X14615000Y-15140000D01*
X14615000Y-15110000D02*
X14585000Y-15140000D01*
X14700775Y-19193695D02*
X14730775Y-19223695D01*
X14730775Y-19193695D02*
X14700775Y-19223695D01*
X15310000Y-13360000D02*
X15340000Y-13390000D01*
X15340000Y-13360000D02*
X15310000Y-13390000D01*
X15510000Y-18160000D02*
X15540000Y-18190000D01*
X15540000Y-18160000D02*
X15510000Y-18190000D01*
X16285000Y-16410000D02*
X16315000Y-16440000D01*
X16315000Y-16410000D02*
X16285000Y-16440000D01*
X16761469Y-20335000D02*
X16791469Y-20365000D01*
X16791469Y-20335000D02*
X16761469Y-20365000D01*
X17060000Y-14685000D02*
X17090000Y-14715000D01*
X17090000Y-14685000D02*
X17060000Y-14715000D01*
X17335000Y-18960000D02*
X17365000Y-18990000D01*
X17365000Y-18960000D02*
X17335000Y-18990000D01*
X17983753Y-11252034D02*
X18013753Y-11282034D01*
X18013753Y-11252034D02*
X17983753Y-11282034D01*
X18036616Y-11316023D02*
X18066616Y-11346023D01*
X18066616Y-11316023D02*
X18036616Y-11346023D01*
X18135000Y-17235000D02*
X18165000Y-17265000D01*
X18165000Y-17235000D02*
X18135000Y-17265000D01*
X18185000Y-13710000D02*
X18215000Y-13740000D01*
X18215000Y-13710000D02*
X18185000Y-13740000D01*
X18285000Y-15585000D02*
X18315000Y-15615000D01*
X18315000Y-15585000D02*
X18285000Y-15615000D01*
X18336616Y-23441023D02*
X18366616Y-23471023D01*
X18366616Y-23441023D02*
X18336616Y-23471023D01*
X18361616Y-18791023D02*
X18391616Y-18821023D01*
X18391616Y-18791023D02*
X18361616Y-18821023D01*
X18535000Y-14910000D02*
X18565000Y-14940000D01*
X18565000Y-14910000D02*
X18535000Y-14940000D01*
X18586616Y-24216023D02*
X18616616Y-24246023D01*
X18616616Y-24216023D02*
X18586616Y-24246023D01*
X18935000Y-15510000D02*
X18965000Y-15540000D01*
X18965000Y-15510000D02*
X18935000Y-15540000D01*
X19011616Y-22416023D02*
X19041616Y-22446023D01*
X19041616Y-22416023D02*
X19011616Y-22446023D01*
X19061616Y-22966023D02*
X19091616Y-22996023D01*
X19091616Y-22966023D02*
X19061616Y-22996023D01*
X19685000Y-13460000D02*
X19715000Y-13490000D01*
X19715000Y-13460000D02*
X19685000Y-13490000D01*
X19685000Y-13560000D02*
X19715000Y-13590000D01*
X19715000Y-13560000D02*
X19685000Y-13590000D01*
X19685000Y-13660000D02*
X19715000Y-13690000D01*
X19715000Y-13660000D02*
X19685000Y-13690000D01*
X19685000Y-13760000D02*
X19715000Y-13790000D01*
X19715000Y-13760000D02*
X19685000Y-13790000D01*
X19685000Y-13860000D02*
X19715000Y-13890000D01*
X19715000Y-13860000D02*
X19685000Y-13890000D01*
X19985000Y-14910000D02*
X20015000Y-14940000D01*
X20015000Y-14910000D02*
X19985000Y-14940000D01*
X20035000Y-14835000D02*
X20065000Y-14865000D01*
X20065000Y-14835000D02*
X20035000Y-14865000D01*
X20085000Y-14760000D02*
X20115000Y-14790000D01*
X20115000Y-14760000D02*
X20085000Y-14790000D01*
X20135000Y-14685000D02*
X20165000Y-14715000D01*
X20165000Y-14685000D02*
X20135000Y-14715000D01*
X20185000Y-14610000D02*
X20215000Y-14640000D01*
X20215000Y-14610000D02*
X20185000Y-14640000D01*
X20310000Y-11491023D02*
X20340000Y-11521023D01*
X20340000Y-11491023D02*
X20310000Y-11521023D01*
X20411616Y-11491023D02*
X20441616Y-11521023D01*
X20441616Y-11491023D02*
X20411616Y-11521023D01*
X20560000Y-12560000D02*
X20590000Y-12590000D01*
X20590000Y-12560000D02*
X20560000Y-12590000D01*
X20635000Y-12610000D02*
X20665000Y-12640000D01*
X20665000Y-12610000D02*
X20635000Y-12640000D01*
X20710000Y-12660000D02*
X20740000Y-12690000D01*
X20740000Y-12660000D02*
X20710000Y-12690000D01*
X20785000Y-12710000D02*
X20815000Y-12740000D01*
X20815000Y-12710000D02*
X20785000Y-12740000D01*
X20786616Y-13541023D02*
X20816616Y-13571023D01*
X20816616Y-13541023D02*
X20786616Y-13571023D01*
X20860000Y-12760000D02*
X20890000Y-12790000D01*
X20890000Y-12760000D02*
X20860000Y-12790000D01*
X20935000Y-12810000D02*
X20965000Y-12840000D01*
X20965000Y-12810000D02*
X20935000Y-12840000D01*
X21011616Y-11491023D02*
X21041616Y-11521023D01*
X21041616Y-11491023D02*
X21011616Y-11521023D01*
X21235000Y-12585000D02*
X21265000Y-12615000D01*
X21265000Y-12585000D02*
X21235000Y-12615000D01*
X21310000Y-12635000D02*
X21340000Y-12665000D01*
X21340000Y-12635000D02*
X21310000Y-12665000D01*
X21361616Y-12191023D02*
X21391616Y-12221023D01*
X21391616Y-12191023D02*
X21361616Y-12221023D01*
X21385000Y-12685000D02*
X21415000Y-12715000D01*
X21415000Y-12685000D02*
X21385000Y-12715000D01*
X21460000Y-12735000D02*
X21490000Y-12765000D01*
X21490000Y-12735000D02*
X21460000Y-12765000D01*
X21535000Y-12785000D02*
X21565000Y-12815000D01*
X21565000Y-12785000D02*
X21535000Y-12815000D01*
X21561616Y-13541023D02*
X21591616Y-13571023D01*
X21591616Y-13541023D02*
X21561616Y-13571023D01*
X21660000Y-12835000D02*
X21690000Y-12865000D01*
X21690000Y-12835000D02*
X21660000Y-12865000D01*
X21886616Y-14091023D02*
X21916616Y-14121023D01*
X21916616Y-14091023D02*
X21886616Y-14121023D01*
X22011616Y-13716023D02*
X22041616Y-13746023D01*
X22041616Y-13716023D02*
X22011616Y-13746023D01*
X22046390Y-11752030D02*
X22076390Y-11782030D01*
X22076390Y-11752030D02*
X22046390Y-11782030D01*
X22110000Y-11635000D02*
X22140000Y-11665000D01*
X22140000Y-11635000D02*
X22110000Y-11665000D01*
X22160000Y-11560000D02*
X22190000Y-11590000D01*
X22190000Y-11560000D02*
X22160000Y-11590000D01*
X22260000Y-11560000D02*
X22290000Y-11590000D01*
X22290000Y-11560000D02*
X22260000Y-11590000D01*
X22285000Y-12235000D02*
X22315000Y-12265000D01*
X22315000Y-12235000D02*
X22285000Y-12265000D01*
X22376000Y-12726000D02*
X22406000Y-12756000D01*
X22406000Y-12726000D02*
X22376000Y-12756000D01*
X22586616Y-14741023D02*
X22616616Y-14771023D01*
X22616616Y-14741023D02*
X22586616Y-14771023D01*
X22586616Y-13116023D02*
X22616616Y-13146023D01*
X22616616Y-13116023D02*
X22586616Y-13146023D01*
X22610000Y-12310000D02*
X22640000Y-12340000D01*
X22640000Y-12310000D02*
X22610000Y-12340000D01*
X22636616Y-12691023D02*
X22666616Y-12721023D01*
X22666616Y-12691023D02*
X22636616Y-12721023D01*
X22680553Y-12359662D02*
X22710553Y-12389662D01*
X22710553Y-12359662D02*
X22680553Y-12389662D01*
X22686616Y-12191023D02*
X22716616Y-12221023D01*
X22716616Y-12191023D02*
X22686616Y-12221023D01*
X22885000Y-14360000D02*
X22915000Y-14390000D01*
X22915000Y-14360000D02*
X22885000Y-14390000D01*
X22942000Y-14428000D02*
X22972000Y-14458000D01*
X22972000Y-14428000D02*
X22942000Y-14458000D01*
X23910000Y-11835000D02*
X23940000Y-11865000D01*
X23940000Y-11835000D02*
X23910000Y-11865000D01*
X24635000Y-12910000D02*
X24665000Y-12940000D01*
X24665000Y-12910000D02*
X24635000Y-12940000D01*
X24649068Y-22295932D02*
X24679068Y-22325932D01*
X24679068Y-22295932D02*
X24649068Y-22325932D01*
X25011616Y-12416023D02*
X25041616Y-12446023D01*
X25041616Y-12416023D02*
X25011616Y-12446023D01*
X25111616Y-11291023D02*
X25141616Y-11321023D01*
X25141616Y-11291023D02*
X25111616Y-11321023D01*
X25186616Y-11216023D02*
X25216616Y-11246023D01*
X25216616Y-11216023D02*
X25186616Y-11246023D01*
X25261616Y-11141024D02*
X25291616Y-11171024D01*
X25291616Y-11141024D02*
X25261616Y-11171024D01*
X25335000Y-15485000D02*
X25365000Y-15515000D01*
X25365000Y-15485000D02*
X25335000Y-15515000D01*
X25586616Y-24191023D02*
X25616616Y-24221023D01*
X25616616Y-24191023D02*
X25586616Y-24221023D01*
X25686616Y-11041023D02*
X25716616Y-11071023D01*
X25716616Y-11041023D02*
X25686616Y-11071023D01*
X26036616Y-18935000D02*
X26066616Y-18965000D01*
X26066616Y-18935000D02*
X26036616Y-18965000D01*
X26135000Y-17210000D02*
X26165000Y-17240000D01*
X26165000Y-17210000D02*
X26135000Y-17240000D01*
X26935000Y-18935000D02*
X26965000Y-18965000D01*
X26965000Y-18935000D02*
X26935000Y-18965000D01*
X27210000Y-14635000D02*
X27240000Y-14665000D01*
X27240000Y-14635000D02*
X27210000Y-14665000D01*
X27512390Y-17423615D02*
X27542390Y-17453615D01*
X27542390Y-17423615D02*
X27512390Y-17453615D01*
X27985000Y-16385000D02*
X28015000Y-16415000D01*
X28015000Y-16385000D02*
X27985000Y-16415000D01*
X28760000Y-18110000D02*
X28790000Y-18140000D01*
X28790000Y-18110000D02*
X28760000Y-18140000D01*
X28935000Y-13310000D02*
X28965000Y-13340000D01*
X28965000Y-13310000D02*
X28935000Y-13340000D01*
X29145319Y-16084601D02*
X29175319Y-16114601D01*
X29175319Y-16084601D02*
X29145319Y-16114601D01*
X29660000Y-15085000D02*
X29690000Y-15115000D01*
X29690000Y-15085000D02*
X29660000Y-15115000D01*
X29910000Y-11935000D02*
X29940000Y-11965000D01*
X29940000Y-11935000D02*
X29910000Y-11965000D01*
X30210000Y-11735000D02*
X30240000Y-11765000D01*
X30240000Y-11735000D02*
X30210000Y-11765000D01*
X30360000Y-16835000D02*
X30390000Y-16865000D01*
X30390000Y-16835000D02*
X30360000Y-16865000D01*
X30560000Y-12810000D02*
X30590000Y-12840000D01*
X30590000Y-12810000D02*
X30560000Y-12840000D01*
X31110000Y-13110000D02*
X31140000Y-13140000D01*
X31140000Y-13110000D02*
X31110000Y-13140000D01*
X31161616Y-12691023D02*
X31191616Y-12721023D01*
X31191616Y-12691023D02*
X31161616Y-12721023D01*
X31235000Y-15160000D02*
X31265000Y-15190000D01*
X31265000Y-15160000D02*
X31235000Y-15190000D01*
X31760000Y-14885000D02*
X31790000Y-14915000D01*
X31790000Y-14885000D02*
X31760000Y-14915000D01*
X31960000Y-16435000D02*
X31990000Y-16465000D01*
X31990000Y-16435000D02*
X31960000Y-16465000D01*
X32235000Y-14135000D02*
X32265000Y-14165000D01*
X32265000Y-14135000D02*
X32235000Y-14165000D01*
X32410000Y-16685000D02*
X32440000Y-16715000D01*
X32440000Y-16685000D02*
X32410000Y-16715000D01*
X32910000Y-15935000D02*
X32940000Y-15965000D01*
X32940000Y-15935000D02*
X32910000Y-15965000D01*
X33660000Y-13860000D02*
X33690000Y-13890000D01*
X33690000Y-13860000D02*
X33660000Y-13890000D01*
X33661616Y-15916023D02*
X33691616Y-15946023D01*
X33691616Y-15916023D02*
X33661616Y-15946023D01*
X33936616Y-17416023D02*
X33966616Y-17446023D01*
X33966616Y-17416023D02*
X33936616Y-17446023D01*
X34160000Y-15710000D02*
X34190000Y-15740000D01*
X34190000Y-15710000D02*
X34160000Y-15740000D01*
X34436616Y-14166023D02*
X34466616Y-14196023D01*
X34466616Y-14166023D02*
X34436616Y-14196023D01*
X34635000Y-17535000D02*
X34665000Y-17565000D01*
X34665000Y-17535000D02*
X34635000Y-17565000D01*
X35610000Y-13335000D02*
X35640000Y-13365000D01*
X35640000Y-13335000D02*
X35610000Y-13365000D01*
X36085000Y-15185000D02*
X36115000Y-15215000D01*
X36115000Y-15185000D02*
X36085000Y-15215000D01*
X36585000Y-17010000D02*
X36615000Y-17040000D01*
X36615000Y-17010000D02*
X36585000Y-17040000D01*
X22225000Y-10950000D02*
G75*
G03*
X22195000Y-10950000I-15000J0D01*
G01*
X22195000Y-10950000D02*
G75*
G03*
X22225000Y-10950000I15000J0D01*
G01*
X8196867Y-16934576D02*
X8196867Y-16984576D01*
X8171867Y-16959576D02*
X8221867Y-16959576D01*
X8227486Y-16941898D02*
X8179189Y-16928957D01*
X8179189Y-16928957D02*
G75*
G03*
X8166248Y-16977253I-6471J-24148D01*
G01*
X8166248Y-16977253D02*
X8214545Y-16990194D01*
X8214545Y-16990194D02*
G75*
G03*
X8227486Y-16941898I6471J24148D01*
G01*
X8688623Y-15099316D02*
X8688623Y-15149316D01*
X8663623Y-15124316D02*
X8713623Y-15124316D01*
X8719242Y-15106639D02*
X8670946Y-15093698D01*
X8670946Y-15093698D02*
G75*
G03*
X8658005Y-15141994I-6471J-24148D01*
G01*
X8658005Y-15141994D02*
X8706301Y-15154935D01*
X8706301Y-15154935D02*
G75*
G03*
X8719242Y-15106639I6471J24148D01*
G01*
X9180380Y-13264057D02*
X9180380Y-13314057D01*
X9155380Y-13289057D02*
X9205380Y-13289057D01*
X9210998Y-13271380D02*
X9162702Y-13258439D01*
X9162702Y-13258439D02*
G75*
G03*
X9149761Y-13306735I-6471J-24148D01*
G01*
X9149761Y-13306735D02*
X9198057Y-13319676D01*
X9198057Y-13319676D02*
G75*
G03*
X9210998Y-13271380I6471J24148D01*
G01*
X10133548Y-17453508D02*
X10133548Y-17503508D01*
X10108548Y-17478508D02*
X10158548Y-17478508D01*
X10164167Y-17460830D02*
X10115871Y-17447889D01*
X10115871Y-17447889D02*
G75*
G03*
X10102930Y-17496185I-6471J-24148D01*
G01*
X10102930Y-17496185D02*
X10151226Y-17509126D01*
X10151226Y-17509126D02*
G75*
G03*
X10164167Y-17460830I6471J24148D01*
G01*
X10625305Y-15618249D02*
X10625305Y-15668249D01*
X10600305Y-15643249D02*
X10650305Y-15643249D01*
X10655923Y-15625571D02*
X10607627Y-15612630D01*
X10607627Y-15612630D02*
G75*
G03*
X10594686Y-15660926I-6471J-24148D01*
G01*
X10594686Y-15660926D02*
X10642982Y-15673867D01*
X10642982Y-15673867D02*
G75*
G03*
X10655923Y-15625571I6471J24148D01*
G01*
X11117061Y-13782989D02*
X11117061Y-13832989D01*
X11092061Y-13807989D02*
X11142061Y-13807989D01*
X11147679Y-13790312D02*
X11099383Y-13777371D01*
X11099383Y-13777371D02*
G75*
G03*
X11086442Y-13825667I-6471J-24148D01*
G01*
X11086442Y-13825667D02*
X11134739Y-13838608D01*
X11134738Y-13838608D02*
G75*
G03*
X11147679Y-13790312I6471J24148D01*
G01*
X12384052Y-16620464D02*
X12384052Y-16670464D01*
X12359052Y-16645464D02*
X12409052Y-16645464D01*
X12416095Y-16630522D02*
X12369110Y-16613421D01*
X12369110Y-16613421D02*
G75*
G03*
X12352009Y-16660406I-8551J-23492D01*
G01*
X12352009Y-16660406D02*
X12398994Y-16677507D01*
X12398994Y-16677507D02*
G75*
G03*
X12416095Y-16630522I8551J23492D01*
G01*
X13033890Y-14835048D02*
X13033890Y-14885048D01*
X13008890Y-14860048D02*
X13058890Y-14860048D01*
X13065933Y-14845106D02*
X13018949Y-14828005D01*
X13018949Y-14828005D02*
G75*
G03*
X13001848Y-14874990I-8551J-23492D01*
G01*
X13001848Y-14874990D02*
X13048832Y-14892091D01*
X13048832Y-14892091D02*
G75*
G03*
X13065933Y-14845106I8551J23492D01*
G01*
X13683729Y-13049632D02*
X13683729Y-13099632D01*
X13658729Y-13074632D02*
X13708729Y-13074632D01*
X13715771Y-13059690D02*
X13668787Y-13042589D01*
X13668787Y-13042589D02*
G75*
G03*
X13651686Y-13089574I-8551J-23492D01*
G01*
X13651686Y-13089574D02*
X13698670Y-13106675D01*
X13698670Y-13106675D02*
G75*
G03*
X13715771Y-13059690I8551J23492D01*
G01*
X14440564Y-16779031D02*
X14440564Y-16829031D01*
X14415564Y-16804031D02*
X14465564Y-16804031D01*
X14473109Y-16790217D02*
X14426750Y-16771486D01*
X14426750Y-16771486D02*
G75*
G03*
X14408019Y-16817846I-9365J-23180D01*
G01*
X14408019Y-16817846D02*
X14454378Y-16836576D01*
X14454378Y-16836576D02*
G75*
G03*
X14473109Y-16790217I9365J23180D01*
G01*
X15152316Y-15017382D02*
X15152316Y-15067382D01*
X15127316Y-15042382D02*
X15177316Y-15042382D01*
X15184861Y-15028567D02*
X15138502Y-15009837D01*
X15138502Y-15009837D02*
G75*
G03*
X15119772Y-15056196I-9365J-23180D01*
G01*
X15119772Y-15056196D02*
X15166131Y-15074927D01*
X15166131Y-15074927D02*
G75*
G03*
X15184861Y-15028567I9365J23180D01*
G01*
X15432470Y-20592834D02*
X15432470Y-20642834D01*
X15407470Y-20617834D02*
X15457470Y-20617834D01*
X15466456Y-20608089D02*
X15422725Y-20583848D01*
X15422725Y-20583848D02*
G75*
G03*
X15398484Y-20627579I-12120J-21866D01*
G01*
X15398484Y-20627579D02*
X15442215Y-20651820D01*
X15442215Y-20651820D02*
G75*
G03*
X15466456Y-20608089I12120J21866D01*
G01*
X15864069Y-13255732D02*
X15864069Y-13305732D01*
X15839069Y-13280732D02*
X15889069Y-13280732D01*
X15896614Y-13266918D02*
X15850255Y-13248188D01*
X15850255Y-13248188D02*
G75*
G03*
X15831524Y-13294547I-9365J-23180D01*
G01*
X15831524Y-13294547D02*
X15877883Y-13313277D01*
X15877883Y-13313277D02*
G75*
G03*
X15896614Y-13266918I9365J23180D01*
G01*
X16062114Y-18069044D02*
X16062114Y-18119044D01*
X16037114Y-18094044D02*
X16087114Y-18094044D01*
X16095121Y-18081374D02*
X16049444Y-18061037D01*
X16049444Y-18061037D02*
G75*
G03*
X16029107Y-18106714I-10168J-22839D01*
G01*
X16029107Y-18106714D02*
X16074784Y-18127051D01*
X16074784Y-18127051D02*
G75*
G03*
X16095121Y-18081374I10168J22839D01*
G01*
X16834914Y-16333308D02*
X16834914Y-16383308D01*
X16809914Y-16358308D02*
X16859914Y-16358308D01*
X16867921Y-16345637D02*
X16822243Y-16325301D01*
X16822243Y-16325301D02*
G75*
G03*
X16801907Y-16370978I-10168J-22839D01*
G01*
X16801906Y-16370978D02*
X16847584Y-16391315D01*
X16847584Y-16391315D02*
G75*
G03*
X16867921Y-16345637I10168J22839D01*
G01*
X17237582Y-21862436D02*
X17237582Y-21912436D01*
X17212582Y-21887436D02*
X17262582Y-21887436D01*
X17272744Y-21883741D02*
X17233887Y-21852275D01*
X17233887Y-21852275D02*
G75*
G03*
X17202421Y-21891132I-15733J-19429D01*
G01*
X17202420Y-21891132D02*
X17241278Y-21922598D01*
X17241278Y-21922598D02*
G75*
G03*
X17272744Y-21883741I15733J19429D01*
G01*
X17607713Y-14597571D02*
X17607713Y-14647571D01*
X17582713Y-14622571D02*
X17632713Y-14622571D01*
X17640720Y-14609901D02*
X17595043Y-14589564D01*
X17595043Y-14589564D02*
G75*
G03*
X17574706Y-14635241I-10168J-22839D01*
G01*
X17574706Y-14635241D02*
X17620383Y-14655578D01*
X17620383Y-14655578D02*
G75*
G03*
X17640720Y-14609901I10168J22839D01*
G01*
X17881975Y-18888765D02*
X17881975Y-18938765D01*
X17856975Y-18913765D02*
X17906975Y-18913765D01*
X17915198Y-18901672D02*
X17869882Y-18880541D01*
X17869882Y-18880541D02*
G75*
G03*
X17848751Y-18925857I-10566J-22658D01*
G01*
X17848751Y-18925857D02*
X17894067Y-18946988D01*
X17894067Y-18946988D02*
G75*
G03*
X17915198Y-18901672I10566J22658D01*
G01*
X18542776Y-23759592D02*
X18542776Y-23809592D01*
X18517776Y-23784592D02*
X18567776Y-23784592D01*
X18577081Y-23793145D02*
X18551329Y-23750287D01*
X18551329Y-23750287D02*
G75*
G03*
X18508471Y-23776039I-21429J-12876D01*
G01*
X18508471Y-23776039D02*
X18534223Y-23818897D01*
X18534223Y-23818897D02*
G75*
G03*
X18577081Y-23793145I21429J12876D01*
G01*
X18684949Y-17166780D02*
X18684949Y-17216780D01*
X18659949Y-17191780D02*
X18709949Y-17191780D01*
X18718173Y-17179688D02*
X18672857Y-17158557D01*
X18672857Y-17158557D02*
G75*
G03*
X18651726Y-17203872I-10566J-22658D01*
G01*
X18651726Y-17203872D02*
X18697042Y-17225003D01*
X18697042Y-17225003D02*
G75*
G03*
X18718173Y-17179688I10566J22658D01*
G01*
X19487924Y-15444795D02*
X19487924Y-15494795D01*
X19462924Y-15469795D02*
X19512924Y-15469795D01*
X19521147Y-15457703D02*
X19475832Y-15436572D01*
X19475832Y-15436572D02*
G75*
G03*
X19454701Y-15481887I-10566J-22658D01*
G01*
X19454701Y-15481887D02*
X19500016Y-15503018D01*
X19500016Y-15503018D02*
G75*
G03*
X19521147Y-15457703I10566J22658D01*
G01*
X25638221Y-15022177D02*
X25638221Y-15072177D01*
X25613221Y-15047177D02*
X25663221Y-15047177D01*
X25650313Y-15013953D02*
X25604998Y-15035084D01*
X25604998Y-15035084D02*
G75*
G03*
X25626129Y-15080400I10566J-22658D01*
G01*
X25626129Y-15080400D02*
X25671444Y-15059269D01*
X25671444Y-15059269D02*
G75*
G03*
X25650313Y-15013953I-10566J22658D01*
G01*
X26192099Y-22902425D02*
X26192099Y-22952425D01*
X26167099Y-22927425D02*
X26217099Y-22927425D01*
X26183546Y-22893120D02*
X26157794Y-22935978D01*
X26157794Y-22935978D02*
G75*
G03*
X26200652Y-22961730I21429J-12876D01*
G01*
X26200652Y-22961730D02*
X26226404Y-22918872D01*
X26226404Y-22918872D02*
G75*
G03*
X26183546Y-22893120I-21429J12876D01*
G01*
X26441195Y-16744161D02*
X26441195Y-16794162D01*
X26416195Y-16769161D02*
X26466195Y-16769161D01*
X26453288Y-16735938D02*
X26407972Y-16757069D01*
X26407972Y-16757069D02*
G75*
G03*
X26429103Y-16802385I10566J-22658D01*
G01*
X26429103Y-16802385D02*
X26474419Y-16781254D01*
X26474419Y-16781254D02*
G75*
G03*
X26453288Y-16735938I-10566J22658D01*
G01*
X27244170Y-18466146D02*
X27244170Y-18516146D01*
X27219170Y-18491146D02*
X27269170Y-18491146D01*
X27256262Y-18457923D02*
X27210947Y-18479054D01*
X27210947Y-18479054D02*
G75*
G03*
X27232078Y-18524370I10566J-22658D01*
G01*
X27232078Y-18524370D02*
X27277393Y-18503239D01*
X27277393Y-18503239D02*
G75*
G03*
X27256262Y-18457923I-10566J22658D01*
G01*
X27525669Y-14190835D02*
X27525669Y-14240835D01*
X27500669Y-14215835D02*
X27550669Y-14215835D01*
X27538340Y-14182828D02*
X27492662Y-14203164D01*
X27492662Y-14203164D02*
G75*
G03*
X27512999Y-14248842I10168J-22839D01*
G01*
X27512999Y-14248842D02*
X27558676Y-14228505D01*
X27558676Y-14228505D02*
G75*
G03*
X27538340Y-14182828I-10168J22839D01*
G01*
X27759401Y-21233116D02*
X27759401Y-21283116D01*
X27734401Y-21258116D02*
X27784401Y-21258116D01*
X27763096Y-21222954D02*
X27724239Y-21254420D01*
X27724239Y-21254420D02*
G75*
G03*
X27755705Y-21293278I15733J-19429D01*
G01*
X27755705Y-21293278D02*
X27794563Y-21261812D01*
X27794562Y-21261812D02*
G75*
G03*
X27763096Y-21222954I-15733J19429D01*
G01*
X28298469Y-15926571D02*
X28298469Y-15976571D01*
X28273469Y-15951571D02*
X28323469Y-15951571D01*
X28311139Y-15918564D02*
X28265462Y-15938901D01*
X28265462Y-15938901D02*
G75*
G03*
X28285799Y-15984578I10168J-22839D01*
G01*
X28285799Y-15984578D02*
X28331476Y-15964241D01*
X28331476Y-15964241D02*
G75*
G03*
X28311139Y-15918564I-10168J22839D01*
G01*
X29071269Y-17662308D02*
X29071269Y-17712308D01*
X29046269Y-17687308D02*
X29096269Y-17687308D01*
X29083939Y-17654300D02*
X29038262Y-17674637D01*
X29038262Y-17674637D02*
G75*
G03*
X29058598Y-17720315I10168J-22839D01*
G01*
X29058598Y-17720315D02*
X29104276Y-17699978D01*
X29104276Y-17699978D02*
G75*
G03*
X29083939Y-17654301I-10168J22839D01*
G01*
X29282952Y-12881126D02*
X29282952Y-12931126D01*
X29257952Y-12906126D02*
X29307952Y-12906126D01*
X29296766Y-12873581D02*
X29250407Y-12892311D01*
X29250407Y-12892311D02*
G75*
G03*
X29269137Y-12938671I9365J-23180D01*
G01*
X29269137Y-12938671D02*
X29315497Y-12919940D01*
X29315497Y-12919940D02*
G75*
G03*
X29296766Y-12873581I-9365J23180D01*
G01*
X29661987Y-20108024D02*
X29661987Y-20158024D01*
X29636987Y-20133024D02*
X29686987Y-20133024D01*
X29671732Y-20099039D02*
X29628001Y-20123279D01*
X29628001Y-20123279D02*
G75*
G03*
X29652241Y-20167010I12120J-21866D01*
G01*
X29652241Y-20167010D02*
X29695972Y-20142770D01*
X29695972Y-20142770D02*
G75*
G03*
X29671732Y-20099039I-12120J21866D01*
G01*
X29994704Y-14642775D02*
X29994704Y-14692775D01*
X29969704Y-14667775D02*
X30019704Y-14667775D01*
X30008519Y-14635230D02*
X29962159Y-14653961D01*
X29962159Y-14653961D02*
G75*
G03*
X29980890Y-14700320I9365J-23180D01*
G01*
X29980890Y-14700320D02*
X30027249Y-14681590D01*
X30027249Y-14681590D02*
G75*
G03*
X30008519Y-14635230I-9365J23180D01*
G01*
X30706457Y-16404424D02*
X30706457Y-16454424D01*
X30681457Y-16429424D02*
X30731457Y-16429424D01*
X30720271Y-16396880D02*
X30673912Y-16415610D01*
X30673912Y-16415610D02*
G75*
G03*
X30692642Y-16461969I9365J-23180D01*
G01*
X30692642Y-16461969D02*
X30739002Y-16443239D01*
X30739002Y-16443239D02*
G75*
G03*
X30720271Y-16396880I-9365J23180D01*
G01*
X31475801Y-12707612D02*
X31475801Y-12757612D01*
X31450801Y-12732612D02*
X31500801Y-12732612D01*
X31490743Y-12700569D02*
X31443758Y-12717670D01*
X31443758Y-12717670D02*
G75*
G03*
X31460859Y-12764654I8551J-23492D01*
G01*
X31460859Y-12764654D02*
X31507844Y-12747553D01*
X31507844Y-12747553D02*
G75*
G03*
X31490743Y-12700569I-8551J23492D01*
G01*
X32125639Y-14493028D02*
X32125639Y-14543028D01*
X32100639Y-14518028D02*
X32150639Y-14518028D01*
X32140581Y-14485985D02*
X32093596Y-14503086D01*
X32093596Y-14503086D02*
G75*
G03*
X32110697Y-14550070I8551J-23492D01*
G01*
X32110697Y-14550070D02*
X32157682Y-14532969D01*
X32157682Y-14532969D02*
G75*
G03*
X32140581Y-14485985I-8551J23492D01*
G01*
X32775477Y-16278444D02*
X32775477Y-16328444D01*
X32750477Y-16303444D02*
X32800477Y-16303444D01*
X32790419Y-16271401D02*
X32743435Y-16288502D01*
X32743435Y-16288502D02*
G75*
G03*
X32760536Y-16335486I8551J-23492D01*
G01*
X32760536Y-16335486D02*
X32807520Y-16318385D01*
X32807520Y-16318385D02*
G75*
G03*
X32790419Y-16271401I-8551J23492D01*
G01*
X34068702Y-13524170D02*
X34068702Y-13574170D01*
X34043702Y-13549170D02*
X34093702Y-13549170D01*
X34086380Y-13518552D02*
X34038084Y-13531493D01*
X34038084Y-13531493D02*
G75*
G03*
X34051025Y-13579789I6471J-24148D01*
G01*
X34051024Y-13579789D02*
X34099321Y-13566848D01*
X34099321Y-13566848D02*
G75*
G03*
X34086380Y-13518552I-6471J24148D01*
G01*
X34560458Y-15359430D02*
X34560458Y-15409430D01*
X34535458Y-15384430D02*
X34585458Y-15384430D01*
X34578136Y-15353811D02*
X34529840Y-15366752D01*
X34529840Y-15366752D02*
G75*
G03*
X34542781Y-15415048I6471J-24148D01*
G01*
X34542781Y-15415048D02*
X34591077Y-15402107D01*
X34591077Y-15402107D02*
G75*
G03*
X34578136Y-15353811I-6471J24148D01*
G01*
X35052214Y-17194689D02*
X35052214Y-17244689D01*
X35027214Y-17219689D02*
X35077214Y-17219689D01*
X35069892Y-17189070D02*
X35021596Y-17202011D01*
X35021596Y-17202011D02*
G75*
G03*
X35034537Y-17250307I6471J-24148D01*
G01*
X35034537Y-17250307D02*
X35082833Y-17237366D01*
X35082833Y-17237366D02*
G75*
G03*
X35069892Y-17189070I-6471J24148D01*
G01*
X36005383Y-13005238D02*
X36005383Y-13055238D01*
X35980383Y-13030238D02*
X36030383Y-13030238D01*
X36023061Y-12999620D02*
X35974765Y-13012561D01*
X35974765Y-13012561D02*
G75*
G03*
X35987706Y-13060857I6471J-24148D01*
G01*
X35987706Y-13060857D02*
X36036002Y-13047916D01*
X36036002Y-13047916D02*
G75*
G03*
X36023061Y-12999620I-6471J24148D01*
G01*
X36497140Y-14840497D02*
X36497140Y-14890497D01*
X36472140Y-14865497D02*
X36522140Y-14865497D01*
X36514817Y-14834879D02*
X36466521Y-14847820D01*
X36466521Y-14847820D02*
G75*
G03*
X36479462Y-14896116I6471J-24148D01*
G01*
X36479462Y-14896116D02*
X36527758Y-14883175D01*
X36527758Y-14883175D02*
G75*
G03*
X36514817Y-14834879I-6471J24148D01*
G01*
X36988896Y-16675756D02*
X36988896Y-16725756D01*
X36963896Y-16700756D02*
X37013896Y-16700756D01*
X37006573Y-16670138D02*
X36958277Y-16683079D01*
X36958277Y-16683079D02*
G75*
G03*
X36971218Y-16731375I6471J-24148D01*
G01*
X36971218Y-16731375D02*
X37019514Y-16718434D01*
X37019514Y-16718434D02*
G75*
G03*
X37006573Y-16670138I-6471J24148D01*
G01*
X10259655Y-11323603D02*
X10259655Y-11281176D01*
X10217228Y-11281176D01*
X10217228Y-11323603D01*
X10259655Y-11323603D01*
X10206519Y-11274444D02*
X10210496Y-11334312D01*
X10210496Y-11334312D02*
G75*
G03*
X10270364Y-11330335I29934J1988D01*
G01*
X10270364Y-11330335D02*
X10266388Y-11270467D01*
X10266388Y-11270467D02*
G75*
G03*
X10206520Y-11274444I-29934J-1988D01*
G01*
X10287358Y-11740684D02*
X10287358Y-11698257D01*
X10244931Y-11698257D01*
X10244931Y-11740684D01*
X10287358Y-11740684D01*
X10232565Y-11666580D02*
X10239855Y-11776338D01*
X10239855Y-11776338D02*
G75*
G03*
X10299723Y-11772362I29934J1988D01*
G01*
X10299723Y-11772362D02*
X10292433Y-11662603D01*
X10292433Y-11662603D02*
G75*
G03*
X10232565Y-11666580I-29934J-1988D01*
G01*
X11121756Y-11266342D02*
X11121756Y-11223916D01*
X11079329Y-11223916D01*
X11079329Y-11266342D01*
X11121756Y-11266342D01*
X11068620Y-11217183D02*
X11072596Y-11277051D01*
X11072596Y-11277051D02*
G75*
G03*
X11132464Y-11273075I29934J1988D01*
G01*
X11132465Y-11273075D02*
X11128488Y-11213207D01*
X11128488Y-11213207D02*
G75*
G03*
X11068620Y-11217183I-29934J-1988D01*
G01*
X11149458Y-11683423D02*
X11149458Y-11640997D01*
X11107031Y-11640997D01*
X11107031Y-11683423D01*
X11149458Y-11683423D01*
X11094666Y-11609319D02*
X11101956Y-11719077D01*
X11101956Y-11719077D02*
G75*
G03*
X11161824Y-11715101I29934J1988D01*
G01*
X11161824Y-11715101D02*
X11154534Y-11605343D01*
X11154534Y-11605343D02*
G75*
G03*
X11094666Y-11609319I-29934J-1988D01*
G01*
X21273500Y-14350000D02*
X21323500Y-14300000D01*
X21273500Y-14250000D01*
X21223500Y-14300000D01*
X21273500Y-14350000D01*
X21527500Y-14350000D02*
X21577500Y-14300000D01*
X21527500Y-14250000D01*
X21477500Y-14300000D01*
X21527500Y-14350000D01*
X22913000Y-11600000D02*
X22963000Y-11550000D01*
X22913000Y-11500000D01*
X22863000Y-11550000D01*
X22913000Y-11600000D01*
X22918000Y-12050000D02*
X22968000Y-12000000D01*
X22918000Y-11950000D01*
X22868000Y-12000000D01*
X22918000Y-12050000D01*
X23050000Y-13073500D02*
X23100000Y-13023500D01*
X23050000Y-12973500D01*
X23000000Y-13023500D01*
X23050000Y-13073500D01*
X23050000Y-13327500D02*
X23100000Y-13277500D01*
X23050000Y-13227500D01*
X23000000Y-13277500D01*
X23050000Y-13327500D01*
X23167000Y-11600000D02*
X23217000Y-11550000D01*
X23167000Y-11500000D01*
X23117000Y-11550000D01*
X23167000Y-11600000D01*
X23172000Y-12050000D02*
X23222000Y-12000000D01*
X23172000Y-11950000D01*
X23122000Y-12000000D01*
X23172000Y-12050000D01*
X23421000Y-11600000D02*
X23471000Y-11550000D01*
X23421000Y-11500000D01*
X23371000Y-11550000D01*
X23421000Y-11600000D01*
X23426000Y-12050000D02*
X23476000Y-12000000D01*
X23426000Y-11950000D01*
X23376000Y-12000000D01*
X23426000Y-12050000D01*
X23675000Y-11600000D02*
X23725000Y-11550000D01*
X23675000Y-11500000D01*
X23625000Y-11550000D01*
X23675000Y-11600000D01*
X23680000Y-12050000D02*
X23730000Y-12000000D01*
X23680000Y-11950000D01*
X23630000Y-12000000D01*
X23680000Y-12050000D01*
D12*
X6713367Y-25065361D02*
X6713367Y-24865361D01*
X6713367Y-24865361D02*
X6760986Y-24865361D01*
X6760986Y-24865361D02*
X6789558Y-24874885D01*
X6789558Y-24874885D02*
X6808606Y-24893933D01*
X6808606Y-24893933D02*
X6818129Y-24912980D01*
X6818129Y-24912980D02*
X6827653Y-24951076D01*
X6827653Y-24951076D02*
X6827653Y-24979647D01*
X6827653Y-24979647D02*
X6818129Y-25017742D01*
X6818129Y-25017742D02*
X6808606Y-25036790D01*
X6808606Y-25036790D02*
X6789558Y-25055838D01*
X6789558Y-25055838D02*
X6760986Y-25065361D01*
X6760986Y-25065361D02*
X6713367Y-25065361D01*
X6913367Y-25065361D02*
X6913367Y-24932028D01*
X6913367Y-24970123D02*
X6922891Y-24951076D01*
X6922891Y-24951076D02*
X6932415Y-24941552D01*
X6932415Y-24941552D02*
X6951463Y-24932028D01*
X6951463Y-24932028D02*
X6970510Y-24932028D01*
X7037177Y-25065361D02*
X7037177Y-24932028D01*
X7037177Y-24865361D02*
X7027653Y-24874885D01*
X7027653Y-24874885D02*
X7037177Y-24884409D01*
X7037177Y-24884409D02*
X7046701Y-24874885D01*
X7046701Y-24874885D02*
X7037177Y-24865361D01*
X7037177Y-24865361D02*
X7037177Y-24884409D01*
X7160986Y-25065361D02*
X7141939Y-25055838D01*
X7141939Y-25055838D02*
X7132415Y-25036790D01*
X7132415Y-25036790D02*
X7132415Y-24865361D01*
X7265748Y-25065361D02*
X7246701Y-25055838D01*
X7246701Y-25055838D02*
X7237177Y-25036790D01*
X7237177Y-25036790D02*
X7237177Y-24865361D01*
X7494320Y-25065361D02*
X7494320Y-24865361D01*
X7494320Y-24865361D02*
X7560987Y-25008218D01*
X7560987Y-25008218D02*
X7627653Y-24865361D01*
X7627653Y-24865361D02*
X7627653Y-25065361D01*
X7808606Y-25065361D02*
X7808606Y-24960599D01*
X7808606Y-24960599D02*
X7799082Y-24941552D01*
X7799082Y-24941552D02*
X7780034Y-24932028D01*
X7780034Y-24932028D02*
X7741939Y-24932028D01*
X7741939Y-24932028D02*
X7722891Y-24941552D01*
X7808606Y-25055838D02*
X7789558Y-25065361D01*
X7789558Y-25065361D02*
X7741939Y-25065361D01*
X7741939Y-25065361D02*
X7722891Y-25055838D01*
X7722891Y-25055838D02*
X7713367Y-25036790D01*
X7713367Y-25036790D02*
X7713367Y-25017742D01*
X7713367Y-25017742D02*
X7722891Y-24998695D01*
X7722891Y-24998695D02*
X7741939Y-24989171D01*
X7741939Y-24989171D02*
X7789558Y-24989171D01*
X7789558Y-24989171D02*
X7808606Y-24979647D01*
X7903844Y-24932028D02*
X7903844Y-25132028D01*
X7903844Y-24941552D02*
X7922891Y-24932028D01*
X7922891Y-24932028D02*
X7960987Y-24932028D01*
X7960987Y-24932028D02*
X7980034Y-24941552D01*
X7980034Y-24941552D02*
X7989558Y-24951076D01*
X7989558Y-24951076D02*
X7999082Y-24970123D01*
X7999082Y-24970123D02*
X7999082Y-25027266D01*
X7999082Y-25027266D02*
X7989558Y-25046314D01*
X7989558Y-25046314D02*
X7980034Y-25055838D01*
X7980034Y-25055838D02*
X7960987Y-25065361D01*
X7960987Y-25065361D02*
X7922891Y-25065361D01*
X7922891Y-25065361D02*
X7903844Y-25055838D01*
X8084796Y-25046314D02*
X8094320Y-25055838D01*
X8094320Y-25055838D02*
X8084796Y-25065361D01*
X8084796Y-25065361D02*
X8075272Y-25055838D01*
X8075272Y-25055838D02*
X8084796Y-25046314D01*
X8084796Y-25046314D02*
X8084796Y-25065361D01*
X8084796Y-24941552D02*
X8094320Y-24951076D01*
X8094320Y-24951076D02*
X8084796Y-24960599D01*
X8084796Y-24960599D02*
X8075272Y-24951076D01*
X8075272Y-24951076D02*
X8084796Y-24941552D01*
X8084796Y-24941552D02*
X8084796Y-24960599D01*
D11*
X6422591Y-25378878D02*
X6452591Y-25408878D01*
X6452591Y-25378878D02*
X6422591Y-25408878D01*
D12*
X6751463Y-25285361D02*
X6770510Y-25285361D01*
X6770510Y-25285361D02*
X6789558Y-25294885D01*
X6789558Y-25294885D02*
X6799082Y-25304409D01*
X6799082Y-25304409D02*
X6808606Y-25323457D01*
X6808606Y-25323457D02*
X6818129Y-25361552D01*
X6818129Y-25361552D02*
X6818129Y-25409171D01*
X6818129Y-25409171D02*
X6808606Y-25447266D01*
X6808606Y-25447266D02*
X6799082Y-25466314D01*
X6799082Y-25466314D02*
X6789558Y-25475838D01*
X6789558Y-25475838D02*
X6770510Y-25485361D01*
X6770510Y-25485361D02*
X6751463Y-25485361D01*
X6751463Y-25485361D02*
X6732415Y-25475838D01*
X6732415Y-25475838D02*
X6722891Y-25466314D01*
X6722891Y-25466314D02*
X6713367Y-25447266D01*
X6713367Y-25447266D02*
X6703844Y-25409171D01*
X6703844Y-25409171D02*
X6703844Y-25361552D01*
X6703844Y-25361552D02*
X6713367Y-25323457D01*
X6713367Y-25323457D02*
X6722891Y-25304409D01*
X6722891Y-25304409D02*
X6732415Y-25294885D01*
X6732415Y-25294885D02*
X6751463Y-25285361D01*
X6903844Y-25466314D02*
X6913367Y-25475838D01*
X6913367Y-25475838D02*
X6903844Y-25485361D01*
X6903844Y-25485361D02*
X6894320Y-25475838D01*
X6894320Y-25475838D02*
X6903844Y-25466314D01*
X6903844Y-25466314D02*
X6903844Y-25485361D01*
X6980034Y-25285361D02*
X7103844Y-25285361D01*
X7103844Y-25285361D02*
X7037177Y-25361552D01*
X7037177Y-25361552D02*
X7065748Y-25361552D01*
X7065748Y-25361552D02*
X7084796Y-25371076D01*
X7084796Y-25371076D02*
X7094320Y-25380599D01*
X7094320Y-25380599D02*
X7103844Y-25399647D01*
X7103844Y-25399647D02*
X7103844Y-25447266D01*
X7103844Y-25447266D02*
X7094320Y-25466314D01*
X7094320Y-25466314D02*
X7084796Y-25475838D01*
X7084796Y-25475838D02*
X7065748Y-25485361D01*
X7065748Y-25485361D02*
X7008606Y-25485361D01*
X7008606Y-25485361D02*
X6989558Y-25475838D01*
X6989558Y-25475838D02*
X6980034Y-25466314D01*
X7227653Y-25285361D02*
X7246701Y-25285361D01*
X7246701Y-25285361D02*
X7265748Y-25294885D01*
X7265748Y-25294885D02*
X7275272Y-25304409D01*
X7275272Y-25304409D02*
X7284796Y-25323457D01*
X7284796Y-25323457D02*
X7294320Y-25361552D01*
X7294320Y-25361552D02*
X7294320Y-25409171D01*
X7294320Y-25409171D02*
X7284796Y-25447266D01*
X7284796Y-25447266D02*
X7275272Y-25466314D01*
X7275272Y-25466314D02*
X7265748Y-25475838D01*
X7265748Y-25475838D02*
X7246701Y-25485361D01*
X7246701Y-25485361D02*
X7227653Y-25485361D01*
X7227653Y-25485361D02*
X7208606Y-25475838D01*
X7208606Y-25475838D02*
X7199082Y-25466314D01*
X7199082Y-25466314D02*
X7189558Y-25447266D01*
X7189558Y-25447266D02*
X7180034Y-25409171D01*
X7180034Y-25409171D02*
X7180034Y-25361552D01*
X7180034Y-25361552D02*
X7189558Y-25323457D01*
X7189558Y-25323457D02*
X7199082Y-25304409D01*
X7199082Y-25304409D02*
X7208606Y-25294885D01*
X7208606Y-25294885D02*
X7227653Y-25285361D01*
X7418129Y-25285361D02*
X7437177Y-25285361D01*
X7437177Y-25285361D02*
X7456225Y-25294885D01*
X7456225Y-25294885D02*
X7465748Y-25304409D01*
X7465748Y-25304409D02*
X7475272Y-25323457D01*
X7475272Y-25323457D02*
X7484796Y-25361552D01*
X7484796Y-25361552D02*
X7484796Y-25409171D01*
X7484796Y-25409171D02*
X7475272Y-25447266D01*
X7475272Y-25447266D02*
X7465748Y-25466314D01*
X7465748Y-25466314D02*
X7456225Y-25475838D01*
X7456225Y-25475838D02*
X7437177Y-25485361D01*
X7437177Y-25485361D02*
X7418129Y-25485361D01*
X7418129Y-25485361D02*
X7399082Y-25475838D01*
X7399082Y-25475838D02*
X7389558Y-25466314D01*
X7389558Y-25466314D02*
X7380034Y-25447266D01*
X7380034Y-25447266D02*
X7370510Y-25409171D01*
X7370510Y-25409171D02*
X7370510Y-25361552D01*
X7370510Y-25361552D02*
X7380034Y-25323457D01*
X7380034Y-25323457D02*
X7389558Y-25304409D01*
X7389558Y-25304409D02*
X7399082Y-25294885D01*
X7399082Y-25294885D02*
X7418129Y-25285361D01*
X7570510Y-25485361D02*
X7570510Y-25352028D01*
X7570510Y-25371076D02*
X7580034Y-25361552D01*
X7580034Y-25361552D02*
X7599082Y-25352028D01*
X7599082Y-25352028D02*
X7627653Y-25352028D01*
X7627653Y-25352028D02*
X7646701Y-25361552D01*
X7646701Y-25361552D02*
X7656225Y-25380599D01*
X7656225Y-25380599D02*
X7656225Y-25485361D01*
X7656225Y-25380599D02*
X7665748Y-25361552D01*
X7665748Y-25361552D02*
X7684796Y-25352028D01*
X7684796Y-25352028D02*
X7713367Y-25352028D01*
X7713367Y-25352028D02*
X7732415Y-25361552D01*
X7732415Y-25361552D02*
X7741939Y-25380599D01*
X7741939Y-25380599D02*
X7741939Y-25485361D01*
X7837177Y-25485361D02*
X7837177Y-25352028D01*
X7837177Y-25371076D02*
X7846701Y-25361552D01*
X7846701Y-25361552D02*
X7865748Y-25352028D01*
X7865748Y-25352028D02*
X7894320Y-25352028D01*
X7894320Y-25352028D02*
X7913368Y-25361552D01*
X7913368Y-25361552D02*
X7922891Y-25380599D01*
X7922891Y-25380599D02*
X7922891Y-25485361D01*
X7922891Y-25380599D02*
X7932415Y-25361552D01*
X7932415Y-25361552D02*
X7951463Y-25352028D01*
X7951463Y-25352028D02*
X7980034Y-25352028D01*
X7980034Y-25352028D02*
X7999082Y-25361552D01*
X7999082Y-25361552D02*
X8008606Y-25380599D01*
X8008606Y-25380599D02*
X8008606Y-25485361D01*
X8399082Y-25275838D02*
X8227653Y-25532980D01*
X8656225Y-25285361D02*
X8675273Y-25285361D01*
X8675273Y-25285361D02*
X8694320Y-25294885D01*
X8694320Y-25294885D02*
X8703844Y-25304409D01*
X8703844Y-25304409D02*
X8713368Y-25323457D01*
X8713368Y-25323457D02*
X8722892Y-25361552D01*
X8722892Y-25361552D02*
X8722892Y-25409171D01*
X8722892Y-25409171D02*
X8713368Y-25447266D01*
X8713368Y-25447266D02*
X8703844Y-25466314D01*
X8703844Y-25466314D02*
X8694320Y-25475838D01*
X8694320Y-25475838D02*
X8675273Y-25485361D01*
X8675273Y-25485361D02*
X8656225Y-25485361D01*
X8656225Y-25485361D02*
X8637177Y-25475838D01*
X8637177Y-25475838D02*
X8627653Y-25466314D01*
X8627653Y-25466314D02*
X8618130Y-25447266D01*
X8618130Y-25447266D02*
X8608606Y-25409171D01*
X8608606Y-25409171D02*
X8608606Y-25361552D01*
X8608606Y-25361552D02*
X8618130Y-25323457D01*
X8618130Y-25323457D02*
X8627653Y-25304409D01*
X8627653Y-25304409D02*
X8637177Y-25294885D01*
X8637177Y-25294885D02*
X8656225Y-25285361D01*
X8808606Y-25466314D02*
X8818130Y-25475838D01*
X8818130Y-25475838D02*
X8808606Y-25485361D01*
X8808606Y-25485361D02*
X8799082Y-25475838D01*
X8799082Y-25475838D02*
X8808606Y-25466314D01*
X8808606Y-25466314D02*
X8808606Y-25485361D01*
X8941939Y-25285361D02*
X8960987Y-25285361D01*
X8960987Y-25285361D02*
X8980034Y-25294885D01*
X8980034Y-25294885D02*
X8989558Y-25304409D01*
X8989558Y-25304409D02*
X8999082Y-25323457D01*
X8999082Y-25323457D02*
X9008606Y-25361552D01*
X9008606Y-25361552D02*
X9008606Y-25409171D01*
X9008606Y-25409171D02*
X8999082Y-25447266D01*
X8999082Y-25447266D02*
X8989558Y-25466314D01*
X8989558Y-25466314D02*
X8980034Y-25475838D01*
X8980034Y-25475838D02*
X8960987Y-25485361D01*
X8960987Y-25485361D02*
X8941939Y-25485361D01*
X8941939Y-25485361D02*
X8922892Y-25475838D01*
X8922892Y-25475838D02*
X8913368Y-25466314D01*
X8913368Y-25466314D02*
X8903844Y-25447266D01*
X8903844Y-25447266D02*
X8894320Y-25409171D01*
X8894320Y-25409171D02*
X8894320Y-25361552D01*
X8894320Y-25361552D02*
X8903844Y-25323457D01*
X8903844Y-25323457D02*
X8913368Y-25304409D01*
X8913368Y-25304409D02*
X8922892Y-25294885D01*
X8922892Y-25294885D02*
X8941939Y-25285361D01*
X9199082Y-25485361D02*
X9084796Y-25485361D01*
X9141939Y-25485361D02*
X9141939Y-25285361D01*
X9141939Y-25285361D02*
X9122892Y-25313933D01*
X9122892Y-25313933D02*
X9103844Y-25332980D01*
X9103844Y-25332980D02*
X9084796Y-25342504D01*
X9389558Y-25485361D02*
X9275273Y-25485361D01*
X9332415Y-25485361D02*
X9332415Y-25285361D01*
X9332415Y-25285361D02*
X9313368Y-25313933D01*
X9313368Y-25313933D02*
X9294320Y-25332980D01*
X9294320Y-25332980D02*
X9275273Y-25342504D01*
X9503844Y-25371076D02*
X9484796Y-25361552D01*
X9484796Y-25361552D02*
X9475273Y-25352028D01*
X9475273Y-25352028D02*
X9465749Y-25332980D01*
X9465749Y-25332980D02*
X9465749Y-25323457D01*
X9465749Y-25323457D02*
X9475273Y-25304409D01*
X9475273Y-25304409D02*
X9484796Y-25294885D01*
X9484796Y-25294885D02*
X9503844Y-25285361D01*
X9503844Y-25285361D02*
X9541939Y-25285361D01*
X9541939Y-25285361D02*
X9560987Y-25294885D01*
X9560987Y-25294885D02*
X9570511Y-25304409D01*
X9570511Y-25304409D02*
X9580034Y-25323457D01*
X9580034Y-25323457D02*
X9580034Y-25332980D01*
X9580034Y-25332980D02*
X9570511Y-25352028D01*
X9570511Y-25352028D02*
X9560987Y-25361552D01*
X9560987Y-25361552D02*
X9541939Y-25371076D01*
X9541939Y-25371076D02*
X9503844Y-25371076D01*
X9503844Y-25371076D02*
X9484796Y-25380599D01*
X9484796Y-25380599D02*
X9475273Y-25390123D01*
X9475273Y-25390123D02*
X9465749Y-25409171D01*
X9465749Y-25409171D02*
X9465749Y-25447266D01*
X9465749Y-25447266D02*
X9475273Y-25466314D01*
X9475273Y-25466314D02*
X9484796Y-25475838D01*
X9484796Y-25475838D02*
X9503844Y-25485361D01*
X9503844Y-25485361D02*
X9541939Y-25485361D01*
X9541939Y-25485361D02*
X9560987Y-25475838D01*
X9560987Y-25475838D02*
X9570511Y-25466314D01*
X9570511Y-25466314D02*
X9580034Y-25447266D01*
X9580034Y-25447266D02*
X9580034Y-25409171D01*
X9580034Y-25409171D02*
X9570511Y-25390123D01*
X9570511Y-25390123D02*
X9560987Y-25380599D01*
X9560987Y-25380599D02*
X9541939Y-25371076D01*
X9656225Y-25285361D02*
X9656225Y-25323457D01*
X9732415Y-25285361D02*
X9732415Y-25323457D01*
X10027654Y-25561552D02*
X10018130Y-25552028D01*
X10018130Y-25552028D02*
X9999082Y-25523457D01*
X9999082Y-25523457D02*
X9989558Y-25504409D01*
X9989558Y-25504409D02*
X9980035Y-25475838D01*
X9980035Y-25475838D02*
X9970511Y-25428218D01*
X9970511Y-25428218D02*
X9970511Y-25390123D01*
X9970511Y-25390123D02*
X9980035Y-25342504D01*
X9980035Y-25342504D02*
X9989558Y-25313933D01*
X9989558Y-25313933D02*
X9999082Y-25294885D01*
X9999082Y-25294885D02*
X10018130Y-25266314D01*
X10018130Y-25266314D02*
X10027654Y-25256790D01*
X10208606Y-25485361D02*
X10094320Y-25485361D01*
X10151463Y-25485361D02*
X10151463Y-25285361D01*
X10151463Y-25285361D02*
X10132415Y-25313933D01*
X10132415Y-25313933D02*
X10113368Y-25332980D01*
X10113368Y-25332980D02*
X10094320Y-25342504D01*
X10284796Y-25304409D02*
X10294320Y-25294885D01*
X10294320Y-25294885D02*
X10313368Y-25285361D01*
X10313368Y-25285361D02*
X10360987Y-25285361D01*
X10360987Y-25285361D02*
X10380035Y-25294885D01*
X10380035Y-25294885D02*
X10389558Y-25304409D01*
X10389558Y-25304409D02*
X10399082Y-25323457D01*
X10399082Y-25323457D02*
X10399082Y-25342504D01*
X10399082Y-25342504D02*
X10389558Y-25371076D01*
X10389558Y-25371076D02*
X10275273Y-25485361D01*
X10275273Y-25485361D02*
X10399082Y-25485361D01*
X10475273Y-25304409D02*
X10484796Y-25294885D01*
X10484796Y-25294885D02*
X10503844Y-25285361D01*
X10503844Y-25285361D02*
X10551463Y-25285361D01*
X10551463Y-25285361D02*
X10570511Y-25294885D01*
X10570511Y-25294885D02*
X10580035Y-25304409D01*
X10580035Y-25304409D02*
X10589558Y-25323457D01*
X10589558Y-25323457D02*
X10589558Y-25342504D01*
X10589558Y-25342504D02*
X10580035Y-25371076D01*
X10580035Y-25371076D02*
X10465749Y-25485361D01*
X10465749Y-25485361D02*
X10589558Y-25485361D01*
X10827654Y-25485361D02*
X10827654Y-25285361D01*
X10913368Y-25485361D02*
X10913368Y-25380599D01*
X10913368Y-25380599D02*
X10903844Y-25361552D01*
X10903844Y-25361552D02*
X10884797Y-25352028D01*
X10884797Y-25352028D02*
X10856225Y-25352028D01*
X10856225Y-25352028D02*
X10837177Y-25361552D01*
X10837177Y-25361552D02*
X10827654Y-25371076D01*
X11037177Y-25485361D02*
X11018130Y-25475838D01*
X11018130Y-25475838D02*
X11008606Y-25466314D01*
X11008606Y-25466314D02*
X10999082Y-25447266D01*
X10999082Y-25447266D02*
X10999082Y-25390123D01*
X10999082Y-25390123D02*
X11008606Y-25371076D01*
X11008606Y-25371076D02*
X11018130Y-25361552D01*
X11018130Y-25361552D02*
X11037177Y-25352028D01*
X11037177Y-25352028D02*
X11065749Y-25352028D01*
X11065749Y-25352028D02*
X11084797Y-25361552D01*
X11084797Y-25361552D02*
X11094320Y-25371076D01*
X11094320Y-25371076D02*
X11103844Y-25390123D01*
X11103844Y-25390123D02*
X11103844Y-25447266D01*
X11103844Y-25447266D02*
X11094320Y-25466314D01*
X11094320Y-25466314D02*
X11084797Y-25475838D01*
X11084797Y-25475838D02*
X11065749Y-25485361D01*
X11065749Y-25485361D02*
X11037177Y-25485361D01*
X11218130Y-25485361D02*
X11199082Y-25475838D01*
X11199082Y-25475838D02*
X11189558Y-25456790D01*
X11189558Y-25456790D02*
X11189558Y-25285361D01*
X11370511Y-25475838D02*
X11351463Y-25485361D01*
X11351463Y-25485361D02*
X11313368Y-25485361D01*
X11313368Y-25485361D02*
X11294320Y-25475838D01*
X11294320Y-25475838D02*
X11284796Y-25456790D01*
X11284796Y-25456790D02*
X11284796Y-25380599D01*
X11284796Y-25380599D02*
X11294320Y-25361552D01*
X11294320Y-25361552D02*
X11313368Y-25352028D01*
X11313368Y-25352028D02*
X11351463Y-25352028D01*
X11351463Y-25352028D02*
X11370511Y-25361552D01*
X11370511Y-25361552D02*
X11380035Y-25380599D01*
X11380035Y-25380599D02*
X11380035Y-25399647D01*
X11380035Y-25399647D02*
X11284796Y-25418695D01*
X11456225Y-25475838D02*
X11475273Y-25485361D01*
X11475273Y-25485361D02*
X11513368Y-25485361D01*
X11513368Y-25485361D02*
X11532416Y-25475838D01*
X11532416Y-25475838D02*
X11541939Y-25456790D01*
X11541939Y-25456790D02*
X11541939Y-25447266D01*
X11541939Y-25447266D02*
X11532416Y-25428218D01*
X11532416Y-25428218D02*
X11513368Y-25418695D01*
X11513368Y-25418695D02*
X11484796Y-25418695D01*
X11484796Y-25418695D02*
X11465749Y-25409171D01*
X11465749Y-25409171D02*
X11456225Y-25390123D01*
X11456225Y-25390123D02*
X11456225Y-25380599D01*
X11456225Y-25380599D02*
X11465749Y-25361552D01*
X11465749Y-25361552D02*
X11484796Y-25352028D01*
X11484796Y-25352028D02*
X11513368Y-25352028D01*
X11513368Y-25352028D02*
X11532416Y-25361552D01*
X11608606Y-25561552D02*
X11618130Y-25552028D01*
X11618130Y-25552028D02*
X11637177Y-25523457D01*
X11637177Y-25523457D02*
X11646701Y-25504409D01*
X11646701Y-25504409D02*
X11656225Y-25475838D01*
X11656225Y-25475838D02*
X11665749Y-25428218D01*
X11665749Y-25428218D02*
X11665749Y-25390123D01*
X11665749Y-25390123D02*
X11656225Y-25342504D01*
X11656225Y-25342504D02*
X11646701Y-25313933D01*
X11646701Y-25313933D02*
X11637177Y-25294885D01*
X11637177Y-25294885D02*
X11618130Y-25266314D01*
X11618130Y-25266314D02*
X11608606Y-25256790D01*
D11*
X6452591Y-25657878D02*
G75*
G03*
X6422591Y-25657878I-15000J0D01*
G01*
X6422591Y-25657878D02*
G75*
G03*
X6452591Y-25657878I15000J0D01*
G01*
D12*
X6751463Y-25549361D02*
X6770510Y-25549361D01*
X6770510Y-25549361D02*
X6789558Y-25558885D01*
X6789558Y-25558885D02*
X6799082Y-25568409D01*
X6799082Y-25568409D02*
X6808606Y-25587457D01*
X6808606Y-25587457D02*
X6818129Y-25625552D01*
X6818129Y-25625552D02*
X6818129Y-25673171D01*
X6818129Y-25673171D02*
X6808606Y-25711266D01*
X6808606Y-25711266D02*
X6799082Y-25730314D01*
X6799082Y-25730314D02*
X6789558Y-25739838D01*
X6789558Y-25739838D02*
X6770510Y-25749361D01*
X6770510Y-25749361D02*
X6751463Y-25749361D01*
X6751463Y-25749361D02*
X6732415Y-25739838D01*
X6732415Y-25739838D02*
X6722891Y-25730314D01*
X6722891Y-25730314D02*
X6713367Y-25711266D01*
X6713367Y-25711266D02*
X6703844Y-25673171D01*
X6703844Y-25673171D02*
X6703844Y-25625552D01*
X6703844Y-25625552D02*
X6713367Y-25587457D01*
X6713367Y-25587457D02*
X6722891Y-25568409D01*
X6722891Y-25568409D02*
X6732415Y-25558885D01*
X6732415Y-25558885D02*
X6751463Y-25549361D01*
X6903844Y-25730314D02*
X6913367Y-25739838D01*
X6913367Y-25739838D02*
X6903844Y-25749361D01*
X6903844Y-25749361D02*
X6894320Y-25739838D01*
X6894320Y-25739838D02*
X6903844Y-25730314D01*
X6903844Y-25730314D02*
X6903844Y-25749361D01*
X6980034Y-25549361D02*
X7103844Y-25549361D01*
X7103844Y-25549361D02*
X7037177Y-25625552D01*
X7037177Y-25625552D02*
X7065748Y-25625552D01*
X7065748Y-25625552D02*
X7084796Y-25635076D01*
X7084796Y-25635076D02*
X7094320Y-25644599D01*
X7094320Y-25644599D02*
X7103844Y-25663647D01*
X7103844Y-25663647D02*
X7103844Y-25711266D01*
X7103844Y-25711266D02*
X7094320Y-25730314D01*
X7094320Y-25730314D02*
X7084796Y-25739838D01*
X7084796Y-25739838D02*
X7065748Y-25749361D01*
X7065748Y-25749361D02*
X7008606Y-25749361D01*
X7008606Y-25749361D02*
X6989558Y-25739838D01*
X6989558Y-25739838D02*
X6980034Y-25730314D01*
X7227653Y-25549361D02*
X7246701Y-25549361D01*
X7246701Y-25549361D02*
X7265748Y-25558885D01*
X7265748Y-25558885D02*
X7275272Y-25568409D01*
X7275272Y-25568409D02*
X7284796Y-25587457D01*
X7284796Y-25587457D02*
X7294320Y-25625552D01*
X7294320Y-25625552D02*
X7294320Y-25673171D01*
X7294320Y-25673171D02*
X7284796Y-25711266D01*
X7284796Y-25711266D02*
X7275272Y-25730314D01*
X7275272Y-25730314D02*
X7265748Y-25739838D01*
X7265748Y-25739838D02*
X7246701Y-25749361D01*
X7246701Y-25749361D02*
X7227653Y-25749361D01*
X7227653Y-25749361D02*
X7208606Y-25739838D01*
X7208606Y-25739838D02*
X7199082Y-25730314D01*
X7199082Y-25730314D02*
X7189558Y-25711266D01*
X7189558Y-25711266D02*
X7180034Y-25673171D01*
X7180034Y-25673171D02*
X7180034Y-25625552D01*
X7180034Y-25625552D02*
X7189558Y-25587457D01*
X7189558Y-25587457D02*
X7199082Y-25568409D01*
X7199082Y-25568409D02*
X7208606Y-25558885D01*
X7208606Y-25558885D02*
X7227653Y-25549361D01*
X7418129Y-25549361D02*
X7437177Y-25549361D01*
X7437177Y-25549361D02*
X7456225Y-25558885D01*
X7456225Y-25558885D02*
X7465748Y-25568409D01*
X7465748Y-25568409D02*
X7475272Y-25587457D01*
X7475272Y-25587457D02*
X7484796Y-25625552D01*
X7484796Y-25625552D02*
X7484796Y-25673171D01*
X7484796Y-25673171D02*
X7475272Y-25711266D01*
X7475272Y-25711266D02*
X7465748Y-25730314D01*
X7465748Y-25730314D02*
X7456225Y-25739838D01*
X7456225Y-25739838D02*
X7437177Y-25749361D01*
X7437177Y-25749361D02*
X7418129Y-25749361D01*
X7418129Y-25749361D02*
X7399082Y-25739838D01*
X7399082Y-25739838D02*
X7389558Y-25730314D01*
X7389558Y-25730314D02*
X7380034Y-25711266D01*
X7380034Y-25711266D02*
X7370510Y-25673171D01*
X7370510Y-25673171D02*
X7370510Y-25625552D01*
X7370510Y-25625552D02*
X7380034Y-25587457D01*
X7380034Y-25587457D02*
X7389558Y-25568409D01*
X7389558Y-25568409D02*
X7399082Y-25558885D01*
X7399082Y-25558885D02*
X7418129Y-25549361D01*
X7570510Y-25749361D02*
X7570510Y-25616028D01*
X7570510Y-25635076D02*
X7580034Y-25625552D01*
X7580034Y-25625552D02*
X7599082Y-25616028D01*
X7599082Y-25616028D02*
X7627653Y-25616028D01*
X7627653Y-25616028D02*
X7646701Y-25625552D01*
X7646701Y-25625552D02*
X7656225Y-25644599D01*
X7656225Y-25644599D02*
X7656225Y-25749361D01*
X7656225Y-25644599D02*
X7665748Y-25625552D01*
X7665748Y-25625552D02*
X7684796Y-25616028D01*
X7684796Y-25616028D02*
X7713367Y-25616028D01*
X7713367Y-25616028D02*
X7732415Y-25625552D01*
X7732415Y-25625552D02*
X7741939Y-25644599D01*
X7741939Y-25644599D02*
X7741939Y-25749361D01*
X7837177Y-25749361D02*
X7837177Y-25616028D01*
X7837177Y-25635076D02*
X7846701Y-25625552D01*
X7846701Y-25625552D02*
X7865748Y-25616028D01*
X7865748Y-25616028D02*
X7894320Y-25616028D01*
X7894320Y-25616028D02*
X7913368Y-25625552D01*
X7913368Y-25625552D02*
X7922891Y-25644599D01*
X7922891Y-25644599D02*
X7922891Y-25749361D01*
X7922891Y-25644599D02*
X7932415Y-25625552D01*
X7932415Y-25625552D02*
X7951463Y-25616028D01*
X7951463Y-25616028D02*
X7980034Y-25616028D01*
X7980034Y-25616028D02*
X7999082Y-25625552D01*
X7999082Y-25625552D02*
X8008606Y-25644599D01*
X8008606Y-25644599D02*
X8008606Y-25749361D01*
X8399082Y-25539838D02*
X8227653Y-25796980D01*
X8656225Y-25549361D02*
X8675273Y-25549361D01*
X8675273Y-25549361D02*
X8694320Y-25558885D01*
X8694320Y-25558885D02*
X8703844Y-25568409D01*
X8703844Y-25568409D02*
X8713368Y-25587457D01*
X8713368Y-25587457D02*
X8722892Y-25625552D01*
X8722892Y-25625552D02*
X8722892Y-25673171D01*
X8722892Y-25673171D02*
X8713368Y-25711266D01*
X8713368Y-25711266D02*
X8703844Y-25730314D01*
X8703844Y-25730314D02*
X8694320Y-25739838D01*
X8694320Y-25739838D02*
X8675273Y-25749361D01*
X8675273Y-25749361D02*
X8656225Y-25749361D01*
X8656225Y-25749361D02*
X8637177Y-25739838D01*
X8637177Y-25739838D02*
X8627653Y-25730314D01*
X8627653Y-25730314D02*
X8618130Y-25711266D01*
X8618130Y-25711266D02*
X8608606Y-25673171D01*
X8608606Y-25673171D02*
X8608606Y-25625552D01*
X8608606Y-25625552D02*
X8618130Y-25587457D01*
X8618130Y-25587457D02*
X8627653Y-25568409D01*
X8627653Y-25568409D02*
X8637177Y-25558885D01*
X8637177Y-25558885D02*
X8656225Y-25549361D01*
X8808606Y-25730314D02*
X8818130Y-25739838D01*
X8818130Y-25739838D02*
X8808606Y-25749361D01*
X8808606Y-25749361D02*
X8799082Y-25739838D01*
X8799082Y-25739838D02*
X8808606Y-25730314D01*
X8808606Y-25730314D02*
X8808606Y-25749361D01*
X8941939Y-25549361D02*
X8960987Y-25549361D01*
X8960987Y-25549361D02*
X8980034Y-25558885D01*
X8980034Y-25558885D02*
X8989558Y-25568409D01*
X8989558Y-25568409D02*
X8999082Y-25587457D01*
X8999082Y-25587457D02*
X9008606Y-25625552D01*
X9008606Y-25625552D02*
X9008606Y-25673171D01*
X9008606Y-25673171D02*
X8999082Y-25711266D01*
X8999082Y-25711266D02*
X8989558Y-25730314D01*
X8989558Y-25730314D02*
X8980034Y-25739838D01*
X8980034Y-25739838D02*
X8960987Y-25749361D01*
X8960987Y-25749361D02*
X8941939Y-25749361D01*
X8941939Y-25749361D02*
X8922892Y-25739838D01*
X8922892Y-25739838D02*
X8913368Y-25730314D01*
X8913368Y-25730314D02*
X8903844Y-25711266D01*
X8903844Y-25711266D02*
X8894320Y-25673171D01*
X8894320Y-25673171D02*
X8894320Y-25625552D01*
X8894320Y-25625552D02*
X8903844Y-25587457D01*
X8903844Y-25587457D02*
X8913368Y-25568409D01*
X8913368Y-25568409D02*
X8922892Y-25558885D01*
X8922892Y-25558885D02*
X8941939Y-25549361D01*
X9199082Y-25749361D02*
X9084796Y-25749361D01*
X9141939Y-25749361D02*
X9141939Y-25549361D01*
X9141939Y-25549361D02*
X9122892Y-25577933D01*
X9122892Y-25577933D02*
X9103844Y-25596980D01*
X9103844Y-25596980D02*
X9084796Y-25606504D01*
X9389558Y-25749361D02*
X9275273Y-25749361D01*
X9332415Y-25749361D02*
X9332415Y-25549361D01*
X9332415Y-25549361D02*
X9313368Y-25577933D01*
X9313368Y-25577933D02*
X9294320Y-25596980D01*
X9294320Y-25596980D02*
X9275273Y-25606504D01*
X9503844Y-25635076D02*
X9484796Y-25625552D01*
X9484796Y-25625552D02*
X9475273Y-25616028D01*
X9475273Y-25616028D02*
X9465749Y-25596980D01*
X9465749Y-25596980D02*
X9465749Y-25587457D01*
X9465749Y-25587457D02*
X9475273Y-25568409D01*
X9475273Y-25568409D02*
X9484796Y-25558885D01*
X9484796Y-25558885D02*
X9503844Y-25549361D01*
X9503844Y-25549361D02*
X9541939Y-25549361D01*
X9541939Y-25549361D02*
X9560987Y-25558885D01*
X9560987Y-25558885D02*
X9570511Y-25568409D01*
X9570511Y-25568409D02*
X9580034Y-25587457D01*
X9580034Y-25587457D02*
X9580034Y-25596980D01*
X9580034Y-25596980D02*
X9570511Y-25616028D01*
X9570511Y-25616028D02*
X9560987Y-25625552D01*
X9560987Y-25625552D02*
X9541939Y-25635076D01*
X9541939Y-25635076D02*
X9503844Y-25635076D01*
X9503844Y-25635076D02*
X9484796Y-25644599D01*
X9484796Y-25644599D02*
X9475273Y-25654123D01*
X9475273Y-25654123D02*
X9465749Y-25673171D01*
X9465749Y-25673171D02*
X9465749Y-25711266D01*
X9465749Y-25711266D02*
X9475273Y-25730314D01*
X9475273Y-25730314D02*
X9484796Y-25739838D01*
X9484796Y-25739838D02*
X9503844Y-25749361D01*
X9503844Y-25749361D02*
X9541939Y-25749361D01*
X9541939Y-25749361D02*
X9560987Y-25739838D01*
X9560987Y-25739838D02*
X9570511Y-25730314D01*
X9570511Y-25730314D02*
X9580034Y-25711266D01*
X9580034Y-25711266D02*
X9580034Y-25673171D01*
X9580034Y-25673171D02*
X9570511Y-25654123D01*
X9570511Y-25654123D02*
X9560987Y-25644599D01*
X9560987Y-25644599D02*
X9541939Y-25635076D01*
X9656225Y-25549361D02*
X9656225Y-25587457D01*
X9732415Y-25549361D02*
X9732415Y-25587457D01*
X10027654Y-25825552D02*
X10018130Y-25816028D01*
X10018130Y-25816028D02*
X9999082Y-25787457D01*
X9999082Y-25787457D02*
X9989558Y-25768409D01*
X9989558Y-25768409D02*
X9980035Y-25739838D01*
X9980035Y-25739838D02*
X9970511Y-25692218D01*
X9970511Y-25692218D02*
X9970511Y-25654123D01*
X9970511Y-25654123D02*
X9980035Y-25606504D01*
X9980035Y-25606504D02*
X9989558Y-25577933D01*
X9989558Y-25577933D02*
X9999082Y-25558885D01*
X9999082Y-25558885D02*
X10018130Y-25530314D01*
X10018130Y-25530314D02*
X10027654Y-25520790D01*
X10208606Y-25749361D02*
X10094320Y-25749361D01*
X10151463Y-25749361D02*
X10151463Y-25549361D01*
X10151463Y-25549361D02*
X10132415Y-25577933D01*
X10132415Y-25577933D02*
X10113368Y-25596980D01*
X10113368Y-25596980D02*
X10094320Y-25606504D01*
X10446701Y-25749361D02*
X10446701Y-25549361D01*
X10532416Y-25749361D02*
X10532416Y-25644599D01*
X10532416Y-25644599D02*
X10522892Y-25625552D01*
X10522892Y-25625552D02*
X10503844Y-25616028D01*
X10503844Y-25616028D02*
X10475273Y-25616028D01*
X10475273Y-25616028D02*
X10456225Y-25625552D01*
X10456225Y-25625552D02*
X10446701Y-25635076D01*
X10656225Y-25749361D02*
X10637177Y-25739838D01*
X10637177Y-25739838D02*
X10627654Y-25730314D01*
X10627654Y-25730314D02*
X10618130Y-25711266D01*
X10618130Y-25711266D02*
X10618130Y-25654123D01*
X10618130Y-25654123D02*
X10627654Y-25635076D01*
X10627654Y-25635076D02*
X10637177Y-25625552D01*
X10637177Y-25625552D02*
X10656225Y-25616028D01*
X10656225Y-25616028D02*
X10684797Y-25616028D01*
X10684797Y-25616028D02*
X10703844Y-25625552D01*
X10703844Y-25625552D02*
X10713368Y-25635076D01*
X10713368Y-25635076D02*
X10722892Y-25654123D01*
X10722892Y-25654123D02*
X10722892Y-25711266D01*
X10722892Y-25711266D02*
X10713368Y-25730314D01*
X10713368Y-25730314D02*
X10703844Y-25739838D01*
X10703844Y-25739838D02*
X10684797Y-25749361D01*
X10684797Y-25749361D02*
X10656225Y-25749361D01*
X10837177Y-25749361D02*
X10818130Y-25739838D01*
X10818130Y-25739838D02*
X10808606Y-25720790D01*
X10808606Y-25720790D02*
X10808606Y-25549361D01*
X10989558Y-25739838D02*
X10970511Y-25749361D01*
X10970511Y-25749361D02*
X10932416Y-25749361D01*
X10932416Y-25749361D02*
X10913368Y-25739838D01*
X10913368Y-25739838D02*
X10903844Y-25720790D01*
X10903844Y-25720790D02*
X10903844Y-25644599D01*
X10903844Y-25644599D02*
X10913368Y-25625552D01*
X10913368Y-25625552D02*
X10932416Y-25616028D01*
X10932416Y-25616028D02*
X10970511Y-25616028D01*
X10970511Y-25616028D02*
X10989558Y-25625552D01*
X10989558Y-25625552D02*
X10999082Y-25644599D01*
X10999082Y-25644599D02*
X10999082Y-25663647D01*
X10999082Y-25663647D02*
X10903844Y-25682695D01*
X11065749Y-25825552D02*
X11075273Y-25816028D01*
X11075273Y-25816028D02*
X11094320Y-25787457D01*
X11094320Y-25787457D02*
X11103844Y-25768409D01*
X11103844Y-25768409D02*
X11113368Y-25739838D01*
X11113368Y-25739838D02*
X11122892Y-25692218D01*
X11122892Y-25692218D02*
X11122892Y-25654123D01*
X11122892Y-25654123D02*
X11113368Y-25606504D01*
X11113368Y-25606504D02*
X11103844Y-25577933D01*
X11103844Y-25577933D02*
X11094320Y-25558885D01*
X11094320Y-25558885D02*
X11075273Y-25530314D01*
X11075273Y-25530314D02*
X11065749Y-25520790D01*
D11*
X6427591Y-25896878D02*
X6427591Y-25946878D01*
X6402591Y-25921878D02*
X6452591Y-25921878D01*
D12*
X6751463Y-25813361D02*
X6770510Y-25813361D01*
X6770510Y-25813361D02*
X6789558Y-25822885D01*
X6789558Y-25822885D02*
X6799082Y-25832409D01*
X6799082Y-25832409D02*
X6808606Y-25851457D01*
X6808606Y-25851457D02*
X6818129Y-25889552D01*
X6818129Y-25889552D02*
X6818129Y-25937171D01*
X6818129Y-25937171D02*
X6808606Y-25975266D01*
X6808606Y-25975266D02*
X6799082Y-25994314D01*
X6799082Y-25994314D02*
X6789558Y-26003838D01*
X6789558Y-26003838D02*
X6770510Y-26013361D01*
X6770510Y-26013361D02*
X6751463Y-26013361D01*
X6751463Y-26013361D02*
X6732415Y-26003838D01*
X6732415Y-26003838D02*
X6722891Y-25994314D01*
X6722891Y-25994314D02*
X6713367Y-25975266D01*
X6713367Y-25975266D02*
X6703844Y-25937171D01*
X6703844Y-25937171D02*
X6703844Y-25889552D01*
X6703844Y-25889552D02*
X6713367Y-25851457D01*
X6713367Y-25851457D02*
X6722891Y-25832409D01*
X6722891Y-25832409D02*
X6732415Y-25822885D01*
X6732415Y-25822885D02*
X6751463Y-25813361D01*
X6903844Y-25994314D02*
X6913367Y-26003838D01*
X6913367Y-26003838D02*
X6903844Y-26013361D01*
X6903844Y-26013361D02*
X6894320Y-26003838D01*
X6894320Y-26003838D02*
X6903844Y-25994314D01*
X6903844Y-25994314D02*
X6903844Y-26013361D01*
X7094320Y-25813361D02*
X6999082Y-25813361D01*
X6999082Y-25813361D02*
X6989558Y-25908599D01*
X6989558Y-25908599D02*
X6999082Y-25899076D01*
X6999082Y-25899076D02*
X7018129Y-25889552D01*
X7018129Y-25889552D02*
X7065748Y-25889552D01*
X7065748Y-25889552D02*
X7084796Y-25899076D01*
X7084796Y-25899076D02*
X7094320Y-25908599D01*
X7094320Y-25908599D02*
X7103844Y-25927647D01*
X7103844Y-25927647D02*
X7103844Y-25975266D01*
X7103844Y-25975266D02*
X7094320Y-25994314D01*
X7094320Y-25994314D02*
X7084796Y-26003838D01*
X7084796Y-26003838D02*
X7065748Y-26013361D01*
X7065748Y-26013361D02*
X7018129Y-26013361D01*
X7018129Y-26013361D02*
X6999082Y-26003838D01*
X6999082Y-26003838D02*
X6989558Y-25994314D01*
X7227653Y-25813361D02*
X7246701Y-25813361D01*
X7246701Y-25813361D02*
X7265748Y-25822885D01*
X7265748Y-25822885D02*
X7275272Y-25832409D01*
X7275272Y-25832409D02*
X7284796Y-25851457D01*
X7284796Y-25851457D02*
X7294320Y-25889552D01*
X7294320Y-25889552D02*
X7294320Y-25937171D01*
X7294320Y-25937171D02*
X7284796Y-25975266D01*
X7284796Y-25975266D02*
X7275272Y-25994314D01*
X7275272Y-25994314D02*
X7265748Y-26003838D01*
X7265748Y-26003838D02*
X7246701Y-26013361D01*
X7246701Y-26013361D02*
X7227653Y-26013361D01*
X7227653Y-26013361D02*
X7208606Y-26003838D01*
X7208606Y-26003838D02*
X7199082Y-25994314D01*
X7199082Y-25994314D02*
X7189558Y-25975266D01*
X7189558Y-25975266D02*
X7180034Y-25937171D01*
X7180034Y-25937171D02*
X7180034Y-25889552D01*
X7180034Y-25889552D02*
X7189558Y-25851457D01*
X7189558Y-25851457D02*
X7199082Y-25832409D01*
X7199082Y-25832409D02*
X7208606Y-25822885D01*
X7208606Y-25822885D02*
X7227653Y-25813361D01*
X7418129Y-25813361D02*
X7437177Y-25813361D01*
X7437177Y-25813361D02*
X7456225Y-25822885D01*
X7456225Y-25822885D02*
X7465748Y-25832409D01*
X7465748Y-25832409D02*
X7475272Y-25851457D01*
X7475272Y-25851457D02*
X7484796Y-25889552D01*
X7484796Y-25889552D02*
X7484796Y-25937171D01*
X7484796Y-25937171D02*
X7475272Y-25975266D01*
X7475272Y-25975266D02*
X7465748Y-25994314D01*
X7465748Y-25994314D02*
X7456225Y-26003838D01*
X7456225Y-26003838D02*
X7437177Y-26013361D01*
X7437177Y-26013361D02*
X7418129Y-26013361D01*
X7418129Y-26013361D02*
X7399082Y-26003838D01*
X7399082Y-26003838D02*
X7389558Y-25994314D01*
X7389558Y-25994314D02*
X7380034Y-25975266D01*
X7380034Y-25975266D02*
X7370510Y-25937171D01*
X7370510Y-25937171D02*
X7370510Y-25889552D01*
X7370510Y-25889552D02*
X7380034Y-25851457D01*
X7380034Y-25851457D02*
X7389558Y-25832409D01*
X7389558Y-25832409D02*
X7399082Y-25822885D01*
X7399082Y-25822885D02*
X7418129Y-25813361D01*
X7570510Y-26013361D02*
X7570510Y-25880028D01*
X7570510Y-25899076D02*
X7580034Y-25889552D01*
X7580034Y-25889552D02*
X7599082Y-25880028D01*
X7599082Y-25880028D02*
X7627653Y-25880028D01*
X7627653Y-25880028D02*
X7646701Y-25889552D01*
X7646701Y-25889552D02*
X7656225Y-25908599D01*
X7656225Y-25908599D02*
X7656225Y-26013361D01*
X7656225Y-25908599D02*
X7665748Y-25889552D01*
X7665748Y-25889552D02*
X7684796Y-25880028D01*
X7684796Y-25880028D02*
X7713367Y-25880028D01*
X7713367Y-25880028D02*
X7732415Y-25889552D01*
X7732415Y-25889552D02*
X7741939Y-25908599D01*
X7741939Y-25908599D02*
X7741939Y-26013361D01*
X7837177Y-26013361D02*
X7837177Y-25880028D01*
X7837177Y-25899076D02*
X7846701Y-25889552D01*
X7846701Y-25889552D02*
X7865748Y-25880028D01*
X7865748Y-25880028D02*
X7894320Y-25880028D01*
X7894320Y-25880028D02*
X7913368Y-25889552D01*
X7913368Y-25889552D02*
X7922891Y-25908599D01*
X7922891Y-25908599D02*
X7922891Y-26013361D01*
X7922891Y-25908599D02*
X7932415Y-25889552D01*
X7932415Y-25889552D02*
X7951463Y-25880028D01*
X7951463Y-25880028D02*
X7980034Y-25880028D01*
X7980034Y-25880028D02*
X7999082Y-25889552D01*
X7999082Y-25889552D02*
X8008606Y-25908599D01*
X8008606Y-25908599D02*
X8008606Y-26013361D01*
X8399082Y-25803838D02*
X8227653Y-26060980D01*
X8656225Y-25813361D02*
X8675273Y-25813361D01*
X8675273Y-25813361D02*
X8694320Y-25822885D01*
X8694320Y-25822885D02*
X8703844Y-25832409D01*
X8703844Y-25832409D02*
X8713368Y-25851457D01*
X8713368Y-25851457D02*
X8722892Y-25889552D01*
X8722892Y-25889552D02*
X8722892Y-25937171D01*
X8722892Y-25937171D02*
X8713368Y-25975266D01*
X8713368Y-25975266D02*
X8703844Y-25994314D01*
X8703844Y-25994314D02*
X8694320Y-26003838D01*
X8694320Y-26003838D02*
X8675273Y-26013361D01*
X8675273Y-26013361D02*
X8656225Y-26013361D01*
X8656225Y-26013361D02*
X8637177Y-26003838D01*
X8637177Y-26003838D02*
X8627653Y-25994314D01*
X8627653Y-25994314D02*
X8618130Y-25975266D01*
X8618130Y-25975266D02*
X8608606Y-25937171D01*
X8608606Y-25937171D02*
X8608606Y-25889552D01*
X8608606Y-25889552D02*
X8618130Y-25851457D01*
X8618130Y-25851457D02*
X8627653Y-25832409D01*
X8627653Y-25832409D02*
X8637177Y-25822885D01*
X8637177Y-25822885D02*
X8656225Y-25813361D01*
X8808606Y-25994314D02*
X8818130Y-26003838D01*
X8818130Y-26003838D02*
X8808606Y-26013361D01*
X8808606Y-26013361D02*
X8799082Y-26003838D01*
X8799082Y-26003838D02*
X8808606Y-25994314D01*
X8808606Y-25994314D02*
X8808606Y-26013361D01*
X8941939Y-25813361D02*
X8960987Y-25813361D01*
X8960987Y-25813361D02*
X8980034Y-25822885D01*
X8980034Y-25822885D02*
X8989558Y-25832409D01*
X8989558Y-25832409D02*
X8999082Y-25851457D01*
X8999082Y-25851457D02*
X9008606Y-25889552D01*
X9008606Y-25889552D02*
X9008606Y-25937171D01*
X9008606Y-25937171D02*
X8999082Y-25975266D01*
X8999082Y-25975266D02*
X8989558Y-25994314D01*
X8989558Y-25994314D02*
X8980034Y-26003838D01*
X8980034Y-26003838D02*
X8960987Y-26013361D01*
X8960987Y-26013361D02*
X8941939Y-26013361D01*
X8941939Y-26013361D02*
X8922892Y-26003838D01*
X8922892Y-26003838D02*
X8913368Y-25994314D01*
X8913368Y-25994314D02*
X8903844Y-25975266D01*
X8903844Y-25975266D02*
X8894320Y-25937171D01*
X8894320Y-25937171D02*
X8894320Y-25889552D01*
X8894320Y-25889552D02*
X8903844Y-25851457D01*
X8903844Y-25851457D02*
X8913368Y-25832409D01*
X8913368Y-25832409D02*
X8922892Y-25822885D01*
X8922892Y-25822885D02*
X8941939Y-25813361D01*
X9199082Y-26013361D02*
X9084796Y-26013361D01*
X9141939Y-26013361D02*
X9141939Y-25813361D01*
X9141939Y-25813361D02*
X9122892Y-25841933D01*
X9122892Y-25841933D02*
X9103844Y-25860980D01*
X9103844Y-25860980D02*
X9084796Y-25870504D01*
X9294320Y-26013361D02*
X9332415Y-26013361D01*
X9332415Y-26013361D02*
X9351463Y-26003838D01*
X9351463Y-26003838D02*
X9360987Y-25994314D01*
X9360987Y-25994314D02*
X9380034Y-25965742D01*
X9380034Y-25965742D02*
X9389558Y-25927647D01*
X9389558Y-25927647D02*
X9389558Y-25851457D01*
X9389558Y-25851457D02*
X9380034Y-25832409D01*
X9380034Y-25832409D02*
X9370511Y-25822885D01*
X9370511Y-25822885D02*
X9351463Y-25813361D01*
X9351463Y-25813361D02*
X9313368Y-25813361D01*
X9313368Y-25813361D02*
X9294320Y-25822885D01*
X9294320Y-25822885D02*
X9284796Y-25832409D01*
X9284796Y-25832409D02*
X9275273Y-25851457D01*
X9275273Y-25851457D02*
X9275273Y-25899076D01*
X9275273Y-25899076D02*
X9284796Y-25918123D01*
X9284796Y-25918123D02*
X9294320Y-25927647D01*
X9294320Y-25927647D02*
X9313368Y-25937171D01*
X9313368Y-25937171D02*
X9351463Y-25937171D01*
X9351463Y-25937171D02*
X9370511Y-25927647D01*
X9370511Y-25927647D02*
X9380034Y-25918123D01*
X9380034Y-25918123D02*
X9389558Y-25899076D01*
X9456225Y-25813361D02*
X9589558Y-25813361D01*
X9589558Y-25813361D02*
X9503844Y-26013361D01*
X9656225Y-25813361D02*
X9656225Y-25851457D01*
X9732415Y-25813361D02*
X9732415Y-25851457D01*
X10027654Y-26089552D02*
X10018130Y-26080028D01*
X10018130Y-26080028D02*
X9999082Y-26051457D01*
X9999082Y-26051457D02*
X9989558Y-26032409D01*
X9989558Y-26032409D02*
X9980035Y-26003838D01*
X9980035Y-26003838D02*
X9970511Y-25956218D01*
X9970511Y-25956218D02*
X9970511Y-25918123D01*
X9970511Y-25918123D02*
X9980035Y-25870504D01*
X9980035Y-25870504D02*
X9989558Y-25841933D01*
X9989558Y-25841933D02*
X9999082Y-25822885D01*
X9999082Y-25822885D02*
X10018130Y-25794314D01*
X10018130Y-25794314D02*
X10027654Y-25784790D01*
X10141939Y-25813361D02*
X10160987Y-25813361D01*
X10160987Y-25813361D02*
X10180035Y-25822885D01*
X10180035Y-25822885D02*
X10189558Y-25832409D01*
X10189558Y-25832409D02*
X10199082Y-25851457D01*
X10199082Y-25851457D02*
X10208606Y-25889552D01*
X10208606Y-25889552D02*
X10208606Y-25937171D01*
X10208606Y-25937171D02*
X10199082Y-25975266D01*
X10199082Y-25975266D02*
X10189558Y-25994314D01*
X10189558Y-25994314D02*
X10180035Y-26003838D01*
X10180035Y-26003838D02*
X10160987Y-26013361D01*
X10160987Y-26013361D02*
X10141939Y-26013361D01*
X10141939Y-26013361D02*
X10122892Y-26003838D01*
X10122892Y-26003838D02*
X10113368Y-25994314D01*
X10113368Y-25994314D02*
X10103844Y-25975266D01*
X10103844Y-25975266D02*
X10094320Y-25937171D01*
X10094320Y-25937171D02*
X10094320Y-25889552D01*
X10094320Y-25889552D02*
X10103844Y-25851457D01*
X10103844Y-25851457D02*
X10113368Y-25832409D01*
X10113368Y-25832409D02*
X10122892Y-25822885D01*
X10122892Y-25822885D02*
X10141939Y-25813361D01*
X10446701Y-26013361D02*
X10446701Y-25813361D01*
X10532416Y-26013361D02*
X10532416Y-25908599D01*
X10532416Y-25908599D02*
X10522892Y-25889552D01*
X10522892Y-25889552D02*
X10503844Y-25880028D01*
X10503844Y-25880028D02*
X10475273Y-25880028D01*
X10475273Y-25880028D02*
X10456225Y-25889552D01*
X10456225Y-25889552D02*
X10446701Y-25899076D01*
X10656225Y-26013361D02*
X10637177Y-26003838D01*
X10637177Y-26003838D02*
X10627654Y-25994314D01*
X10627654Y-25994314D02*
X10618130Y-25975266D01*
X10618130Y-25975266D02*
X10618130Y-25918123D01*
X10618130Y-25918123D02*
X10627654Y-25899076D01*
X10627654Y-25899076D02*
X10637177Y-25889552D01*
X10637177Y-25889552D02*
X10656225Y-25880028D01*
X10656225Y-25880028D02*
X10684797Y-25880028D01*
X10684797Y-25880028D02*
X10703844Y-25889552D01*
X10703844Y-25889552D02*
X10713368Y-25899076D01*
X10713368Y-25899076D02*
X10722892Y-25918123D01*
X10722892Y-25918123D02*
X10722892Y-25975266D01*
X10722892Y-25975266D02*
X10713368Y-25994314D01*
X10713368Y-25994314D02*
X10703844Y-26003838D01*
X10703844Y-26003838D02*
X10684797Y-26013361D01*
X10684797Y-26013361D02*
X10656225Y-26013361D01*
X10837177Y-26013361D02*
X10818130Y-26003838D01*
X10818130Y-26003838D02*
X10808606Y-25984790D01*
X10808606Y-25984790D02*
X10808606Y-25813361D01*
X10989558Y-26003838D02*
X10970511Y-26013361D01*
X10970511Y-26013361D02*
X10932416Y-26013361D01*
X10932416Y-26013361D02*
X10913368Y-26003838D01*
X10913368Y-26003838D02*
X10903844Y-25984790D01*
X10903844Y-25984790D02*
X10903844Y-25908599D01*
X10903844Y-25908599D02*
X10913368Y-25889552D01*
X10913368Y-25889552D02*
X10932416Y-25880028D01*
X10932416Y-25880028D02*
X10970511Y-25880028D01*
X10970511Y-25880028D02*
X10989558Y-25889552D01*
X10989558Y-25889552D02*
X10999082Y-25908599D01*
X10999082Y-25908599D02*
X10999082Y-25927647D01*
X10999082Y-25927647D02*
X10903844Y-25946695D01*
X11075273Y-26003838D02*
X11094320Y-26013361D01*
X11094320Y-26013361D02*
X11132416Y-26013361D01*
X11132416Y-26013361D02*
X11151463Y-26003838D01*
X11151463Y-26003838D02*
X11160987Y-25984790D01*
X11160987Y-25984790D02*
X11160987Y-25975266D01*
X11160987Y-25975266D02*
X11151463Y-25956218D01*
X11151463Y-25956218D02*
X11132416Y-25946695D01*
X11132416Y-25946695D02*
X11103844Y-25946695D01*
X11103844Y-25946695D02*
X11084797Y-25937171D01*
X11084797Y-25937171D02*
X11075273Y-25918123D01*
X11075273Y-25918123D02*
X11075273Y-25908599D01*
X11075273Y-25908599D02*
X11084797Y-25889552D01*
X11084797Y-25889552D02*
X11103844Y-25880028D01*
X11103844Y-25880028D02*
X11132416Y-25880028D01*
X11132416Y-25880028D02*
X11151463Y-25889552D01*
X11399082Y-25937171D02*
X11551463Y-25937171D01*
X11475273Y-26013361D02*
X11475273Y-25860980D01*
X11884797Y-25880028D02*
X11884797Y-26013361D01*
X11837177Y-25803838D02*
X11789558Y-25946695D01*
X11789558Y-25946695D02*
X11913368Y-25946695D01*
X11980035Y-25832409D02*
X11989558Y-25822885D01*
X11989558Y-25822885D02*
X12008606Y-25813361D01*
X12008606Y-25813361D02*
X12056225Y-25813361D01*
X12056225Y-25813361D02*
X12075273Y-25822885D01*
X12075273Y-25822885D02*
X12084797Y-25832409D01*
X12084797Y-25832409D02*
X12094320Y-25851457D01*
X12094320Y-25851457D02*
X12094320Y-25870504D01*
X12094320Y-25870504D02*
X12084797Y-25899076D01*
X12084797Y-25899076D02*
X11970511Y-26013361D01*
X11970511Y-26013361D02*
X12094320Y-26013361D01*
X12322892Y-26003838D02*
X12341939Y-26013361D01*
X12341939Y-26013361D02*
X12380035Y-26013361D01*
X12380035Y-26013361D02*
X12399082Y-26003838D01*
X12399082Y-26003838D02*
X12408606Y-25984790D01*
X12408606Y-25984790D02*
X12408606Y-25975266D01*
X12408606Y-25975266D02*
X12399082Y-25956218D01*
X12399082Y-25956218D02*
X12380035Y-25946695D01*
X12380035Y-25946695D02*
X12351463Y-25946695D01*
X12351463Y-25946695D02*
X12332416Y-25937171D01*
X12332416Y-25937171D02*
X12322892Y-25918123D01*
X12322892Y-25918123D02*
X12322892Y-25908599D01*
X12322892Y-25908599D02*
X12332416Y-25889552D01*
X12332416Y-25889552D02*
X12351463Y-25880028D01*
X12351463Y-25880028D02*
X12380035Y-25880028D01*
X12380035Y-25880028D02*
X12399082Y-25889552D01*
X12522892Y-26013361D02*
X12503844Y-26003838D01*
X12503844Y-26003838D02*
X12494320Y-25984790D01*
X12494320Y-25984790D02*
X12494320Y-25813361D01*
X12627654Y-26013361D02*
X12608606Y-26003838D01*
X12608606Y-26003838D02*
X12599082Y-25994314D01*
X12599082Y-25994314D02*
X12589559Y-25975266D01*
X12589559Y-25975266D02*
X12589559Y-25918123D01*
X12589559Y-25918123D02*
X12599082Y-25899076D01*
X12599082Y-25899076D02*
X12608606Y-25889552D01*
X12608606Y-25889552D02*
X12627654Y-25880028D01*
X12627654Y-25880028D02*
X12656225Y-25880028D01*
X12656225Y-25880028D02*
X12675273Y-25889552D01*
X12675273Y-25889552D02*
X12684797Y-25899076D01*
X12684797Y-25899076D02*
X12694320Y-25918123D01*
X12694320Y-25918123D02*
X12694320Y-25975266D01*
X12694320Y-25975266D02*
X12684797Y-25994314D01*
X12684797Y-25994314D02*
X12675273Y-26003838D01*
X12675273Y-26003838D02*
X12656225Y-26013361D01*
X12656225Y-26013361D02*
X12627654Y-26013361D01*
X12751463Y-25880028D02*
X12827654Y-25880028D01*
X12780035Y-25813361D02*
X12780035Y-25984790D01*
X12780035Y-25984790D02*
X12789559Y-26003838D01*
X12789559Y-26003838D02*
X12808606Y-26013361D01*
X12808606Y-26013361D02*
X12827654Y-26013361D01*
X12884797Y-26003838D02*
X12903844Y-26013361D01*
X12903844Y-26013361D02*
X12941939Y-26013361D01*
X12941939Y-26013361D02*
X12960987Y-26003838D01*
X12960987Y-26003838D02*
X12970511Y-25984790D01*
X12970511Y-25984790D02*
X12970511Y-25975266D01*
X12970511Y-25975266D02*
X12960987Y-25956218D01*
X12960987Y-25956218D02*
X12941939Y-25946695D01*
X12941939Y-25946695D02*
X12913368Y-25946695D01*
X12913368Y-25946695D02*
X12894320Y-25937171D01*
X12894320Y-25937171D02*
X12884797Y-25918123D01*
X12884797Y-25918123D02*
X12884797Y-25908599D01*
X12884797Y-25908599D02*
X12894320Y-25889552D01*
X12894320Y-25889552D02*
X12913368Y-25880028D01*
X12913368Y-25880028D02*
X12941939Y-25880028D01*
X12941939Y-25880028D02*
X12960987Y-25889552D01*
X13037178Y-26089552D02*
X13046701Y-26080028D01*
X13046701Y-26080028D02*
X13065749Y-26051457D01*
X13065749Y-26051457D02*
X13075273Y-26032409D01*
X13075273Y-26032409D02*
X13084797Y-26003838D01*
X13084797Y-26003838D02*
X13094320Y-25956218D01*
X13094320Y-25956218D02*
X13094320Y-25918123D01*
X13094320Y-25918123D02*
X13084797Y-25870504D01*
X13084797Y-25870504D02*
X13075273Y-25841933D01*
X13075273Y-25841933D02*
X13065749Y-25822885D01*
X13065749Y-25822885D02*
X13046701Y-25794314D01*
X13046701Y-25794314D02*
X13037178Y-25784790D01*
D11*
X6443804Y-26207091D02*
X6443804Y-26164664D01*
X6401377Y-26164664D01*
X6401377Y-26207091D01*
X6443804Y-26207091D01*
D12*
X6751463Y-26077361D02*
X6770510Y-26077361D01*
X6770510Y-26077361D02*
X6789558Y-26086885D01*
X6789558Y-26086885D02*
X6799082Y-26096409D01*
X6799082Y-26096409D02*
X6808606Y-26115457D01*
X6808606Y-26115457D02*
X6818129Y-26153552D01*
X6818129Y-26153552D02*
X6818129Y-26201171D01*
X6818129Y-26201171D02*
X6808606Y-26239266D01*
X6808606Y-26239266D02*
X6799082Y-26258314D01*
X6799082Y-26258314D02*
X6789558Y-26267838D01*
X6789558Y-26267838D02*
X6770510Y-26277361D01*
X6770510Y-26277361D02*
X6751463Y-26277361D01*
X6751463Y-26277361D02*
X6732415Y-26267838D01*
X6732415Y-26267838D02*
X6722891Y-26258314D01*
X6722891Y-26258314D02*
X6713367Y-26239266D01*
X6713367Y-26239266D02*
X6703844Y-26201171D01*
X6703844Y-26201171D02*
X6703844Y-26153552D01*
X6703844Y-26153552D02*
X6713367Y-26115457D01*
X6713367Y-26115457D02*
X6722891Y-26096409D01*
X6722891Y-26096409D02*
X6732415Y-26086885D01*
X6732415Y-26086885D02*
X6751463Y-26077361D01*
X6903844Y-26258314D02*
X6913367Y-26267838D01*
X6913367Y-26267838D02*
X6903844Y-26277361D01*
X6903844Y-26277361D02*
X6894320Y-26267838D01*
X6894320Y-26267838D02*
X6903844Y-26258314D01*
X6903844Y-26258314D02*
X6903844Y-26277361D01*
X7084796Y-26077361D02*
X7046701Y-26077361D01*
X7046701Y-26077361D02*
X7027653Y-26086885D01*
X7027653Y-26086885D02*
X7018129Y-26096409D01*
X7018129Y-26096409D02*
X6999082Y-26124980D01*
X6999082Y-26124980D02*
X6989558Y-26163076D01*
X6989558Y-26163076D02*
X6989558Y-26239266D01*
X6989558Y-26239266D02*
X6999082Y-26258314D01*
X6999082Y-26258314D02*
X7008606Y-26267838D01*
X7008606Y-26267838D02*
X7027653Y-26277361D01*
X7027653Y-26277361D02*
X7065748Y-26277361D01*
X7065748Y-26277361D02*
X7084796Y-26267838D01*
X7084796Y-26267838D02*
X7094320Y-26258314D01*
X7094320Y-26258314D02*
X7103844Y-26239266D01*
X7103844Y-26239266D02*
X7103844Y-26191647D01*
X7103844Y-26191647D02*
X7094320Y-26172599D01*
X7094320Y-26172599D02*
X7084796Y-26163076D01*
X7084796Y-26163076D02*
X7065748Y-26153552D01*
X7065748Y-26153552D02*
X7027653Y-26153552D01*
X7027653Y-26153552D02*
X7008606Y-26163076D01*
X7008606Y-26163076D02*
X6999082Y-26172599D01*
X6999082Y-26172599D02*
X6989558Y-26191647D01*
X7227653Y-26077361D02*
X7246701Y-26077361D01*
X7246701Y-26077361D02*
X7265748Y-26086885D01*
X7265748Y-26086885D02*
X7275272Y-26096409D01*
X7275272Y-26096409D02*
X7284796Y-26115457D01*
X7284796Y-26115457D02*
X7294320Y-26153552D01*
X7294320Y-26153552D02*
X7294320Y-26201171D01*
X7294320Y-26201171D02*
X7284796Y-26239266D01*
X7284796Y-26239266D02*
X7275272Y-26258314D01*
X7275272Y-26258314D02*
X7265748Y-26267838D01*
X7265748Y-26267838D02*
X7246701Y-26277361D01*
X7246701Y-26277361D02*
X7227653Y-26277361D01*
X7227653Y-26277361D02*
X7208606Y-26267838D01*
X7208606Y-26267838D02*
X7199082Y-26258314D01*
X7199082Y-26258314D02*
X7189558Y-26239266D01*
X7189558Y-26239266D02*
X7180034Y-26201171D01*
X7180034Y-26201171D02*
X7180034Y-26153552D01*
X7180034Y-26153552D02*
X7189558Y-26115457D01*
X7189558Y-26115457D02*
X7199082Y-26096409D01*
X7199082Y-26096409D02*
X7208606Y-26086885D01*
X7208606Y-26086885D02*
X7227653Y-26077361D01*
X7418129Y-26077361D02*
X7437177Y-26077361D01*
X7437177Y-26077361D02*
X7456225Y-26086885D01*
X7456225Y-26086885D02*
X7465748Y-26096409D01*
X7465748Y-26096409D02*
X7475272Y-26115457D01*
X7475272Y-26115457D02*
X7484796Y-26153552D01*
X7484796Y-26153552D02*
X7484796Y-26201171D01*
X7484796Y-26201171D02*
X7475272Y-26239266D01*
X7475272Y-26239266D02*
X7465748Y-26258314D01*
X7465748Y-26258314D02*
X7456225Y-26267838D01*
X7456225Y-26267838D02*
X7437177Y-26277361D01*
X7437177Y-26277361D02*
X7418129Y-26277361D01*
X7418129Y-26277361D02*
X7399082Y-26267838D01*
X7399082Y-26267838D02*
X7389558Y-26258314D01*
X7389558Y-26258314D02*
X7380034Y-26239266D01*
X7380034Y-26239266D02*
X7370510Y-26201171D01*
X7370510Y-26201171D02*
X7370510Y-26153552D01*
X7370510Y-26153552D02*
X7380034Y-26115457D01*
X7380034Y-26115457D02*
X7389558Y-26096409D01*
X7389558Y-26096409D02*
X7399082Y-26086885D01*
X7399082Y-26086885D02*
X7418129Y-26077361D01*
X7570510Y-26277361D02*
X7570510Y-26144028D01*
X7570510Y-26163076D02*
X7580034Y-26153552D01*
X7580034Y-26153552D02*
X7599082Y-26144028D01*
X7599082Y-26144028D02*
X7627653Y-26144028D01*
X7627653Y-26144028D02*
X7646701Y-26153552D01*
X7646701Y-26153552D02*
X7656225Y-26172599D01*
X7656225Y-26172599D02*
X7656225Y-26277361D01*
X7656225Y-26172599D02*
X7665748Y-26153552D01*
X7665748Y-26153552D02*
X7684796Y-26144028D01*
X7684796Y-26144028D02*
X7713367Y-26144028D01*
X7713367Y-26144028D02*
X7732415Y-26153552D01*
X7732415Y-26153552D02*
X7741939Y-26172599D01*
X7741939Y-26172599D02*
X7741939Y-26277361D01*
X7837177Y-26277361D02*
X7837177Y-26144028D01*
X7837177Y-26163076D02*
X7846701Y-26153552D01*
X7846701Y-26153552D02*
X7865748Y-26144028D01*
X7865748Y-26144028D02*
X7894320Y-26144028D01*
X7894320Y-26144028D02*
X7913368Y-26153552D01*
X7913368Y-26153552D02*
X7922891Y-26172599D01*
X7922891Y-26172599D02*
X7922891Y-26277361D01*
X7922891Y-26172599D02*
X7932415Y-26153552D01*
X7932415Y-26153552D02*
X7951463Y-26144028D01*
X7951463Y-26144028D02*
X7980034Y-26144028D01*
X7980034Y-26144028D02*
X7999082Y-26153552D01*
X7999082Y-26153552D02*
X8008606Y-26172599D01*
X8008606Y-26172599D02*
X8008606Y-26277361D01*
X8399082Y-26067838D02*
X8227653Y-26324980D01*
X8656225Y-26077361D02*
X8675273Y-26077361D01*
X8675273Y-26077361D02*
X8694320Y-26086885D01*
X8694320Y-26086885D02*
X8703844Y-26096409D01*
X8703844Y-26096409D02*
X8713368Y-26115457D01*
X8713368Y-26115457D02*
X8722892Y-26153552D01*
X8722892Y-26153552D02*
X8722892Y-26201171D01*
X8722892Y-26201171D02*
X8713368Y-26239266D01*
X8713368Y-26239266D02*
X8703844Y-26258314D01*
X8703844Y-26258314D02*
X8694320Y-26267838D01*
X8694320Y-26267838D02*
X8675273Y-26277361D01*
X8675273Y-26277361D02*
X8656225Y-26277361D01*
X8656225Y-26277361D02*
X8637177Y-26267838D01*
X8637177Y-26267838D02*
X8627653Y-26258314D01*
X8627653Y-26258314D02*
X8618130Y-26239266D01*
X8618130Y-26239266D02*
X8608606Y-26201171D01*
X8608606Y-26201171D02*
X8608606Y-26153552D01*
X8608606Y-26153552D02*
X8618130Y-26115457D01*
X8618130Y-26115457D02*
X8627653Y-26096409D01*
X8627653Y-26096409D02*
X8637177Y-26086885D01*
X8637177Y-26086885D02*
X8656225Y-26077361D01*
X8808606Y-26258314D02*
X8818130Y-26267838D01*
X8818130Y-26267838D02*
X8808606Y-26277361D01*
X8808606Y-26277361D02*
X8799082Y-26267838D01*
X8799082Y-26267838D02*
X8808606Y-26258314D01*
X8808606Y-26258314D02*
X8808606Y-26277361D01*
X8941939Y-26077361D02*
X8960987Y-26077361D01*
X8960987Y-26077361D02*
X8980034Y-26086885D01*
X8980034Y-26086885D02*
X8989558Y-26096409D01*
X8989558Y-26096409D02*
X8999082Y-26115457D01*
X8999082Y-26115457D02*
X9008606Y-26153552D01*
X9008606Y-26153552D02*
X9008606Y-26201171D01*
X9008606Y-26201171D02*
X8999082Y-26239266D01*
X8999082Y-26239266D02*
X8989558Y-26258314D01*
X8989558Y-26258314D02*
X8980034Y-26267838D01*
X8980034Y-26267838D02*
X8960987Y-26277361D01*
X8960987Y-26277361D02*
X8941939Y-26277361D01*
X8941939Y-26277361D02*
X8922892Y-26267838D01*
X8922892Y-26267838D02*
X8913368Y-26258314D01*
X8913368Y-26258314D02*
X8903844Y-26239266D01*
X8903844Y-26239266D02*
X8894320Y-26201171D01*
X8894320Y-26201171D02*
X8894320Y-26153552D01*
X8894320Y-26153552D02*
X8903844Y-26115457D01*
X8903844Y-26115457D02*
X8913368Y-26096409D01*
X8913368Y-26096409D02*
X8922892Y-26086885D01*
X8922892Y-26086885D02*
X8941939Y-26077361D01*
X9084796Y-26096409D02*
X9094320Y-26086885D01*
X9094320Y-26086885D02*
X9113368Y-26077361D01*
X9113368Y-26077361D02*
X9160987Y-26077361D01*
X9160987Y-26077361D02*
X9180034Y-26086885D01*
X9180034Y-26086885D02*
X9189558Y-26096409D01*
X9189558Y-26096409D02*
X9199082Y-26115457D01*
X9199082Y-26115457D02*
X9199082Y-26134504D01*
X9199082Y-26134504D02*
X9189558Y-26163076D01*
X9189558Y-26163076D02*
X9075273Y-26277361D01*
X9075273Y-26277361D02*
X9199082Y-26277361D01*
X9265749Y-26077361D02*
X9389558Y-26077361D01*
X9389558Y-26077361D02*
X9322892Y-26153552D01*
X9322892Y-26153552D02*
X9351463Y-26153552D01*
X9351463Y-26153552D02*
X9370511Y-26163076D01*
X9370511Y-26163076D02*
X9380034Y-26172599D01*
X9380034Y-26172599D02*
X9389558Y-26191647D01*
X9389558Y-26191647D02*
X9389558Y-26239266D01*
X9389558Y-26239266D02*
X9380034Y-26258314D01*
X9380034Y-26258314D02*
X9370511Y-26267838D01*
X9370511Y-26267838D02*
X9351463Y-26277361D01*
X9351463Y-26277361D02*
X9294320Y-26277361D01*
X9294320Y-26277361D02*
X9275273Y-26267838D01*
X9275273Y-26267838D02*
X9265749Y-26258314D01*
X9560987Y-26077361D02*
X9522892Y-26077361D01*
X9522892Y-26077361D02*
X9503844Y-26086885D01*
X9503844Y-26086885D02*
X9494320Y-26096409D01*
X9494320Y-26096409D02*
X9475273Y-26124980D01*
X9475273Y-26124980D02*
X9465749Y-26163076D01*
X9465749Y-26163076D02*
X9465749Y-26239266D01*
X9465749Y-26239266D02*
X9475273Y-26258314D01*
X9475273Y-26258314D02*
X9484796Y-26267838D01*
X9484796Y-26267838D02*
X9503844Y-26277361D01*
X9503844Y-26277361D02*
X9541939Y-26277361D01*
X9541939Y-26277361D02*
X9560987Y-26267838D01*
X9560987Y-26267838D02*
X9570511Y-26258314D01*
X9570511Y-26258314D02*
X9580034Y-26239266D01*
X9580034Y-26239266D02*
X9580034Y-26191647D01*
X9580034Y-26191647D02*
X9570511Y-26172599D01*
X9570511Y-26172599D02*
X9560987Y-26163076D01*
X9560987Y-26163076D02*
X9541939Y-26153552D01*
X9541939Y-26153552D02*
X9503844Y-26153552D01*
X9503844Y-26153552D02*
X9484796Y-26163076D01*
X9484796Y-26163076D02*
X9475273Y-26172599D01*
X9475273Y-26172599D02*
X9465749Y-26191647D01*
X9656225Y-26077361D02*
X9656225Y-26115457D01*
X9732415Y-26077361D02*
X9732415Y-26115457D01*
X10027654Y-26353552D02*
X10018130Y-26344028D01*
X10018130Y-26344028D02*
X9999082Y-26315457D01*
X9999082Y-26315457D02*
X9989558Y-26296409D01*
X9989558Y-26296409D02*
X9980035Y-26267838D01*
X9980035Y-26267838D02*
X9970511Y-26220218D01*
X9970511Y-26220218D02*
X9970511Y-26182123D01*
X9970511Y-26182123D02*
X9980035Y-26134504D01*
X9980035Y-26134504D02*
X9989558Y-26105933D01*
X9989558Y-26105933D02*
X9999082Y-26086885D01*
X9999082Y-26086885D02*
X10018130Y-26058314D01*
X10018130Y-26058314D02*
X10027654Y-26048790D01*
X10141939Y-26077361D02*
X10160987Y-26077361D01*
X10160987Y-26077361D02*
X10180035Y-26086885D01*
X10180035Y-26086885D02*
X10189558Y-26096409D01*
X10189558Y-26096409D02*
X10199082Y-26115457D01*
X10199082Y-26115457D02*
X10208606Y-26153552D01*
X10208606Y-26153552D02*
X10208606Y-26201171D01*
X10208606Y-26201171D02*
X10199082Y-26239266D01*
X10199082Y-26239266D02*
X10189558Y-26258314D01*
X10189558Y-26258314D02*
X10180035Y-26267838D01*
X10180035Y-26267838D02*
X10160987Y-26277361D01*
X10160987Y-26277361D02*
X10141939Y-26277361D01*
X10141939Y-26277361D02*
X10122892Y-26267838D01*
X10122892Y-26267838D02*
X10113368Y-26258314D01*
X10113368Y-26258314D02*
X10103844Y-26239266D01*
X10103844Y-26239266D02*
X10094320Y-26201171D01*
X10094320Y-26201171D02*
X10094320Y-26153552D01*
X10094320Y-26153552D02*
X10103844Y-26115457D01*
X10103844Y-26115457D02*
X10113368Y-26096409D01*
X10113368Y-26096409D02*
X10122892Y-26086885D01*
X10122892Y-26086885D02*
X10141939Y-26077361D01*
X10446701Y-26277361D02*
X10446701Y-26077361D01*
X10532416Y-26277361D02*
X10532416Y-26172599D01*
X10532416Y-26172599D02*
X10522892Y-26153552D01*
X10522892Y-26153552D02*
X10503844Y-26144028D01*
X10503844Y-26144028D02*
X10475273Y-26144028D01*
X10475273Y-26144028D02*
X10456225Y-26153552D01*
X10456225Y-26153552D02*
X10446701Y-26163076D01*
X10656225Y-26277361D02*
X10637177Y-26267838D01*
X10637177Y-26267838D02*
X10627654Y-26258314D01*
X10627654Y-26258314D02*
X10618130Y-26239266D01*
X10618130Y-26239266D02*
X10618130Y-26182123D01*
X10618130Y-26182123D02*
X10627654Y-26163076D01*
X10627654Y-26163076D02*
X10637177Y-26153552D01*
X10637177Y-26153552D02*
X10656225Y-26144028D01*
X10656225Y-26144028D02*
X10684797Y-26144028D01*
X10684797Y-26144028D02*
X10703844Y-26153552D01*
X10703844Y-26153552D02*
X10713368Y-26163076D01*
X10713368Y-26163076D02*
X10722892Y-26182123D01*
X10722892Y-26182123D02*
X10722892Y-26239266D01*
X10722892Y-26239266D02*
X10713368Y-26258314D01*
X10713368Y-26258314D02*
X10703844Y-26267838D01*
X10703844Y-26267838D02*
X10684797Y-26277361D01*
X10684797Y-26277361D02*
X10656225Y-26277361D01*
X10837177Y-26277361D02*
X10818130Y-26267838D01*
X10818130Y-26267838D02*
X10808606Y-26248790D01*
X10808606Y-26248790D02*
X10808606Y-26077361D01*
X10989558Y-26267838D02*
X10970511Y-26277361D01*
X10970511Y-26277361D02*
X10932416Y-26277361D01*
X10932416Y-26277361D02*
X10913368Y-26267838D01*
X10913368Y-26267838D02*
X10903844Y-26248790D01*
X10903844Y-26248790D02*
X10903844Y-26172599D01*
X10903844Y-26172599D02*
X10913368Y-26153552D01*
X10913368Y-26153552D02*
X10932416Y-26144028D01*
X10932416Y-26144028D02*
X10970511Y-26144028D01*
X10970511Y-26144028D02*
X10989558Y-26153552D01*
X10989558Y-26153552D02*
X10999082Y-26172599D01*
X10999082Y-26172599D02*
X10999082Y-26191647D01*
X10999082Y-26191647D02*
X10903844Y-26210695D01*
X11075273Y-26267838D02*
X11094320Y-26277361D01*
X11094320Y-26277361D02*
X11132416Y-26277361D01*
X11132416Y-26277361D02*
X11151463Y-26267838D01*
X11151463Y-26267838D02*
X11160987Y-26248790D01*
X11160987Y-26248790D02*
X11160987Y-26239266D01*
X11160987Y-26239266D02*
X11151463Y-26220218D01*
X11151463Y-26220218D02*
X11132416Y-26210695D01*
X11132416Y-26210695D02*
X11103844Y-26210695D01*
X11103844Y-26210695D02*
X11084797Y-26201171D01*
X11084797Y-26201171D02*
X11075273Y-26182123D01*
X11075273Y-26182123D02*
X11075273Y-26172599D01*
X11075273Y-26172599D02*
X11084797Y-26153552D01*
X11084797Y-26153552D02*
X11103844Y-26144028D01*
X11103844Y-26144028D02*
X11132416Y-26144028D01*
X11132416Y-26144028D02*
X11151463Y-26153552D01*
X11399082Y-26201171D02*
X11551463Y-26201171D01*
X11475273Y-26277361D02*
X11475273Y-26124980D01*
X11884797Y-26144028D02*
X11884797Y-26277361D01*
X11837177Y-26067838D02*
X11789558Y-26210695D01*
X11789558Y-26210695D02*
X11913368Y-26210695D01*
X12132416Y-26267838D02*
X12151463Y-26277361D01*
X12151463Y-26277361D02*
X12189558Y-26277361D01*
X12189558Y-26277361D02*
X12208606Y-26267838D01*
X12208606Y-26267838D02*
X12218130Y-26248790D01*
X12218130Y-26248790D02*
X12218130Y-26239266D01*
X12218130Y-26239266D02*
X12208606Y-26220218D01*
X12208606Y-26220218D02*
X12189558Y-26210695D01*
X12189558Y-26210695D02*
X12160987Y-26210695D01*
X12160987Y-26210695D02*
X12141939Y-26201171D01*
X12141939Y-26201171D02*
X12132416Y-26182123D01*
X12132416Y-26182123D02*
X12132416Y-26172599D01*
X12132416Y-26172599D02*
X12141939Y-26153552D01*
X12141939Y-26153552D02*
X12160987Y-26144028D01*
X12160987Y-26144028D02*
X12189558Y-26144028D01*
X12189558Y-26144028D02*
X12208606Y-26153552D01*
X12332416Y-26277361D02*
X12313368Y-26267838D01*
X12313368Y-26267838D02*
X12303844Y-26248790D01*
X12303844Y-26248790D02*
X12303844Y-26077361D01*
X12437178Y-26277361D02*
X12418130Y-26267838D01*
X12418130Y-26267838D02*
X12408606Y-26258314D01*
X12408606Y-26258314D02*
X12399082Y-26239266D01*
X12399082Y-26239266D02*
X12399082Y-26182123D01*
X12399082Y-26182123D02*
X12408606Y-26163076D01*
X12408606Y-26163076D02*
X12418130Y-26153552D01*
X12418130Y-26153552D02*
X12437178Y-26144028D01*
X12437178Y-26144028D02*
X12465749Y-26144028D01*
X12465749Y-26144028D02*
X12484797Y-26153552D01*
X12484797Y-26153552D02*
X12494320Y-26163076D01*
X12494320Y-26163076D02*
X12503844Y-26182123D01*
X12503844Y-26182123D02*
X12503844Y-26239266D01*
X12503844Y-26239266D02*
X12494320Y-26258314D01*
X12494320Y-26258314D02*
X12484797Y-26267838D01*
X12484797Y-26267838D02*
X12465749Y-26277361D01*
X12465749Y-26277361D02*
X12437178Y-26277361D01*
X12560987Y-26144028D02*
X12637178Y-26144028D01*
X12589559Y-26077361D02*
X12589559Y-26248790D01*
X12589559Y-26248790D02*
X12599082Y-26267838D01*
X12599082Y-26267838D02*
X12618130Y-26277361D01*
X12618130Y-26277361D02*
X12637178Y-26277361D01*
X12694320Y-26267838D02*
X12713368Y-26277361D01*
X12713368Y-26277361D02*
X12751463Y-26277361D01*
X12751463Y-26277361D02*
X12770511Y-26267838D01*
X12770511Y-26267838D02*
X12780035Y-26248790D01*
X12780035Y-26248790D02*
X12780035Y-26239266D01*
X12780035Y-26239266D02*
X12770511Y-26220218D01*
X12770511Y-26220218D02*
X12751463Y-26210695D01*
X12751463Y-26210695D02*
X12722892Y-26210695D01*
X12722892Y-26210695D02*
X12703844Y-26201171D01*
X12703844Y-26201171D02*
X12694320Y-26182123D01*
X12694320Y-26182123D02*
X12694320Y-26172599D01*
X12694320Y-26172599D02*
X12703844Y-26153552D01*
X12703844Y-26153552D02*
X12722892Y-26144028D01*
X12722892Y-26144028D02*
X12751463Y-26144028D01*
X12751463Y-26144028D02*
X12770511Y-26153552D01*
X12846701Y-26353552D02*
X12856225Y-26344028D01*
X12856225Y-26344028D02*
X12875273Y-26315457D01*
X12875273Y-26315457D02*
X12884797Y-26296409D01*
X12884797Y-26296409D02*
X12894320Y-26267838D01*
X12894320Y-26267838D02*
X12903844Y-26220218D01*
X12903844Y-26220218D02*
X12903844Y-26182123D01*
X12903844Y-26182123D02*
X12894320Y-26134504D01*
X12894320Y-26134504D02*
X12884797Y-26105933D01*
X12884797Y-26105933D02*
X12875273Y-26086885D01*
X12875273Y-26086885D02*
X12856225Y-26058314D01*
X12856225Y-26058314D02*
X12846701Y-26048790D01*
D11*
X6402591Y-26499878D02*
X6452591Y-26449878D01*
X6402591Y-26399878D01*
X6352591Y-26449878D01*
X6402591Y-26499878D01*
D12*
X6818129Y-26541361D02*
X6703844Y-26541361D01*
X6760986Y-26541361D02*
X6760986Y-26341361D01*
X6760986Y-26341361D02*
X6741939Y-26369933D01*
X6741939Y-26369933D02*
X6722891Y-26388980D01*
X6722891Y-26388980D02*
X6703844Y-26398504D01*
X6903844Y-26522314D02*
X6913367Y-26531838D01*
X6913367Y-26531838D02*
X6903844Y-26541361D01*
X6903844Y-26541361D02*
X6894320Y-26531838D01*
X6894320Y-26531838D02*
X6903844Y-26522314D01*
X6903844Y-26522314D02*
X6903844Y-26541361D01*
X7037177Y-26341361D02*
X7056225Y-26341361D01*
X7056225Y-26341361D02*
X7075272Y-26350885D01*
X7075272Y-26350885D02*
X7084796Y-26360409D01*
X7084796Y-26360409D02*
X7094320Y-26379457D01*
X7094320Y-26379457D02*
X7103844Y-26417552D01*
X7103844Y-26417552D02*
X7103844Y-26465171D01*
X7103844Y-26465171D02*
X7094320Y-26503266D01*
X7094320Y-26503266D02*
X7084796Y-26522314D01*
X7084796Y-26522314D02*
X7075272Y-26531838D01*
X7075272Y-26531838D02*
X7056225Y-26541361D01*
X7056225Y-26541361D02*
X7037177Y-26541361D01*
X7037177Y-26541361D02*
X7018129Y-26531838D01*
X7018129Y-26531838D02*
X7008606Y-26522314D01*
X7008606Y-26522314D02*
X6999082Y-26503266D01*
X6999082Y-26503266D02*
X6989558Y-26465171D01*
X6989558Y-26465171D02*
X6989558Y-26417552D01*
X6989558Y-26417552D02*
X6999082Y-26379457D01*
X6999082Y-26379457D02*
X7008606Y-26360409D01*
X7008606Y-26360409D02*
X7018129Y-26350885D01*
X7018129Y-26350885D02*
X7037177Y-26341361D01*
X7227653Y-26341361D02*
X7246701Y-26341361D01*
X7246701Y-26341361D02*
X7265748Y-26350885D01*
X7265748Y-26350885D02*
X7275272Y-26360409D01*
X7275272Y-26360409D02*
X7284796Y-26379457D01*
X7284796Y-26379457D02*
X7294320Y-26417552D01*
X7294320Y-26417552D02*
X7294320Y-26465171D01*
X7294320Y-26465171D02*
X7284796Y-26503266D01*
X7284796Y-26503266D02*
X7275272Y-26522314D01*
X7275272Y-26522314D02*
X7265748Y-26531838D01*
X7265748Y-26531838D02*
X7246701Y-26541361D01*
X7246701Y-26541361D02*
X7227653Y-26541361D01*
X7227653Y-26541361D02*
X7208606Y-26531838D01*
X7208606Y-26531838D02*
X7199082Y-26522314D01*
X7199082Y-26522314D02*
X7189558Y-26503266D01*
X7189558Y-26503266D02*
X7180034Y-26465171D01*
X7180034Y-26465171D02*
X7180034Y-26417552D01*
X7180034Y-26417552D02*
X7189558Y-26379457D01*
X7189558Y-26379457D02*
X7199082Y-26360409D01*
X7199082Y-26360409D02*
X7208606Y-26350885D01*
X7208606Y-26350885D02*
X7227653Y-26341361D01*
X7418129Y-26341361D02*
X7437177Y-26341361D01*
X7437177Y-26341361D02*
X7456225Y-26350885D01*
X7456225Y-26350885D02*
X7465748Y-26360409D01*
X7465748Y-26360409D02*
X7475272Y-26379457D01*
X7475272Y-26379457D02*
X7484796Y-26417552D01*
X7484796Y-26417552D02*
X7484796Y-26465171D01*
X7484796Y-26465171D02*
X7475272Y-26503266D01*
X7475272Y-26503266D02*
X7465748Y-26522314D01*
X7465748Y-26522314D02*
X7456225Y-26531838D01*
X7456225Y-26531838D02*
X7437177Y-26541361D01*
X7437177Y-26541361D02*
X7418129Y-26541361D01*
X7418129Y-26541361D02*
X7399082Y-26531838D01*
X7399082Y-26531838D02*
X7389558Y-26522314D01*
X7389558Y-26522314D02*
X7380034Y-26503266D01*
X7380034Y-26503266D02*
X7370510Y-26465171D01*
X7370510Y-26465171D02*
X7370510Y-26417552D01*
X7370510Y-26417552D02*
X7380034Y-26379457D01*
X7380034Y-26379457D02*
X7389558Y-26360409D01*
X7389558Y-26360409D02*
X7399082Y-26350885D01*
X7399082Y-26350885D02*
X7418129Y-26341361D01*
X7570510Y-26541361D02*
X7570510Y-26408028D01*
X7570510Y-26427076D02*
X7580034Y-26417552D01*
X7580034Y-26417552D02*
X7599082Y-26408028D01*
X7599082Y-26408028D02*
X7627653Y-26408028D01*
X7627653Y-26408028D02*
X7646701Y-26417552D01*
X7646701Y-26417552D02*
X7656225Y-26436599D01*
X7656225Y-26436599D02*
X7656225Y-26541361D01*
X7656225Y-26436599D02*
X7665748Y-26417552D01*
X7665748Y-26417552D02*
X7684796Y-26408028D01*
X7684796Y-26408028D02*
X7713367Y-26408028D01*
X7713367Y-26408028D02*
X7732415Y-26417552D01*
X7732415Y-26417552D02*
X7741939Y-26436599D01*
X7741939Y-26436599D02*
X7741939Y-26541361D01*
X7837177Y-26541361D02*
X7837177Y-26408028D01*
X7837177Y-26427076D02*
X7846701Y-26417552D01*
X7846701Y-26417552D02*
X7865748Y-26408028D01*
X7865748Y-26408028D02*
X7894320Y-26408028D01*
X7894320Y-26408028D02*
X7913368Y-26417552D01*
X7913368Y-26417552D02*
X7922891Y-26436599D01*
X7922891Y-26436599D02*
X7922891Y-26541361D01*
X7922891Y-26436599D02*
X7932415Y-26417552D01*
X7932415Y-26417552D02*
X7951463Y-26408028D01*
X7951463Y-26408028D02*
X7980034Y-26408028D01*
X7980034Y-26408028D02*
X7999082Y-26417552D01*
X7999082Y-26417552D02*
X8008606Y-26436599D01*
X8008606Y-26436599D02*
X8008606Y-26541361D01*
X8399082Y-26331838D02*
X8227653Y-26588980D01*
X8656225Y-26341361D02*
X8675273Y-26341361D01*
X8675273Y-26341361D02*
X8694320Y-26350885D01*
X8694320Y-26350885D02*
X8703844Y-26360409D01*
X8703844Y-26360409D02*
X8713368Y-26379457D01*
X8713368Y-26379457D02*
X8722892Y-26417552D01*
X8722892Y-26417552D02*
X8722892Y-26465171D01*
X8722892Y-26465171D02*
X8713368Y-26503266D01*
X8713368Y-26503266D02*
X8703844Y-26522314D01*
X8703844Y-26522314D02*
X8694320Y-26531838D01*
X8694320Y-26531838D02*
X8675273Y-26541361D01*
X8675273Y-26541361D02*
X8656225Y-26541361D01*
X8656225Y-26541361D02*
X8637177Y-26531838D01*
X8637177Y-26531838D02*
X8627653Y-26522314D01*
X8627653Y-26522314D02*
X8618130Y-26503266D01*
X8618130Y-26503266D02*
X8608606Y-26465171D01*
X8608606Y-26465171D02*
X8608606Y-26417552D01*
X8608606Y-26417552D02*
X8618130Y-26379457D01*
X8618130Y-26379457D02*
X8627653Y-26360409D01*
X8627653Y-26360409D02*
X8637177Y-26350885D01*
X8637177Y-26350885D02*
X8656225Y-26341361D01*
X8808606Y-26522314D02*
X8818130Y-26531838D01*
X8818130Y-26531838D02*
X8808606Y-26541361D01*
X8808606Y-26541361D02*
X8799082Y-26531838D01*
X8799082Y-26531838D02*
X8808606Y-26522314D01*
X8808606Y-26522314D02*
X8808606Y-26541361D01*
X8941939Y-26341361D02*
X8960987Y-26341361D01*
X8960987Y-26341361D02*
X8980034Y-26350885D01*
X8980034Y-26350885D02*
X8989558Y-26360409D01*
X8989558Y-26360409D02*
X8999082Y-26379457D01*
X8999082Y-26379457D02*
X9008606Y-26417552D01*
X9008606Y-26417552D02*
X9008606Y-26465171D01*
X9008606Y-26465171D02*
X8999082Y-26503266D01*
X8999082Y-26503266D02*
X8989558Y-26522314D01*
X8989558Y-26522314D02*
X8980034Y-26531838D01*
X8980034Y-26531838D02*
X8960987Y-26541361D01*
X8960987Y-26541361D02*
X8941939Y-26541361D01*
X8941939Y-26541361D02*
X8922892Y-26531838D01*
X8922892Y-26531838D02*
X8913368Y-26522314D01*
X8913368Y-26522314D02*
X8903844Y-26503266D01*
X8903844Y-26503266D02*
X8894320Y-26465171D01*
X8894320Y-26465171D02*
X8894320Y-26417552D01*
X8894320Y-26417552D02*
X8903844Y-26379457D01*
X8903844Y-26379457D02*
X8913368Y-26360409D01*
X8913368Y-26360409D02*
X8922892Y-26350885D01*
X8922892Y-26350885D02*
X8941939Y-26341361D01*
X9075273Y-26341361D02*
X9199082Y-26341361D01*
X9199082Y-26341361D02*
X9132415Y-26417552D01*
X9132415Y-26417552D02*
X9160987Y-26417552D01*
X9160987Y-26417552D02*
X9180034Y-26427076D01*
X9180034Y-26427076D02*
X9189558Y-26436599D01*
X9189558Y-26436599D02*
X9199082Y-26455647D01*
X9199082Y-26455647D02*
X9199082Y-26503266D01*
X9199082Y-26503266D02*
X9189558Y-26522314D01*
X9189558Y-26522314D02*
X9180034Y-26531838D01*
X9180034Y-26531838D02*
X9160987Y-26541361D01*
X9160987Y-26541361D02*
X9103844Y-26541361D01*
X9103844Y-26541361D02*
X9084796Y-26531838D01*
X9084796Y-26531838D02*
X9075273Y-26522314D01*
X9294320Y-26541361D02*
X9332415Y-26541361D01*
X9332415Y-26541361D02*
X9351463Y-26531838D01*
X9351463Y-26531838D02*
X9360987Y-26522314D01*
X9360987Y-26522314D02*
X9380034Y-26493742D01*
X9380034Y-26493742D02*
X9389558Y-26455647D01*
X9389558Y-26455647D02*
X9389558Y-26379457D01*
X9389558Y-26379457D02*
X9380034Y-26360409D01*
X9380034Y-26360409D02*
X9370511Y-26350885D01*
X9370511Y-26350885D02*
X9351463Y-26341361D01*
X9351463Y-26341361D02*
X9313368Y-26341361D01*
X9313368Y-26341361D02*
X9294320Y-26350885D01*
X9294320Y-26350885D02*
X9284796Y-26360409D01*
X9284796Y-26360409D02*
X9275273Y-26379457D01*
X9275273Y-26379457D02*
X9275273Y-26427076D01*
X9275273Y-26427076D02*
X9284796Y-26446123D01*
X9284796Y-26446123D02*
X9294320Y-26455647D01*
X9294320Y-26455647D02*
X9313368Y-26465171D01*
X9313368Y-26465171D02*
X9351463Y-26465171D01*
X9351463Y-26465171D02*
X9370511Y-26455647D01*
X9370511Y-26455647D02*
X9380034Y-26446123D01*
X9380034Y-26446123D02*
X9389558Y-26427076D01*
X9560987Y-26408028D02*
X9560987Y-26541361D01*
X9513368Y-26331838D02*
X9465749Y-26474695D01*
X9465749Y-26474695D02*
X9589558Y-26474695D01*
X9656225Y-26341361D02*
X9656225Y-26379457D01*
X9732415Y-26341361D02*
X9732415Y-26379457D01*
X10027654Y-26617552D02*
X10018130Y-26608028D01*
X10018130Y-26608028D02*
X9999082Y-26579457D01*
X9999082Y-26579457D02*
X9989558Y-26560409D01*
X9989558Y-26560409D02*
X9980035Y-26531838D01*
X9980035Y-26531838D02*
X9970511Y-26484218D01*
X9970511Y-26484218D02*
X9970511Y-26446123D01*
X9970511Y-26446123D02*
X9980035Y-26398504D01*
X9980035Y-26398504D02*
X9989558Y-26369933D01*
X9989558Y-26369933D02*
X9999082Y-26350885D01*
X9999082Y-26350885D02*
X10018130Y-26322314D01*
X10018130Y-26322314D02*
X10027654Y-26312790D01*
X10208606Y-26541361D02*
X10094320Y-26541361D01*
X10151463Y-26541361D02*
X10151463Y-26341361D01*
X10151463Y-26341361D02*
X10132415Y-26369933D01*
X10132415Y-26369933D02*
X10113368Y-26388980D01*
X10113368Y-26388980D02*
X10094320Y-26398504D01*
X10284796Y-26360409D02*
X10294320Y-26350885D01*
X10294320Y-26350885D02*
X10313368Y-26341361D01*
X10313368Y-26341361D02*
X10360987Y-26341361D01*
X10360987Y-26341361D02*
X10380035Y-26350885D01*
X10380035Y-26350885D02*
X10389558Y-26360409D01*
X10389558Y-26360409D02*
X10399082Y-26379457D01*
X10399082Y-26379457D02*
X10399082Y-26398504D01*
X10399082Y-26398504D02*
X10389558Y-26427076D01*
X10389558Y-26427076D02*
X10275273Y-26541361D01*
X10275273Y-26541361D02*
X10399082Y-26541361D01*
X10637177Y-26541361D02*
X10637177Y-26341361D01*
X10722892Y-26541361D02*
X10722892Y-26436599D01*
X10722892Y-26436599D02*
X10713368Y-26417552D01*
X10713368Y-26417552D02*
X10694320Y-26408028D01*
X10694320Y-26408028D02*
X10665749Y-26408028D01*
X10665749Y-26408028D02*
X10646701Y-26417552D01*
X10646701Y-26417552D02*
X10637177Y-26427076D01*
X10846701Y-26541361D02*
X10827654Y-26531838D01*
X10827654Y-26531838D02*
X10818130Y-26522314D01*
X10818130Y-26522314D02*
X10808606Y-26503266D01*
X10808606Y-26503266D02*
X10808606Y-26446123D01*
X10808606Y-26446123D02*
X10818130Y-26427076D01*
X10818130Y-26427076D02*
X10827654Y-26417552D01*
X10827654Y-26417552D02*
X10846701Y-26408028D01*
X10846701Y-26408028D02*
X10875273Y-26408028D01*
X10875273Y-26408028D02*
X10894320Y-26417552D01*
X10894320Y-26417552D02*
X10903844Y-26427076D01*
X10903844Y-26427076D02*
X10913368Y-26446123D01*
X10913368Y-26446123D02*
X10913368Y-26503266D01*
X10913368Y-26503266D02*
X10903844Y-26522314D01*
X10903844Y-26522314D02*
X10894320Y-26531838D01*
X10894320Y-26531838D02*
X10875273Y-26541361D01*
X10875273Y-26541361D02*
X10846701Y-26541361D01*
X11027654Y-26541361D02*
X11008606Y-26531838D01*
X11008606Y-26531838D02*
X10999082Y-26512790D01*
X10999082Y-26512790D02*
X10999082Y-26341361D01*
X11180035Y-26531838D02*
X11160987Y-26541361D01*
X11160987Y-26541361D02*
X11122892Y-26541361D01*
X11122892Y-26541361D02*
X11103844Y-26531838D01*
X11103844Y-26531838D02*
X11094320Y-26512790D01*
X11094320Y-26512790D02*
X11094320Y-26436599D01*
X11094320Y-26436599D02*
X11103844Y-26417552D01*
X11103844Y-26417552D02*
X11122892Y-26408028D01*
X11122892Y-26408028D02*
X11160987Y-26408028D01*
X11160987Y-26408028D02*
X11180035Y-26417552D01*
X11180035Y-26417552D02*
X11189558Y-26436599D01*
X11189558Y-26436599D02*
X11189558Y-26455647D01*
X11189558Y-26455647D02*
X11094320Y-26474695D01*
X11265749Y-26531838D02*
X11284796Y-26541361D01*
X11284796Y-26541361D02*
X11322892Y-26541361D01*
X11322892Y-26541361D02*
X11341939Y-26531838D01*
X11341939Y-26531838D02*
X11351463Y-26512790D01*
X11351463Y-26512790D02*
X11351463Y-26503266D01*
X11351463Y-26503266D02*
X11341939Y-26484218D01*
X11341939Y-26484218D02*
X11322892Y-26474695D01*
X11322892Y-26474695D02*
X11294320Y-26474695D01*
X11294320Y-26474695D02*
X11275273Y-26465171D01*
X11275273Y-26465171D02*
X11265749Y-26446123D01*
X11265749Y-26446123D02*
X11265749Y-26436599D01*
X11265749Y-26436599D02*
X11275273Y-26417552D01*
X11275273Y-26417552D02*
X11294320Y-26408028D01*
X11294320Y-26408028D02*
X11322892Y-26408028D01*
X11322892Y-26408028D02*
X11341939Y-26417552D01*
X11418130Y-26617552D02*
X11427654Y-26608028D01*
X11427654Y-26608028D02*
X11446701Y-26579457D01*
X11446701Y-26579457D02*
X11456225Y-26560409D01*
X11456225Y-26560409D02*
X11465749Y-26531838D01*
X11465749Y-26531838D02*
X11475273Y-26484218D01*
X11475273Y-26484218D02*
X11475273Y-26446123D01*
X11475273Y-26446123D02*
X11465749Y-26398504D01*
X11465749Y-26398504D02*
X11456225Y-26369933D01*
X11456225Y-26369933D02*
X11446701Y-26350885D01*
X11446701Y-26350885D02*
X11427654Y-26322314D01*
X11427654Y-26322314D02*
X11418130Y-26312790D01*
M02*
