0
SECTION
2
HEADER
9
$INSUNITS
70
4
0
ENDSEC
0
SECTION
2
TABLES
0
TABLE
2
LTYPE
0
LTYPE
72
65
70
64
2
CONTINUOUS
3
______
73
0
40
0
0
ENDTAB
0
TABLE
2
LAYER
0
ENDTAB
0
ENDSEC
0
SECTION
2
ENTITIES
0
LINE
8
0
10
-14.063563
20
-6.0248994
11
0.7762074
21
49.3578777
0
LINE
8
0
10
3.4755127
20
51.5748482
11
48.0279256
21
54.5287928
0
LINE
8
0
10
48.454438
20
54.5266856
11
70.3531291
21
52.8572627
0
LINE
8
0
10
71.2489087
20
52.6474939
11
92.5753869
21
44.0310375
0
LINE
8
0
10
93.6992066
20
43.8125891
11
191.5552434
21
43.8125891
0
LINE
8
0
10
192.6790631
20
44.0310375
11
214.0055413
21
52.6474939
0
LINE
8
0
10
214.9013209
20
52.8572627
11
236.800012
21
54.5266856
0
LINE
8
0
10
237.2265244
20
54.5287928
11
281.7789373
21
51.5748482
0
LINE
8
0
10
284.4782426
20
49.3578777
11
299.318013
21
-6.0248994
0
LINE
8
0
10
297.6370295
20
-9.5435111
11
228.0792904
21
-40.4088182
0
LINE
8
0
10
227.2602668
20
-40.9474652
11
181.4356345
21
-83.2847738
0
LINE
8
0
10
179.3998169
20
-84.081266
11
105.8546331
21
-84.081266
0
LINE
8
0
10
103.8188155
20
-83.2847738
11
57.9941832
21
-40.9474652
0
LINE
8
0
10
57.1751596
20
-40.4088182
11
-12.3825795
21
-9.5435111
0
ARC
8
0
10
3.6739849
20
48.5814206
40
3
50
93.7933103
51
165.0000021
0
ARC
8
0
10
48.2263978
20
51.5353652
40
3
50
85.6405479
51
93.7933103
0
ARC
8
0
10
70.1250889
20
49.8659423
40
3
50
68.0000006
51
85.6405479
0
ARC
8
0
10
93.6992066
20
46.8125891
40
3
50
248.0000006
51
270
0
ARC
8
0
10
191.5552434
20
46.8125891
40
3
50
270
51
291.9999994
0
ARC
8
0
10
215.1293611
20
49.8659423
40
3
50
94.3594521
51
111.9999994
0
ARC
8
0
10
237.0280522
20
51.5353652
40
3
50
86.2066897
51
94.3594521
0
ARC
8
0
10
281.5804651
20
48.5814206
40
3
50
14.9999979
51
86.2066897
0
ARC
8
0
10
296.4202355
20
-6.8013564
40
3
50
293.9286055
51
14.9999979
0
ARC
8
0
10
229.2960844
20
-43.1509729
40
3
50
113.9286055
51
132.734798
0
ARC
8
0
10
179.3998169
20
-81.081266
40
3
50
270
51
312.734798
0
ARC
8
0
10
105.8546331
20
-81.081266
40
3
50
227.265202
51
270
0
ARC
8
0
10
55.9583656
20
-43.1509729
40
3
50
47.265202
51
66.0713945
0
ARC
8
0
10
-11.1657855
20
-6.8013564
40
3
50
165.0000021
51
246.0713945
0
LINE
8
0
10
-11.3595087
20
-6.5584154
11
6.5584154
21
-11.3595087
0
LINE
8
0
10
6.5584154
20
-11.3595087
11
11.3595087
21
6.5584154
0
LINE
8
0
10
11.3595087
20
6.5584154
11
-6.5584154
21
11.3595087
0
LINE
8
0
10
-6.5584154
20
11.3595087
11
-11.3595087
21
-6.5584154
0
LINE
8
0
10
-6.4419468
20
11.7941753
11
11.4759773
21
6.993082
0
LINE
8
0
10
11.4759773
20
6.993082
11
16.2770706
21
24.9110061
0
LINE
8
0
10
16.2770706
20
24.9110061
11
-1.6408535
21
29.7120994
0
LINE
8
0
10
-1.6408535
20
29.7120994
11
-6.4419468
21
11.7941753
0
LINE
8
0
10
-1.524385
20
30.146766
11
16.3935391
21
25.3456727
0
LINE
8
0
10
16.3935391
20
25.3456727
11
21.1946324
21
43.2635968
0
LINE
8
0
10
21.1946324
20
43.2635968
11
3.2767083
21
48.0646901
0
LINE
8
0
10
3.2767083
20
48.0646901
11
-1.524385
21
30.146766
0
LINE
8
0
10
8.0073041
20
-11.7477373
11
25.9252282
21
-16.5488306
0
LINE
8
0
10
25.9252282
20
-16.5488306
11
30.7263215
21
1.3690935
0
LINE
8
0
10
30.7263215
20
1.3690935
11
12.8083974
21
6.1701868
0
LINE
8
0
10
12.8083974
20
6.1701868
11
8.0073041
21
-11.7477373
0
LINE
8
0
10
12.924866
20
6.6048534
11
30.8427901
21
1.8037601
0
LINE
8
0
10
30.8427901
20
1.8037601
11
35.6438834
21
19.7216842
0
LINE
8
0
10
35.6438834
20
19.7216842
11
17.7259593
21
24.5227775
0
LINE
8
0
10
17.7259593
20
24.5227775
11
12.924866
21
6.6048534
0
LINE
8
0
10
17.8424278
20
24.9574441
11
35.7603519
21
20.1563508
0
LINE
8
0
10
35.7603519
20
20.1563508
11
40.5614452
21
38.0742749
0
LINE
8
0
10
40.5614452
20
38.0742749
11
22.6435211
21
42.8753682
0
LINE
8
0
10
22.6435211
20
42.8753682
11
17.8424278
21
24.9574441
0
LINE
8
0
10
30.5436168
20
-2.1213907
11
47.9749149
21
-8.4658644
0
LINE
8
0
10
47.9749149
20
-8.4658644
11
54.3193886
21
8.9654337
0
LINE
8
0
10
54.3193886
20
8.9654337
11
36.8880905
21
15.3099074
0
LINE
8
0
10
36.8880905
20
15.3099074
11
30.5436168
21
-2.1213907
0
LINE
8
0
10
37.0419996
20
15.7327692
11
54.4732977
21
9.3882955
0
LINE
8
0
10
54.4732977
20
9.3882955
11
60.8177714
21
26.8195936
0
LINE
8
0
10
60.8177714
20
26.8195936
11
43.3864733
21
33.1640673
0
LINE
8
0
10
43.3864733
20
33.1640673
11
37.0419996
21
15.7327692
0
LINE
8
0
10
43.5403823
20
33.586929
11
60.9716804
21
27.2424553
0
LINE
8
0
10
60.9716804
20
27.2424553
11
67.3161541
21
44.6737534
0
LINE
8
0
10
67.3161541
20
44.6737534
11
49.884856
21
51.0182271
0
LINE
8
0
10
49.884856
20
51.0182271
11
43.5403823
21
33.586929
0
LINE
8
0
10
51.1528786
20
-3.1902931
11
68.3521391
21
-10.1392454
0
LINE
8
0
10
68.3521391
20
-10.1392454
11
75.3010914
21
7.0600151
0
LINE
8
0
10
75.3010914
20
7.0600151
11
58.1018309
21
14.0089674
0
LINE
8
0
10
58.1018309
20
14.0089674
11
51.1528786
21
-3.1902931
0
LINE
8
0
10
58.2704038
20
14.4262002
11
75.4696643
21
7.4772479
0
LINE
8
0
10
75.4696643
20
7.4772479
11
82.4186166
21
24.6765084
0
LINE
8
0
10
82.4186166
20
24.6765084
11
65.2193561
21
31.6254607
0
LINE
8
0
10
65.2193561
20
31.6254607
11
58.2704038
21
14.4262002
0
LINE
8
0
10
65.3879291
20
32.0426934
11
82.5871896
21
25.0937411
0
LINE
8
0
10
82.5871896
20
25.0937411
11
89.5361419
21
42.2930016
0
LINE
8
0
10
89.5361419
20
42.2930016
11
72.3368814
21
49.2419539
0
LINE
8
0
10
72.3368814
20
49.2419539
11
65.3879291
21
32.0426934
0
LINE
8
0
10
67.430528
20
-15.5755087
11
84.3767963
21
-23.1204734
0
LINE
8
0
10
84.3767963
20
-23.1204734
11
91.921761
21
-6.1742051
0
LINE
8
0
10
91.921761
20
-6.1742051
11
74.9754927
21
1.3707596
0
LINE
8
0
10
74.9754927
20
1.3707596
11
67.430528
21
-15.5755087
0
LINE
8
0
10
75.1585242
20
1.781855
11
92.1047925
21
-5.7631097
0
LINE
8
0
10
92.1047925
20
-5.7631097
11
99.6497572
21
11.1831586
0
LINE
8
0
10
99.6497572
20
11.1831586
11
82.7034889
21
18.7281233
0
LINE
8
0
10
82.7034889
20
18.7281233
11
75.1585242
21
1.781855
0
LINE
8
0
10
82.8865204
20
19.1392188
11
99.8327887
21
11.5942541
0
LINE
8
0
10
99.8327887
20
11.5942541
11
107.3777534
21
28.5405224
0
LINE
8
0
10
107.3777534
20
28.5405224
11
90.4314851
21
36.0854871
0
LINE
8
0
10
90.4314851
20
36.0854871
11
82.8865204
21
19.1392188
0
LINE
8
0
10
85.6669419
20
-23.5161469
11
102.4789513
21
-31.3557157
0
LINE
8
0
10
102.4789513
20
-31.3557157
11
110.3185201
21
-14.5437063
0
LINE
8
0
10
110.3185201
20
-14.5437063
11
93.5065107
21
-6.7041375
0
LINE
8
0
10
93.5065107
20
-6.7041375
11
85.6669419
21
-23.5161469
0
LINE
8
0
10
93.6966889
20
-6.296299
11
110.5086983
21
-14.1358678
0
LINE
8
0
10
110.5086983
20
-14.1358678
11
118.3482671
21
2.6761416
0
LINE
8
0
10
118.3482671
20
2.6761416
11
101.5362577
21
10.5157104
0
LINE
8
0
10
101.5362577
20
10.5157104
11
93.6966889
21
-6.296299
0
LINE
8
0
10
101.7264359
20
10.923549
11
118.5384453
21
3.0839802
0
LINE
8
0
10
118.5384453
20
3.0839802
11
126.3780141
21
19.8959896
0
LINE
8
0
10
126.3780141
20
19.8959896
11
109.5660047
21
27.7355584
0
LINE
8
0
10
109.5660047
20
27.7355584
11
101.7264359
21
10.923549
0
LINE
8
0
10
61.3677031
20
-39.5383469
11
77.5918987
21
-48.5315653
0
LINE
8
0
10
77.5918987
20
-48.5315653
11
86.5851171
21
-32.3073697
0
LINE
8
0
10
86.5851171
20
-32.3073697
11
70.3609215
21
-23.3141513
0
LINE
8
0
10
70.3609215
20
-23.3141513
11
61.3677031
21
-39.5383469
0
LINE
8
0
10
80.2141552
20
-49.7693993
11
94.6302128
21
-61.4432925
0
LINE
8
0
10
94.6302128
20
-61.4432925
11
106.304106
21
-47.0272349
0
LINE
8
0
10
106.304106
20
-47.0272349
11
91.8880484
21
-35.3533417
0
LINE
8
0
10
91.8880484
20
-35.3533417
11
80.2141552
21
-49.7693993
0
LINE
8
0
10
96.0678138
20
-64.4072478
11
105.6217701
21
-80.3077013
0
LINE
8
0
10
105.6217701
20
-80.3077013
11
121.5222236
21
-70.753745
0
LINE
8
0
10
121.5222236
20
-70.753745
11
111.9682673
21
-54.8532915
0
LINE
8
0
10
111.9682673
20
-54.8532915
11
96.0678138
21
-64.4072478
0
LINE
8
0
10
278.6960346
20
-11.3595087
11
296.6139587
21
-6.5584154
0
LINE
8
0
10
296.6139587
20
-6.5584154
11
291.8128654
21
11.3595087
0
LINE
8
0
10
291.8128654
20
11.3595087
11
273.8949413
21
6.5584154
0
LINE
8
0
10
273.8949413
20
6.5584154
11
278.6960346
21
-11.3595087
0
LINE
8
0
10
273.7784727
20
6.993082
11
291.6963968
21
11.7941753
0
LINE
8
0
10
291.6963968
20
11.7941753
11
286.8953035
21
29.7120994
0
LINE
8
0
10
286.8953035
20
29.7120994
11
268.9773794
21
24.9110061
0
LINE
8
0
10
268.9773794
20
24.9110061
11
273.7784727
21
6.993082
0
LINE
8
0
10
268.8609109
20
25.3456727
11
286.778835
21
30.146766
0
LINE
8
0
10
286.778835
20
30.146766
11
281.9777417
21
48.0646901
0
LINE
8
0
10
281.9777417
20
48.0646901
11
264.0598176
21
43.2635968
0
LINE
8
0
10
264.0598176
20
43.2635968
11
268.8609109
21
25.3456727
0
LINE
8
0
10
259.3292218
20
-16.5488306
11
277.2471459
21
-11.7477373
0
LINE
8
0
10
277.2471459
20
-11.7477373
11
272.4460526
21
6.1701868
0
LINE
8
0
10
272.4460526
20
6.1701868
11
254.5281285
21
1.3690935
0
LINE
8
0
10
254.5281285
20
1.3690935
11
259.3292218
21
-16.5488306
0
LINE
8
0
10
254.4116599
20
1.8037601
11
272.329584
21
6.6048534
0
LINE
8
0
10
272.329584
20
6.6048534
11
267.5284907
21
24.5227775
0
LINE
8
0
10
267.5284907
20
24.5227775
11
249.6105666
21
19.7216842
0
LINE
8
0
10
249.6105666
20
19.7216842
11
254.4116599
21
1.8037601
0
LINE
8
0
10
249.4940981
20
20.1563508
11
267.4120222
21
24.9574441
0
LINE
8
0
10
267.4120222
20
24.9574441
11
262.6109289
21
42.8753682
0
LINE
8
0
10
262.6109289
20
42.8753682
11
244.6930048
21
38.0742749
0
LINE
8
0
10
244.6930048
20
38.0742749
11
249.4940981
21
20.1563508
0
LINE
8
0
10
237.2795351
20
-8.4658644
11
254.7108332
21
-2.1213907
0
LINE
8
0
10
254.7108332
20
-2.1213907
11
248.3663595
21
15.3099074
0
LINE
8
0
10
248.3663595
20
15.3099074
11
230.9350614
21
8.9654337
0
LINE
8
0
10
230.9350614
20
8.9654337
11
237.2795351
21
-8.4658644
0
LINE
8
0
10
230.7811523
20
9.3882955
11
248.2124504
21
15.7327692
0
LINE
8
0
10
248.2124504
20
15.7327692
11
241.8679767
21
33.1640673
0
LINE
8
0
10
241.8679767
20
33.1640673
11
224.4366786
21
26.8195936
0
LINE
8
0
10
224.4366786
20
26.8195936
11
230.7811523
21
9.3882955
0
LINE
8
0
10
224.2827696
20
27.2424553
11
241.7140677
21
33.586929
0
LINE
8
0
10
241.7140677
20
33.586929
11
235.369594
21
51.0182271
0
LINE
8
0
10
235.369594
20
51.0182271
11
217.9382959
21
44.6737534
0
LINE
8
0
10
217.9382959
20
44.6737534
11
224.2827696
21
27.2424553
0
LINE
8
0
10
216.9023109
20
-10.1392454
11
234.1015714
21
-3.1902931
0
LINE
8
0
10
234.1015714
20
-3.1902931
11
227.1526191
21
14.0089674
0
LINE
8
0
10
227.1526191
20
14.0089674
11
209.9533586
21
7.0600151
0
LINE
8
0
10
209.9533586
20
7.0600151
11
216.9023109
21
-10.1392454
0
LINE
8
0
10
209.7847857
20
7.4772479
11
226.9840462
21
14.4262002
0
LINE
8
0
10
226.9840462
20
14.4262002
11
220.0350939
21
31.6254607
0
LINE
8
0
10
220.0350939
20
31.6254607
11
202.8358334
21
24.6765084
0
LINE
8
0
10
202.8358334
20
24.6765084
11
209.7847857
21
7.4772479
0
LINE
8
0
10
202.6672604
20
25.0937411
11
219.8665209
21
32.0426934
0
LINE
8
0
10
219.8665209
20
32.0426934
11
212.9175686
21
49.2419539
0
LINE
8
0
10
212.9175686
20
49.2419539
11
195.7183081
21
42.2930016
0
LINE
8
0
10
195.7183081
20
42.2930016
11
202.6672604
21
25.0937411
0
LINE
8
0
10
200.8776537
20
-23.1204734
11
217.823922
21
-15.5755087
0
LINE
8
0
10
217.823922
20
-15.5755087
11
210.2789573
21
1.3707596
0
LINE
8
0
10
210.2789573
20
1.3707596
11
193.332689
21
-6.1742051
0
LINE
8
0
10
193.332689
20
-6.1742051
11
200.8776537
21
-23.1204734
0
LINE
8
0
10
193.1496575
20
-5.7631097
11
210.0959258
21
1.781855
0
LINE
8
0
10
210.0959258
20
1.781855
11
202.5509611
21
18.7281233
0
LINE
8
0
10
202.5509611
20
18.7281233
11
185.6046928
21
11.1831586
0
LINE
8
0
10
185.6046928
20
11.1831586
11
193.1496575
21
-5.7631097
0
LINE
8
0
10
185.4216613
20
11.5942541
11
202.3679296
21
19.1392188
0
LINE
8
0
10
202.3679296
20
19.1392188
11
194.8229649
21
36.0854871
0
LINE
8
0
10
194.8229649
20
36.0854871
11
177.8766966
21
28.5405224
0
LINE
8
0
10
177.8766966
20
28.5405224
11
185.4216613
21
11.5942541
0
LINE
8
0
10
182.7754987
20
-31.3557157
11
199.5875081
21
-23.5161469
0
LINE
8
0
10
199.5875081
20
-23.5161469
11
191.7479393
21
-6.7041375
0
LINE
8
0
10
191.7479393
20
-6.7041375
11
174.9359299
21
-14.5437063
0
LINE
8
0
10
174.9359299
20
-14.5437063
11
182.7754987
21
-31.3557157
0
LINE
8
0
10
174.7457517
20
-14.1358678
11
191.5577611
21
-6.296299
0
LINE
8
0
10
191.5577611
20
-6.296299
11
183.7181923
21
10.5157104
0
LINE
8
0
10
183.7181923
20
10.5157104
11
166.9061829
21
2.6761416
0
LINE
8
0
10
166.9061829
20
2.6761416
11
174.7457517
21
-14.1358678
0
LINE
8
0
10
166.7160047
20
3.0839802
11
183.5280141
21
10.923549
0
LINE
8
0
10
183.5280141
20
10.923549
11
175.6884453
21
27.7355584
0
LINE
8
0
10
175.6884453
20
27.7355584
11
158.8764359
21
19.8959896
0
LINE
8
0
10
158.8764359
20
19.8959896
11
166.7160047
21
3.0839802
0
LINE
8
0
10
207.6625513
20
-48.5315653
11
223.8867469
21
-39.5383469
0
LINE
8
0
10
223.8867469
20
-39.5383469
11
214.8935285
21
-23.3141513
0
LINE
8
0
10
214.8935285
20
-23.3141513
11
198.6693329
21
-32.3073697
0
LINE
8
0
10
198.6693329
20
-32.3073697
11
207.6625513
21
-48.5315653
0
LINE
8
0
10
190.6242372
20
-61.4432925
11
205.0402948
21
-49.7693993
0
LINE
8
0
10
205.0402948
20
-49.7693993
11
193.3664016
21
-35.3533417
0
LINE
8
0
10
193.3664016
20
-35.3533417
11
178.950344
21
-47.0272349
0
LINE
8
0
10
178.950344
20
-47.0272349
11
190.6242372
21
-61.4432925
0
LINE
8
0
10
179.6326799
20
-80.3077013
11
189.1866362
21
-64.4072478
0
LINE
8
0
10
189.1866362
20
-64.4072478
11
173.2861827
21
-54.8532915
0
LINE
8
0
10
173.2861827
20
-54.8532915
11
163.7322264
21
-70.753745
0
LINE
8
0
10
163.7322264
20
-70.753745
11
179.6326799
21
-80.3077013
0
ENDSEC
0
EOF