0
SECTION
2
HEADER
9
$INSUNITS
70
4
0
ENDSEC
0
SECTION
2
TABLES
0
TABLE
2
LTYPE
0
LTYPE
72
65
70
64
2
CONTINUOUS
3
______
73
0
40
0
0
ENDTAB
0
TABLE
2
LAYER
0
ENDTAB
0
ENDSEC
0
SECTION
2
ENTITIES
0
LINE
8
0
10
-6.363961
20
11.0227038
11
11.0227038
21
6.363961
0
LINE
8
0
10
11.0227038
20
6.363961
11
6.363961
21
-11.0227038
0
LINE
8
0
10
6.363961
20
-11.0227038
11
-11.0227038
21
-6.363961
0
LINE
8
0
10
-11.0227038
20
-6.363961
11
-6.363961
21
11.0227038
0
LINE
8
0
10
-1.4463991
20
29.3752945
11
15.9402657
21
24.7165517
0
LINE
8
0
10
15.9402657
20
24.7165517
11
11.2815229
21
7.3298869
0
LINE
8
0
10
11.2815229
20
7.3298869
11
-6.1051419
21
11.9886297
0
LINE
8
0
10
-6.1051419
20
11.9886297
11
-1.4463991
21
29.3752945
0
LINE
8
0
10
3.4711627
20
47.7278852
11
20.8578275
21
43.0691424
0
LINE
8
0
10
20.8578275
20
43.0691424
11
16.1990847
21
25.6824776
0
LINE
8
0
10
16.1990847
20
25.6824776
11
-1.1875801
21
30.3412204
0
LINE
8
0
10
-1.1875801
20
30.3412204
11
3.4711627
21
47.7278852
0
LINE
8
0
10
13.0028518
20
5.8333819
11
30.3895166
21
1.1746391
0
LINE
8
0
10
30.3895166
20
1.1746391
11
25.7307738
21
-16.2120257
0
LINE
8
0
10
25.7307738
20
-16.2120257
11
8.344109
21
-11.5532829
0
LINE
8
0
10
8.344109
20
-11.5532829
11
13.0028518
21
5.8333819
0
LINE
8
0
10
17.9204137
20
24.1859726
11
35.3070785
21
19.5272298
0
LINE
8
0
10
35.3070785
20
19.5272298
11
30.6483357
21
2.140565
0
LINE
8
0
10
30.6483357
20
2.140565
11
13.2616709
21
6.7993078
0
LINE
8
0
10
13.2616709
20
6.7993078
11
17.9204137
21
24.1859726
0
LINE
8
0
10
22.8379755
20
42.5385633
11
40.2246403
21
37.8798205
0
LINE
8
0
10
40.2246403
20
37.8798205
11
35.5658975
21
20.4931557
0
LINE
8
0
10
35.5658975
20
20.4931557
11
18.1792327
21
25.1518985
0
LINE
8
0
10
18.1792327
20
25.1518985
11
22.8379755
21
42.5385633
0
LINE
8
0
10
37.0524504
20
14.9574364
11
53.9669176
21
8.8010738
0
LINE
8
0
10
53.9669176
20
8.8010738
11
47.810555
21
-8.1133934
0
LINE
8
0
10
47.810555
20
-8.1133934
11
30.8960878
21
-1.9570308
0
LINE
8
0
10
30.8960878
20
-1.9570308
11
37.0524504
21
14.9574364
0
LINE
8
0
10
43.5508332
20
32.8115963
11
60.4653004
21
26.6552337
0
LINE
8
0
10
60.4653004
20
26.6552337
11
54.3089378
21
9.7407665
0
LINE
8
0
10
54.3089378
20
9.7407665
11
37.3944706
21
15.8971291
0
LINE
8
0
10
37.3944706
20
15.8971291
11
43.5508332
21
32.8115963
0
LINE
8
0
10
50.0492159
20
50.6657561
11
66.9636831
21
44.5093935
0
LINE
8
0
10
66.9636831
20
44.5093935
11
60.8073205
21
27.5949263
0
LINE
8
0
10
60.8073205
20
27.5949263
11
43.8928533
21
33.7512889
0
LINE
8
0
10
43.8928533
20
33.7512889
11
50.0492159
21
50.6657561
0
LINE
8
0
10
58.2537896
20
13.650975
11
74.943099
21
6.9080564
0
LINE
8
0
10
74.943099
20
6.9080564
11
68.2001804
21
-9.781253
0
LINE
8
0
10
68.2001804
20
-9.781253
11
51.510871
21
-3.0383344
0
LINE
8
0
10
51.510871
20
-3.0383344
11
58.2537896
21
13.650975
0
LINE
8
0
10
65.3713148
20
31.2674683
11
82.0606242
21
24.5245497
0
LINE
8
0
10
82.0606242
20
24.5245497
11
75.3177056
21
7.8352403
0
LINE
8
0
10
75.3177056
20
7.8352403
11
58.6283962
21
14.5781589
0
LINE
8
0
10
58.6283962
20
14.5781589
11
65.3713148
21
31.2674683
0
LINE
8
0
10
72.4888401
20
48.8839615
11
89.1781495
21
42.1410429
0
LINE
8
0
10
89.1781495
20
42.1410429
11
82.4352309
21
25.4517335
0
LINE
8
0
10
82.4352309
20
25.4517335
11
65.7459215
21
32.1946521
0
LINE
8
0
10
65.7459215
20
32.1946521
11
72.4888401
21
48.8839615
0
LINE
8
0
10
75.1148652
20
1.007682
11
91.5586834
21
-6.3135776
0
LINE
8
0
10
91.5586834
20
-6.3135776
11
84.2374238
21
-22.7573958
0
LINE
8
0
10
84.2374238
20
-22.7573958
11
67.7936056
21
-15.4361362
0
LINE
8
0
10
67.7936056
20
-15.4361362
11
75.1148652
21
1.007682
0
LINE
8
0
10
82.8428614
20
18.3650457
11
99.2866796
21
11.0437861
0
LINE
8
0
10
99.2866796
20
11.0437861
11
91.96542
21
-5.4000321
0
LINE
8
0
10
91.96542
20
-5.4000321
11
75.5216018
21
1.9212275
0
LINE
8
0
10
75.5216018
20
1.9212275
11
82.8428614
21
18.3650457
0
LINE
8
0
10
90.5708576
20
35.7224095
11
107.0146758
21
28.4011499
0
LINE
8
0
10
107.0146758
20
28.4011499
11
99.6934162
21
11.9573317
0
LINE
8
0
10
99.6934162
20
11.9573317
11
83.249598
21
19.2785913
0
LINE
8
0
10
83.249598
20
19.2785913
11
90.5708576
21
35.7224095
0
LINE
8
0
10
93.6395253
20
-7.0695922
11
109.9530654
21
-14.6767209
0
LINE
8
0
10
109.9530654
20
-14.6767209
11
102.3459367
21
-30.990261
0
LINE
8
0
10
102.3459367
20
-30.990261
11
86.0323966
21
-23.3831323
0
LINE
8
0
10
86.0323966
20
-23.3831323
11
93.6395253
21
-7.0695922
0
LINE
8
0
10
101.6692723
20
10.1502557
11
117.9828124
21
2.543127
0
LINE
8
0
10
117.9828124
20
2.543127
11
110.3756837
21
-13.7704131
0
LINE
8
0
10
110.3756837
20
-13.7704131
11
94.0621436
21
-6.1632844
0
LINE
8
0
10
94.0621436
20
-6.1632844
11
101.6692723
21
10.1502557
0
LINE
8
0
10
109.6990193
20
27.3701037
11
126.0125594
21
19.762975
0
LINE
8
0
10
126.0125594
20
19.762975
11
118.4054307
21
3.4494349
0
LINE
8
0
10
118.4054307
20
3.4494349
11
102.0918906
21
11.0565636
0
LINE
8
0
10
102.0918906
20
11.0565636
11
109.6990193
21
27.3701037
0
LINE
8
0
10
70.4681193
20
-23.6879944
11
86.211274
21
-32.4145675
0
LINE
8
0
10
86.211274
20
-32.4145675
11
77.4847009
21
-48.1577222
0
LINE
8
0
10
77.4847009
20
-48.1577222
11
61.7415462
21
-39.4311491
0
LINE
8
0
10
61.7415462
20
-39.4311491
11
70.4681193
21
-23.6879944
0
LINE
8
0
10
91.9287005
20
-35.7401199
11
105.9173278
21
-47.067887
0
LINE
8
0
10
105.9173278
20
-47.067887
11
94.5895607
21
-61.0565143
0
LINE
8
0
10
94.5895607
20
-61.0565143
11
80.6009334
21
-49.7287472
0
LINE
8
0
10
80.6009334
20
-49.7287472
11
91.9287005
21
-35.7401199
0
LINE
8
0
10
111.8741817
20
-55.230648
11
121.1448671
21
-70.6596594
0
LINE
8
0
10
121.1448671
20
-70.6596594
11
105.7158557
21
-79.9303448
0
LINE
8
0
10
105.7158557
20
-79.9303448
11
96.4451703
21
-64.5013334
0
LINE
8
0
10
96.4451703
20
-64.5013334
11
111.8741817
21
-55.230648
0
LINE
8
0
10
274.2317462
20
6.363961
11
291.618411
21
11.0227038
0
LINE
8
0
10
291.618411
20
11.0227038
11
296.2771538
21
-6.363961
0
LINE
8
0
10
296.2771538
20
-6.363961
11
278.890489
21
-11.0227038
0
LINE
8
0
10
278.890489
20
-11.0227038
11
274.2317462
21
6.363961
0
LINE
8
0
10
269.3141843
20
24.7165517
11
286.7008491
21
29.3752945
0
LINE
8
0
10
286.7008491
20
29.3752945
11
291.3595919
21
11.9886297
0
LINE
8
0
10
291.3595919
20
11.9886297
11
273.9729271
21
7.3298869
0
LINE
8
0
10
273.9729271
20
7.3298869
11
269.3141843
21
24.7165517
0
LINE
8
0
10
264.3966225
20
43.0691424
11
281.7832873
21
47.7278852
0
LINE
8
0
10
281.7832873
20
47.7278852
11
286.4420301
21
30.3412204
0
LINE
8
0
10
286.4420301
20
30.3412204
11
269.0553653
21
25.6824776
0
LINE
8
0
10
269.0553653
20
25.6824776
11
264.3966225
21
43.0691424
0
LINE
8
0
10
254.8649334
20
1.1746391
11
272.2515982
21
5.8333819
0
LINE
8
0
10
272.2515982
20
5.8333819
11
276.910341
21
-11.5532829
0
LINE
8
0
10
276.910341
20
-11.5532829
11
259.5236762
21
-16.2120257
0
LINE
8
0
10
259.5236762
20
-16.2120257
11
254.8649334
21
1.1746391
0
LINE
8
0
10
249.9473715
20
19.5272298
11
267.3340363
21
24.1859726
0
LINE
8
0
10
267.3340363
20
24.1859726
11
271.9927791
21
6.7993078
0
LINE
8
0
10
271.9927791
20
6.7993078
11
254.6061143
21
2.140565
0
LINE
8
0
10
254.6061143
20
2.140565
11
249.9473715
21
19.5272298
0
LINE
8
0
10
245.0298097
20
37.8798205
11
262.4164745
21
42.5385633
0
LINE
8
0
10
262.4164745
20
42.5385633
11
267.0752173
21
25.1518985
0
LINE
8
0
10
267.0752173
20
25.1518985
11
249.6885525
21
20.4931557
0
LINE
8
0
10
249.6885525
20
20.4931557
11
245.0298097
21
37.8798205
0
LINE
8
0
10
231.2875324
20
8.8010738
11
248.2019996
21
14.9574364
0
LINE
8
0
10
248.2019996
20
14.9574364
11
254.3583622
21
-1.9570308
0
LINE
8
0
10
254.3583622
20
-1.9570308
11
237.443895
21
-8.1133934
0
LINE
8
0
10
237.443895
20
-8.1133934
11
231.2875324
21
8.8010738
0
LINE
8
0
10
224.7891496
20
26.6552337
11
241.7036168
21
32.8115963
0
LINE
8
0
10
241.7036168
20
32.8115963
11
247.8599794
21
15.8971291
0
LINE
8
0
10
247.8599794
20
15.8971291
11
230.9455122
21
9.7407665
0
LINE
8
0
10
230.9455122
20
9.7407665
11
224.7891496
21
26.6552337
0
LINE
8
0
10
218.2907669
20
44.5093935
11
235.2052341
21
50.6657561
0
LINE
8
0
10
235.2052341
20
50.6657561
11
241.3615967
21
33.7512889
0
LINE
8
0
10
241.3615967
20
33.7512889
11
224.4471295
21
27.5949263
0
LINE
8
0
10
224.4471295
20
27.5949263
11
218.2907669
21
44.5093935
0
LINE
8
0
10
210.311351
20
6.9080564
11
227.0006604
21
13.650975
0
LINE
8
0
10
227.0006604
20
13.650975
11
233.743579
21
-3.0383344
0
LINE
8
0
10
233.743579
20
-3.0383344
11
217.0542696
21
-9.781253
0
LINE
8
0
10
217.0542696
20
-9.781253
11
210.311351
21
6.9080564
0
LINE
8
0
10
203.1938258
20
24.5245497
11
219.8831352
21
31.2674683
0
LINE
8
0
10
219.8831352
20
31.2674683
11
226.6260538
21
14.5781589
0
LINE
8
0
10
226.6260538
20
14.5781589
11
209.9367444
21
7.8352403
0
LINE
8
0
10
209.9367444
20
7.8352403
11
203.1938258
21
24.5245497
0
LINE
8
0
10
196.0763005
20
42.1410429
11
212.7656099
21
48.8839615
0
LINE
8
0
10
212.7656099
20
48.8839615
11
219.5085285
21
32.1946521
0
LINE
8
0
10
219.5085285
20
32.1946521
11
202.8192191
21
25.4517335
0
LINE
8
0
10
202.8192191
20
25.4517335
11
196.0763005
21
42.1410429
0
LINE
8
0
10
193.6957666
20
-6.3135776
11
210.1395848
21
1.007682
0
LINE
8
0
10
210.1395848
20
1.007682
11
217.4608444
21
-15.4361362
0
LINE
8
0
10
217.4608444
20
-15.4361362
11
201.0170262
21
-22.7573958
0
LINE
8
0
10
201.0170262
20
-22.7573958
11
193.6957666
21
-6.3135776
0
LINE
8
0
10
185.9677704
20
11.0437861
11
202.4115886
21
18.3650457
0
LINE
8
0
10
202.4115886
20
18.3650457
11
209.7328482
21
1.9212275
0
LINE
8
0
10
209.7328482
20
1.9212275
11
193.28903
21
-5.4000321
0
LINE
8
0
10
193.28903
20
-5.4000321
11
185.9677704
21
11.0437861
0
LINE
8
0
10
178.2397742
20
28.4011499
11
194.6835924
21
35.7224095
0
LINE
8
0
10
194.6835924
20
35.7224095
11
202.004852
21
19.2785913
0
LINE
8
0
10
202.004852
20
19.2785913
11
185.5610338
21
11.9573317
0
LINE
8
0
10
185.5610338
20
11.9573317
11
178.2397742
21
28.4011499
0
LINE
8
0
10
175.3013846
20
-14.6767209
11
191.6149247
21
-7.0695922
0
LINE
8
0
10
191.6149247
20
-7.0695922
11
199.2220534
21
-23.3831323
0
LINE
8
0
10
199.2220534
20
-23.3831323
11
182.9085133
21
-30.990261
0
LINE
8
0
10
182.9085133
20
-30.990261
11
175.3013846
21
-14.6767209
0
LINE
8
0
10
167.2716376
20
2.543127
11
183.5851777
21
10.1502557
0
LINE
8
0
10
183.5851777
20
10.1502557
11
191.1923064
21
-6.1632844
0
LINE
8
0
10
191.1923064
20
-6.1632844
11
174.8787663
21
-13.7704131
0
LINE
8
0
10
174.8787663
20
-13.7704131
11
167.2716376
21
2.543127
0
LINE
8
0
10
159.2418906
20
19.762975
11
175.5554307
21
27.3701037
0
LINE
8
0
10
175.5554307
20
27.3701037
11
183.1625594
21
11.0565636
0
LINE
8
0
10
183.1625594
20
11.0565636
11
166.8490193
21
3.4494349
0
LINE
8
0
10
166.8490193
20
3.4494349
11
159.2418906
21
19.762975
0
LINE
8
0
10
199.043176
20
-32.4145675
11
214.7863307
21
-23.6879944
0
LINE
8
0
10
214.7863307
20
-23.6879944
11
223.5129038
21
-39.4311491
0
LINE
8
0
10
223.5129038
20
-39.4311491
11
207.7697491
21
-48.1577222
0
LINE
8
0
10
207.7697491
20
-48.1577222
11
199.043176
21
-32.4145675
0
LINE
8
0
10
179.3371222
20
-47.067887
11
193.3257495
21
-35.7401199
0
LINE
8
0
10
193.3257495
20
-35.7401199
11
204.6535166
21
-49.7287472
0
LINE
8
0
10
204.6535166
20
-49.7287472
11
190.6648893
21
-61.0565143
0
LINE
8
0
10
190.6648893
20
-61.0565143
11
179.3371222
21
-47.067887
0
LINE
8
0
10
164.1095829
20
-70.6596594
11
173.3802683
21
-55.230648
0
LINE
8
0
10
173.3802683
20
-55.230648
11
188.8092797
21
-64.5013334
0
LINE
8
0
10
188.8092797
20
-64.5013334
11
179.5385943
21
-79.9303448
0
LINE
8
0
10
179.5385943
20
-79.9303448
11
164.1095829
21
-70.6596594
0
ENDSEC
0
EOF