0
SECTION
2
HEADER
9
$INSUNITS
70
4
0
ENDSEC
0
SECTION
2
TABLES
0
TABLE
2
LTYPE
0
LTYPE
72
65
70
64
2
CONTINUOUS
3
______
73
0
40
0
0
ENDTAB
0
TABLE
2
LAYER
0
ENDTAB
0
ENDSEC
0
SECTION
2
ENTITIES
0
LINE
8
0
10
-14.7275571
20
-8.502959
11
27.8697718
21
-19.916879
0
LINE
8
0
10
-14.7275571
20
-8.502959
11
1.3321647
21
51.4327385
0
LINE
8
0
10
1.3321647
20
51.4327385
11
43.0415108
21
40.2567528
0
LINE
8
0
10
27.8697718
20
-19.916879
11
31.7374764
21
-5.4824089
0
LINE
8
0
10
31.7374764
20
-5.4824089
11
49.6185142
21
-11.9905745
0
LINE
8
0
10
49.6185142
20
-11.9905745
11
51.6664999
21
-6.3637801
0
LINE
8
0
10
68.5292293
20
47.158719
11
48.2412567
21
54.5429372
0
LINE
8
0
10
48.2412567
20
54.5429372
11
43.0415108
21
40.2567528
0
LINE
8
0
10
51.6664999
20
-6.3637801
11
65.95189
21
-12.1354523
0
LINE
8
0
10
91.0915911
20
38.8018388
11
93.1160656
21
43.8125891
0
LINE
8
0
10
93.1160656
20
43.8125891
11
70.8172939
21
52.8218776
0
LINE
8
0
10
70.8172939
20
52.8218776
11
68.5292293
21
47.158719
0
LINE
8
0
10
63.7997522
20
-16.9692329
11
85.7705205
21
-26.7512492
0
LINE
8
0
10
85.7705205
20
-26.7512492
11
85.8267499
21
-26.6249559
0
LINE
8
0
10
65.95189
20
-12.1354523
11
63.7997522
21
-16.9692329
0
LINE
8
0
10
108.1503726
20
31.2067799
11
91.0915911
21
38.8018388
0
LINE
8
0
10
85.8267499
20
-26.6249559
11
103.8090975
21
-35.0102623
0
LINE
8
0
10
103.8090975
20
-35.0102623
11
130.0325607
21
21.2261358
0
LINE
8
0
10
130.0325607
20
21.2261358
11
108.2358585
21
31.390105
0
LINE
8
0
10
108.2358585
20
31.390105
11
108.1503726
21
31.2067799
0
LINE
8
0
10
57.6292724
20
-40.6103246
11
78.6638764
21
-52.269996
0
LINE
8
0
10
78.6638764
20
-52.269996
11
78.7470489
21
-52.1199488
0
LINE
8
0
10
87.3715105
20
-36.5610082
11
90.3235478
21
-31.235392
0
LINE
8
0
10
90.3235478
20
-31.235392
11
69.2889438
21
-19.5757206
0
LINE
8
0
10
69.2889438
20
-19.5757206
11
57.6292724
21
-40.6103246
0
LINE
8
0
10
78.7470489
20
-52.1199488
11
92.5608912
21
-63.3061778
0
LINE
8
0
10
100.545143
20
-58.5087553
11
110.1718885
21
-46.6207146
0
LINE
8
0
10
110.1718885
20
-46.6207146
11
91.4815281
21
-31.4855592
0
LINE
8
0
10
91.4815281
20
-31.4855592
11
87.3715105
21
-36.5610082
0
LINE
8
0
10
92.2942491
20
-63.4663925
11
104.6809148
21
-84.081266
0
LINE
8
0
10
104.6809148
20
-84.081266
11
125.2957883
21
-71.6946003
0
LINE
8
0
10
125.2957883
20
-71.6946003
11
112.9091226
21
-51.0797268
0
LINE
8
0
10
112.9091226
20
-51.0797268
11
100.545143
21
-58.5087553
0
LINE
8
0
10
92.5608912
20
-63.3061778
11
92.2942491
21
-63.4663925
0
LINE
8
0
10
257.3846782
20
-19.916879
11
299.9820071
21
-8.502959
0
LINE
8
0
10
283.9222853
20
51.4327385
11
299.9820071
21
-8.502959
0
LINE
8
0
10
242.2129392
20
40.2567528
11
283.9222853
21
51.4327385
0
LINE
8
0
10
253.5169736
20
-5.4824089
11
257.3846782
21
-19.916879
0
LINE
8
0
10
235.6359358
20
-11.9905745
11
253.5169736
21
-5.4824089
0
LINE
8
0
10
233.5879501
20
-6.3637801
11
235.6359358
21
-11.9905745
0
LINE
8
0
10
242.2129392
20
40.2567528
11
237.0131933
21
54.5429372
0
LINE
8
0
10
237.0131933
20
54.5429372
11
216.7252207
21
47.158719
0
LINE
8
0
10
219.30256
20
-12.1354523
11
233.5879501
21
-6.3637801
0
LINE
8
0
10
216.7252207
20
47.158719
11
214.4371561
21
52.8218776
0
LINE
8
0
10
214.4371561
20
52.8218776
11
192.1383844
21
43.8125891
0
LINE
8
0
10
192.1383844
20
43.8125891
11
194.1628589
21
38.8018388
0
LINE
8
0
10
199.4839295
20
-26.7512492
11
221.4546978
21
-16.9692329
0
LINE
8
0
10
221.4546978
20
-16.9692329
11
219.30256
21
-12.1354523
0
LINE
8
0
10
199.4277001
20
-26.6249559
11
199.4839295
21
-26.7512492
0
LINE
8
0
10
194.1628589
20
38.8018388
11
177.1040774
21
31.2067799
0
LINE
8
0
10
181.4453525
20
-35.0102623
11
199.4277001
21
-26.6249559
0
LINE
8
0
10
155.2218893
20
21.2261358
11
181.4453525
21
-35.0102623
0
LINE
8
0
10
177.1040774
20
31.2067799
11
177.0185915
21
31.390105
0
LINE
8
0
10
177.0185915
20
31.390105
11
155.2218893
21
21.2261358
0
LINE
8
0
10
206.5905736
20
-52.269996
11
227.6251776
21
-40.6103246
0
LINE
8
0
10
227.6251776
20
-40.6103246
11
215.9655062
21
-19.5757206
0
LINE
8
0
10
215.9655062
20
-19.5757206
11
194.9309022
21
-31.235392
0
LINE
8
0
10
194.9309022
20
-31.235392
11
197.8829395
21
-36.5610082
0
LINE
8
0
10
206.5074011
20
-52.1199488
11
206.5905736
21
-52.269996
0
LINE
8
0
10
192.6935588
20
-63.3061778
11
206.5074011
21
-52.1199488
0
LINE
8
0
10
197.8829395
20
-36.5610082
11
193.7729219
21
-31.4855592
0
LINE
8
0
10
193.7729219
20
-31.4855592
11
175.0825615
21
-46.6207146
0
LINE
8
0
10
175.0825615
20
-46.6207146
11
184.709307
21
-58.5087553
0
LINE
8
0
10
180.5735352
20
-84.081266
11
192.9602009
21
-63.4663925
0
LINE
8
0
10
192.9602009
20
-63.4663925
11
192.6935588
21
-63.3061778
0
LINE
8
0
10
184.709307
20
-58.5087553
11
172.3453274
21
-51.0797268
0
LINE
8
0
10
172.3453274
20
-51.0797268
11
159.9586617
21
-71.6946003
0
LINE
8
0
10
159.9586617
20
-71.6946003
11
180.5735352
21
-84.081266
0
ENDSEC
0
EOF